<?xml version="1.0" encoding="utf-8"?>
<!-- Generator: Adobe Illustrator 24.1.2, SVG Export Plug-In . SVG Version: 6.00 Build 0)  -->
<svg version="1.1" id="Layer_1" xmlns="http://www.w3.org/2000/svg" xmlns:xlink="http://www.w3.org/1999/xlink" x="0px" y="0px"
	 viewBox="0 0 50 50" style="enable-background:new 0 0 50 50;" xml:space="preserve">
<style type="text/css">
	.st0{fill:#FFFFFF;}
	.st1{fill:#4E79A8;}
	.st2{fill:#76A2C9;}
</style>
<rect class="st0" width="50" height="50"/>
<circle class="st1" cx="5.3" cy="34.2" r="1"/>
<circle class="st1" cx="7.8" cy="34.1" r="1"/>
<circle class="st1" cx="10.3" cy="34.1" r="1"/>
<circle class="st1" cx="12.9" cy="34.1" r="1"/>
<circle class="st1" cx="15.4" cy="34.1" r="1"/>
<circle class="st1" cx="5.7" cy="31.4" r="1"/>
<circle class="st1" cx="8.3" cy="31.3" r="1"/>
<circle class="st1" cx="10.9" cy="31.3" r="1"/>
<circle class="st1" cx="6.5" cy="28.7" r="1"/>
<circle class="st1" cx="13.6" cy="31.2" r="1"/>
<circle class="st1" cx="9.2" cy="28.6" r="1"/>
<circle class="st1" cx="16.4" cy="31.2" r="1"/>
<circle class="st1" cx="12" cy="28.6" r="1"/>
<circle class="st1" cx="7.6" cy="26.1" r="1"/>
<circle class="st1" cx="10.5" cy="26.1" r="1"/>
<circle class="st1" cx="14.9" cy="28.6" r="1"/>
<circle class="st1" cx="9.2" cy="23.7" r="1"/>
<circle class="st1" cx="13.6" cy="26.2" r="1"/>
<circle class="st1" cx="12.3" cy="23.9" r="1"/>
<circle class="st1" cx="11" cy="21.6" r="1"/>
<circle class="st1" cx="18.2" cy="28.7" r="1"/>
<circle class="st1" cx="16.9" cy="26.4" r="1"/>
<circle class="st1" cx="15.6" cy="24.2" r="1"/>
<circle class="st1" cx="14.4" cy="22" r="1"/>
<circle class="st1" cx="13.1" cy="19.7" r="1"/>
<circle class="st1" cx="15.5" cy="18.2" r="1"/>
<circle class="st1" cx="16.8" cy="20.4" r="1"/>
<circle class="st1" cx="18.1" cy="22.6" r="1"/>
<circle class="st1" cx="19.3" cy="24.8" r="1"/>
<circle class="st1" cx="20.6" cy="26.9" r="1"/>
<circle class="st1" cx="18.1" cy="17" r="1"/>
<circle class="st1" cx="19.4" cy="19.2" r="1"/>
<circle class="st1" cx="20.7" cy="21.5" r="1"/>
<circle class="st1" cx="22.1" cy="23.7" r="1"/>
<circle class="st1" cx="20.8" cy="16.2" r="1"/>
<circle class="st1" cx="22.2" cy="18.5" r="1"/>
<circle class="st1" cx="23.5" cy="26" r="1"/>
<circle class="st1" cx="23.6" cy="20.9" r="1"/>
<circle class="st1" cx="23.6" cy="15.8" r="1"/>
<circle class="st1" cx="25" cy="18.3" r="1"/>
<circle class="st1" cx="25" cy="23.4" r="1"/>
<circle class="st1" cx="26.4" cy="15.8" r="1"/>
<circle class="st1" cx="26.4" cy="20.9" r="1"/>
<circle class="st1" cx="26.5" cy="26" r="1"/>
<circle class="st1" cx="27.8" cy="18.5" r="1"/>
<circle class="st1" cx="29.2" cy="16.2" r="1"/>
<circle class="st1" cx="27.9" cy="23.7" r="1"/>
<circle class="st1" cx="29.3" cy="21.5" r="1"/>
<circle class="st1" cx="30.6" cy="19.2" r="1"/>
<circle class="st1" cx="31.9" cy="17" r="1"/>
<circle class="st1" cx="29.4" cy="26.9" r="1"/>
<circle class="st1" cx="30.7" cy="24.8" r="1"/>
<circle class="st1" cx="31.9" cy="22.6" r="1"/>
<circle class="st1" cx="33.2" cy="20.4" r="1"/>
<circle class="st1" cx="34.5" cy="18.2" r="1"/>
<circle class="st1" cx="36.9" cy="19.7" r="1"/>
<circle class="st1" cx="35.6" cy="22" r="1"/>
<circle class="st1" cx="34.3" cy="24.2" r="1"/>
<circle class="st1" cx="33.1" cy="26.4" r="1"/>
<g>
	<path class="st2" d="M39,22.4c-0.4,0-0.8-0.4-0.8-0.8s0.4-0.8,0.8-0.8s0.8,0.4,0.8,0.8S39.4,22.4,39,22.4z"/>
	<path class="st2" d="M39,21c0.3,0,0.6,0.3,0.6,0.6s-0.3,0.6-0.6,0.6s-0.6-0.3-0.6-0.6S38.7,21,39,21 M39,20.6c-0.6,0-1,0.5-1,1
		s0.5,1,1,1s1-0.5,1-1S39.5,20.6,39,20.6L39,20.6z"/>
</g>
<circle class="st1" cx="31.8" cy="28.7" r="1"/>
<g>
	<path class="st2" d="M37.7,24.7c-0.4,0-0.8-0.4-0.8-0.8s0.4-0.8,0.8-0.8s0.8,0.4,0.8,0.8S38.1,24.7,37.7,24.7z"/>
	<path class="st2" d="M37.7,23.3c0.3,0,0.6,0.3,0.6,0.6s-0.3,0.6-0.6,0.6c-0.3,0-0.6-0.3-0.6-0.6S37.4,23.3,37.7,23.3 M37.7,22.9
		c-0.6,0-1,0.5-1,1s0.5,1,1,1s1-0.5,1-1S38.3,22.9,37.7,22.9L37.7,22.9z"/>
</g>
<g>
	<path class="st2" d="M36.4,27c-0.4,0-0.8-0.4-0.8-0.8s0.4-0.8,0.8-0.8s0.8,0.4,0.8,0.8S36.8,27,36.4,27z"/>
	<path class="st2" d="M36.4,25.6c0.3,0,0.6,0.3,0.6,0.6s-0.3,0.6-0.6,0.6s-0.6-0.3-0.6-0.6S36.1,25.6,36.4,25.6 M36.4,25.2
		c-0.6,0-1,0.5-1,1s0.5,1,1,1s1-0.5,1-1S36.9,25.2,36.4,25.2L36.4,25.2z"/>
</g>
<g>
	<path class="st2" d="M40.8,24.5c-0.4,0-0.8-0.4-0.8-0.8s0.4-0.8,0.8-0.8s0.8,0.4,0.8,0.8S41.3,24.5,40.8,24.5z"/>
	<path class="st2" d="M40.8,23.1c0.3,0,0.6,0.3,0.6,0.6s-0.3,0.6-0.6,0.6s-0.6-0.3-0.6-0.6S40.5,23.1,40.8,23.1 M40.8,22.7
		c-0.6,0-1,0.5-1,1s0.5,1,1,1s1-0.5,1-1S41.4,22.7,40.8,22.7L40.8,22.7z"/>
</g>
<g>
	<path class="st2" d="M35,29.4c-0.4,0-0.8-0.4-0.8-0.8s0.4-0.8,0.8-0.8s0.8,0.4,0.8,0.8S35.5,29.4,35,29.4z"/>
	<path class="st2" d="M35,28c0.3,0,0.6,0.3,0.6,0.6s-0.3,0.6-0.6,0.6s-0.6-0.3-0.6-0.6S34.7,28,35,28 M35,27.6c-0.6,0-1,0.5-1,1
		s0.5,1,1,1s1-0.5,1-1S35.6,27.6,35,27.6L35,27.6z"/>
</g>
<g>
	<path class="st2" d="M39.5,26.9c-0.4,0-0.8-0.4-0.8-0.8s0.4-0.8,0.8-0.8s0.8,0.4,0.8,0.8S39.9,26.9,39.5,26.9z"/>
	<path class="st2" d="M39.5,25.5c0.3,0,0.6,0.3,0.6,0.6s-0.3,0.6-0.6,0.6s-0.6-0.3-0.6-0.6S39.1,25.5,39.5,25.5 M39.5,25.1
		c-0.6,0-1,0.5-1,1s0.5,1,1,1s1-0.5,1-1S40,25.1,39.5,25.1L39.5,25.1z"/>
</g>
<g>
	<circle class="st2" cx="42.4" cy="26.1" r="0.8"/>
	<path class="st2" d="M42.4,25.5c0.3,0,0.6,0.3,0.6,0.6s-0.3,0.6-0.6,0.6s-0.6-0.3-0.6-0.6S42,25.5,42.4,25.5 M42.4,25.1
		c-0.6,0-1,0.5-1,1s0.5,1,1,1s1-0.5,1-1S42.9,25.1,42.4,25.1L42.4,25.1z"/>
</g>
<g>
	<circle class="st2" cx="38" cy="28.6" r="0.8"/>
	<path class="st2" d="M38,28c0.3,0,0.6,0.3,0.6,0.6s-0.3,0.6-0.6,0.6s-0.6-0.3-0.6-0.6S37.7,28,38,28 M38,27.6c-0.6,0-1,0.5-1,1
		s0.5,1,1,1s1-0.5,1-1S38.6,27.6,38,27.6L38,27.6z"/>
</g>
<g>
	<path class="st2" d="M33.6,32c-0.4,0-0.8-0.4-0.8-0.8s0.4-0.8,0.8-0.8s0.8,0.4,0.8,0.8S34.1,32,33.6,32z"/>
	<path class="st2" d="M33.6,30.6c0.3,0,0.6,0.3,0.6,0.6s-0.3,0.6-0.6,0.6S33,31.5,33,31.2S33.3,30.6,33.6,30.6 M33.6,30.2
		c-0.6,0-1,0.5-1,1s0.5,1,1,1s1-0.5,1-1S34.2,30.2,33.6,30.2L33.6,30.2z"/>
</g>
<g>
	<path class="st2" d="M40.8,29.4c-0.4,0-0.8-0.4-0.8-0.8s0.4-0.8,0.8-0.8s0.8,0.4,0.8,0.8S41.2,29.4,40.8,29.4z"/>
	<path class="st2" d="M40.8,28c0.3,0,0.6,0.3,0.6,0.6s-0.3,0.6-0.6,0.6s-0.6-0.3-0.6-0.6S40.5,28,40.8,28 M40.8,27.6
		c-0.6,0-1,0.5-1,1s0.5,1,1,1s1-0.5,1-1S41.4,27.6,40.8,27.6L40.8,27.6z"/>
</g>
<g>
	<path class="st2" d="M36.4,32c-0.4,0-0.8-0.4-0.8-0.8s0.4-0.8,0.8-0.8s0.8,0.4,0.8,0.8S36.9,32,36.4,32z"/>
	<path class="st2" d="M36.4,30.7c0.3,0,0.6,0.3,0.6,0.6s-0.3,0.6-0.6,0.6s-0.6-0.3-0.6-0.6S36.1,30.7,36.4,30.7 M36.4,30.2
		c-0.6,0-1,0.5-1,1s0.5,1,1,1s1-0.5,1-1S37,30.2,36.4,30.2L36.4,30.2z"/>
</g>
<g>
	<circle class="st2" cx="43.5" cy="28.7" r="0.8"/>
	<path class="st2" d="M43.5,28.1c0.3,0,0.6,0.3,0.6,0.6s-0.3,0.6-0.6,0.6c-0.3,0-0.6-0.3-0.6-0.6S43.2,28.1,43.5,28.1 M43.5,27.6
		c-0.6,0-1,0.5-1,1s0.5,1,1,1s1-0.5,1-1S44.1,27.6,43.5,27.6L43.5,27.6z"/>
</g>
<g>
	<circle class="st2" cx="39.1" cy="31.3" r="0.8"/>
	<path class="st2" d="M39.1,30.7c0.3,0,0.6,0.3,0.6,0.6s-0.3,0.6-0.6,0.6c-0.3,0-0.6-0.3-0.6-0.6S38.8,30.7,39.1,30.7 M39.1,30.3
		c-0.6,0-1,0.5-1,1s0.5,1,1,1s1-0.5,1-1S39.7,30.3,39.1,30.3L39.1,30.3z"/>
</g>
<g>
	<circle class="st2" cx="41.7" cy="31.3" r="0.8"/>
	<path class="st2" d="M41.7,30.7c0.3,0,0.6,0.3,0.6,0.6s-0.3,0.6-0.6,0.6s-0.6-0.3-0.6-0.6S41.4,30.7,41.7,30.7 M41.7,30.3
		c-0.6,0-1,0.5-1,1s0.5,1,1,1s1-0.5,1-1S42.3,30.3,41.7,30.3L41.7,30.3z"/>
</g>
<g>
	<path class="st2" d="M44.3,32.2c-0.4,0-0.8-0.4-0.8-0.8s0.4-0.8,0.8-0.8s0.8,0.4,0.8,0.8S44.8,32.2,44.3,32.2z"/>
	<path class="st2" d="M44.3,30.8c0.3,0,0.6,0.3,0.6,0.6S44.7,32,44.3,32s-0.6-0.3-0.6-0.6S44,30.8,44.3,30.8 M44.3,30.4
		c-0.6,0-1,0.5-1,1s0.5,1,1,1s1-0.5,1-1S44.9,30.4,44.3,30.4L44.3,30.4z"/>
</g>
<g>
	<path class="st2" d="M34.6,34.9c-0.4,0-0.8-0.4-0.8-0.8s0.4-0.8,0.8-0.8s0.8,0.4,0.8,0.8S35,34.9,34.6,34.9z"/>
	<path class="st2" d="M34.6,33.5c0.3,0,0.6,0.3,0.6,0.6c0,0.3-0.3,0.6-0.6,0.6S34,34.4,34,34.1C34,33.7,34.2,33.5,34.6,33.5
		 M34.6,33c-0.6,0-1,0.5-1,1s0.5,1,1,1s1-0.5,1-1S35.1,33,34.6,33L34.6,33z"/>
</g>
<g>
	<path class="st2" d="M37.1,34.9c-0.4,0-0.8-0.4-0.8-0.8s0.4-0.8,0.8-0.8s0.8,0.4,0.8,0.8S37.6,34.9,37.1,34.9z"/>
	<path class="st2" d="M37.1,33.5c0.3,0,0.6,0.3,0.6,0.6c0,0.3-0.3,0.6-0.6,0.6s-0.6-0.3-0.6-0.6C36.5,33.8,36.8,33.5,37.1,33.5
		 M37.1,33.1c-0.6,0-1,0.5-1,1c0,0.6,0.5,1,1,1s1-0.5,1-1C38.1,33.5,37.7,33.1,37.1,33.1L37.1,33.1z"/>
</g>
<g>
	<path class="st2" d="M39.7,34.9c-0.4,0-0.8-0.4-0.8-0.8s0.4-0.8,0.8-0.8s0.8,0.4,0.8,0.8S40.1,34.9,39.7,34.9z"/>
	<path class="st2" d="M39.7,33.5c0.3,0,0.6,0.3,0.6,0.6c0,0.3-0.3,0.6-0.6,0.6s-0.6-0.3-0.6-0.6C39.1,33.8,39.3,33.5,39.7,33.5
		 M39.7,33.1c-0.6,0-1,0.5-1,1s0.5,1,1,1s1-0.5,1-1S40.2,33.1,39.7,33.1L39.7,33.1z"/>
</g>
<g>
	<path class="st2" d="M42.2,34.9c-0.4,0-0.8-0.4-0.8-0.8s0.4-0.8,0.8-0.8s0.8,0.4,0.8,0.8S42.6,34.9,42.2,34.9z"/>
	<path class="st2" d="M42.2,33.6c0.3,0,0.6,0.3,0.6,0.6c0,0.3-0.3,0.6-0.6,0.6s-0.6-0.3-0.6-0.6C41.6,33.8,41.9,33.6,42.2,33.6
		 M42.2,33.1c-0.6,0-1,0.5-1,1s0.5,1,1,1s1-0.5,1-1S42.8,33.1,42.2,33.1L42.2,33.1z"/>
</g>
<g>
	<circle class="st2" cx="44.7" cy="34.2" r="0.8"/>
	<path class="st2" d="M44.7,33.6c0.3,0,0.6,0.3,0.6,0.6c0,0.3-0.3,0.6-0.6,0.6s-0.6-0.3-0.6-0.6C44.1,33.8,44.4,33.6,44.7,33.6
		 M44.7,33.2c-0.6,0-1,0.5-1,1s0.5,1,1,1s1-0.5,1-1S45.3,33.2,44.7,33.2L44.7,33.2z"/>
</g>
</svg>
