<?xml version="1.0" encoding="utf-8"?>
<!-- Generator: Adobe Illustrator 24.1.2, SVG Export Plug-In . SVG Version: 6.00 Build 0)  -->
<svg version="1.1" id="Layer_1" xmlns="http://www.w3.org/2000/svg" xmlns:xlink="http://www.w3.org/1999/xlink" x="0px" y="0px"
	 viewBox="0 0 50 50" style="enable-background:new 0 0 50 50;" xml:space="preserve">
<style type="text/css">
	.st0{fill:#FFFFFF;fill-opacity:0;}
	.st1{fill:#F26522;}
</style>
<rect class="st0" width="50" height="50"/>
<rect x="7.3" y="3.7" class="st1" width="1.1" height="7.1"/>
<rect x="41.6" y="3.7" class="st1" width="1.1" height="7.1"/>
<rect x="39.6" y="3.7" class="st1" width="1.1" height="7.1"/>
<rect x="35.6" y="3.7" class="st1" width="1.1" height="7.1"/>
<rect x="31.5" y="3.7" class="st1" width="1.1" height="7.1"/>
<rect x="29.5" y="3.7" class="st1" width="1.1" height="7.1"/>
<rect x="21.4" y="3.7" class="st1" width="1.1" height="7.1"/>
<rect x="17.4" y="3.7" class="st1" width="1.1" height="7.1"/>
<rect x="13.4" y="3.7" class="st1" width="1.1" height="7.1"/>
<rect x="11.3" y="3.7" class="st1" width="1.1" height="7.1"/>
<rect x="9.3" y="3.7" class="st1" width="1.1" height="7.1"/>
<rect x="41.6" y="15.5" class="st1" width="1.1" height="7.1"/>
<rect x="39.6" y="15.5" class="st1" width="1.1" height="7.1"/>
<rect x="37.6" y="15.5" class="st1" width="1.1" height="7.1"/>
<rect x="31.5" y="15.5" class="st1" width="1.1" height="7.1"/>
<rect x="27.5" y="15.5" class="st1" width="1.1" height="7.1"/>
<rect x="25.5" y="15.5" class="st1" width="1.1" height="7.1"/>
<rect x="23.5" y="15.5" class="st1" width="1.1" height="7.1"/>
<rect x="21.4" y="15.5" class="st1" width="1.1" height="7.1"/>
<rect x="17.4" y="15.5" class="st1" width="1.1" height="7.1"/>
<rect x="15.4" y="15.5" class="st1" width="1.1" height="7.1"/>
<rect x="13.4" y="15.5" class="st1" width="1.1" height="7.1"/>
<rect x="7.2" y="27.3" class="st1" width="1.1" height="7.1"/>
<rect x="41.5" y="27.3" class="st1" width="1.1" height="7.1"/>
<rect x="39.5" y="27.3" class="st1" width="1.1" height="7.1"/>
<rect x="33.4" y="27.3" class="st1" width="1.1" height="7.1"/>
<rect x="21.3" y="27.3" class="st1" width="1.1" height="7.1"/>
<rect x="9.2" y="27.3" class="st1" width="1.1" height="7.1"/>
<rect x="41.5" y="39.1" class="st1" width="1.1" height="7.1"/>
<rect x="33.4" y="39.1" class="st1" width="1.1" height="7.1"/>
<rect x="31.4" y="39.1" class="st1" width="1.1" height="7.1"/>
<rect x="27.4" y="39.1" class="st1" width="1.1" height="7.1"/>
<rect x="23.4" y="39.1" class="st1" width="1.1" height="7.1"/>
<rect x="19.3" y="39.1" class="st1" width="1.1" height="7.1"/>
<rect x="17.3" y="39.1" class="st1" width="1.1" height="7.1"/>
<rect x="15.3" y="39.1" class="st1" width="1.1" height="7.1"/>
<rect x="13.3" y="39.1" class="st1" width="1.1" height="7.1"/>
<rect x="11.2" y="39.1" class="st1" width="1.1" height="7.1"/>
</svg>
