<?xml version="1.0" encoding="utf-8"?>
<!-- Generator: Adobe Illustrator 24.1.2, SVG Export Plug-In . SVG Version: 6.00 Build 0)  -->
<svg version="1.1" id="Layer_1" xmlns="http://www.w3.org/2000/svg" xmlns:xlink="http://www.w3.org/1999/xlink" x="0px" y="0px"
	 viewBox="0 0 50 50" style="enable-background:new 0 0 50 50;" xml:space="preserve">
<style type="text/css">
	.st0{fill:#FFFFFF;fill-opacity:0;}
	.st1{fill:#F26522;}
</style>
<rect class="st0" width="50" height="50"/>
<circle class="st1" cx="29.8" cy="36.6" r="3.5"/>
<circle class="st1" cx="40.3" cy="18.8" r="2.3"/>
<circle class="st1" cx="5" cy="23.5" r="2.3"/>
<circle class="st1" cx="13.7" cy="30.3" r="3.5"/>
<circle class="st1" cx="36.9" cy="23.4" r="3.1"/>
<circle class="st1" cx="25" cy="25" r="8.8"/>
<circle class="st1" cx="11.9" cy="22.4" r="4.4"/>
<circle class="st1" cx="37.3" cy="31.9" r="5.2"/>
<circle class="st1" cx="43.9" cy="27.8" r="2.3"/>
<circle class="st1" cx="23.7" cy="36.2" r="2.3"/>
<circle class="st1" cx="16.6" cy="15.8" r="3.5"/>
<circle class="st1" cx="28.7" cy="13.7" r="2.9"/>
<circle class="st1" cx="22.8" cy="13.3" r="2.9"/>
<circle class="st1" cx="18.5" cy="34.9" r="2.9"/>
<circle class="st1" cx="13.2" cy="36.4" r="2.3"/>
<circle class="st1" cx="7.3" cy="28.4" r="2.9"/>
<circle class="st1" cx="42.6" cy="23.1" r="2.3"/>
<circle class="st1" cx="35.4" cy="39.9" r="2.9"/>
<circle class="st1" cx="34.6" cy="16.9" r="3.5"/>
<circle class="st1" cx="45" cy="32.5" r="2.3"/>
<circle class="st1" cx="40.7" cy="38.8" r="2.3"/>
<circle class="st1" cx="20.6" cy="39.9" r="2.3"/>
<circle class="st1" cx="10.5" cy="15.6" r="2.3"/>
</svg>
