<?xml version="1.0" encoding="utf-8"?>
<!-- Generator: Adobe Illustrator 24.0.3, SVG Export Plug-In . SVG Version: 6.00 Build 0)  -->
<svg version="1.1" id="Layer_1" xmlns="http://www.w3.org/2000/svg" xmlns:xlink="http://www.w3.org/1999/xlink" x="0px" y="0px"
	 viewBox="0 0 50 50" style="enable-background:new 0 0 50 50;" xml:space="preserve">
<style type="text/css">
	.st0{opacity:0;}
	.st1{fill:#FFFFFF;}
	.st2{fill:#4E79A8;}
	.st3{fill:#9ECAE9;}
</style>
<g class="st0">
	<rect class="st1" width="50" height="50"/>
</g>
<g>
	<path class="st2" d="M11.3,27.4H3.2V15.8h8.1V27.4z M4.2,26.4h6.1v-9.6H4.2V26.4z"/>
</g>
<g>
	<rect x="3.7" y="36.8" class="st2" width="7.1" height="1.5"/>
</g>
<g>
	<rect x="3.7" y="8.4" class="st2" width="7.1" height="1.5"/>
</g>
<g>
	<rect x="6.8" y="9.2" class="st2" width="1" height="7.1"/>
</g>
<g>
	<rect x="6.8" y="26.9" class="st2" width="1" height="10.6"/>
</g>
<g>
	<path class="st2" d="M46.8,34.5h-8.1V12.2h8.1C46.8,12.2,46.8,34.5,46.8,34.5z M39.7,33.5h6.1V13.2h-6.1V33.5z"/>
</g>
<g>
	<rect x="39.2" y="40.3" class="st2" width="7.1" height="1.5"/>
</g>
<g>
	<rect x="39.2" y="4.9" class="st2" width="7.1" height="1.5"/>
</g>
<g>
	<rect x="42.2" y="5.6" class="st2" width="1" height="7.1"/>
</g>
<g>
	<rect x="42.2" y="34" class="st2" width="1" height="7.1"/>
</g>
<g>
	<path class="st2" d="M23.1,27.4H15v-8.1h8.1V27.4z M16.1,26.4h6.1v-6.1h-6.1V26.4z"/>
</g>
<g>
	<rect x="15.6" y="29.7" class="st2" width="7.1" height="1.5"/>
</g>
<g>
	<rect x="15.6" y="12" class="st2" width="7.1" height="1.5"/>
</g>
<g>
	<rect x="18.6" y="12.7" class="st2" width="1" height="7.1"/>
</g>
<g>
	<rect x="18.6" y="26.9" class="st2" width="1" height="3.5"/>
</g>
<g>
	<path class="st2" d="M35,30.9h-8.1V15.8H35V30.9z M27.9,29.9H34V16.8h-6.1V29.9z"/>
</g>
<g>
	<rect x="27.4" y="36.8" class="st2" width="7.1" height="1.5"/>
</g>
<g>
	<rect x="27.4" y="12" class="st2" width="7.1" height="1.5"/>
</g>
<g>
	<rect x="30.4" y="30.4" class="st2" width="1" height="7.1"/>
</g>
<g>
	<rect x="30.4" y="12.7" class="st2" width="1" height="3.5"/>
</g>
<g>
	<rect x="39.2" y="22.8" class="st2" width="7.1" height="1"/>
</g>
<g>
	<rect x="27.4" y="19.3" class="st2" width="7.1" height="1"/>
</g>
<g>
	<rect x="15.6" y="22.8" class="st2" width="7.1" height="1"/>
</g>
<g>
	<rect x="3.7" y="22.8" class="st2" width="7.1" height="1"/>
</g>
<g>
	<rect x="3.7" y="44.1" class="st3" width="42.5" height="1"/>
</g>
</svg>
