<?xml version="1.0" encoding="utf-8"?>
<!-- Generator: Adobe Illustrator 19.2.0, SVG Export Plug-In . SVG Version: 6.00 Build 0)  -->
<svg version="1.1" id="Layer_1" xmlns="http://www.w3.org/2000/svg" xmlns:xlink="http://www.w3.org/1999/xlink" x="0px" y="0px"
	 viewBox="0 0 50 50" style="enable-background:new 0 0 50 50;" xml:space="preserve">
<style type="text/css">
	.st0{fill:#FFFFFF;fill-opacity:0;}
	.st1{fill:#939598;}
</style>
<rect class="st0" width="50" height="50"/>
<g>
	<path class="st1" d="M10.9,42.5c-2,0-3.6-1.6-3.6-3.6s1.6-3.6,3.6-3.6s3.6,1.6,3.6,3.6S12.9,42.5,10.9,42.5z"/>
</g>
<g>
	<path class="st1" d="M39.2,41.6c-1.5,0-2.7-1.2-2.7-2.7s1.2-2.7,2.7-2.7s2.7,1.2,2.7,2.7S40.7,41.6,39.2,41.6z"/>
</g>
<g>
	<path class="st1" d="M25.1,27.4c-1.5,0-2.7-1.2-2.7-2.7c0-1.5,1.2-2.7,2.7-2.7s2.7,1.2,2.7,2.7C27.8,26.2,26.6,27.4,25.1,27.4z"/>
</g>
<g>
	<path class="st1" d="M39.2,28.3c-2,0-3.6-1.6-3.6-3.6s1.6-3.6,3.6-3.6s3.6,1.6,3.6,3.6S41.2,28.3,39.2,28.3z"/>
</g>
<g>
	<path class="st1" d="M11,13.2c-1.5,0-2.7-1.2-2.7-2.7S9.5,7.8,11,7.8s2.7,1.2,2.7,2.7S12.5,13.2,11,13.2z"/>
</g>
<g>
	<path class="st1" d="M25.2,14.1c-2,0-3.6-1.6-3.6-3.6s1.6-3.6,3.6-3.6s3.6,1.6,3.6,3.6S27.2,14.1,25.2,14.1z"/>
</g>
<g>
	<path class="st1" d="M39.3,15.9c-3,0-5.4-2.4-5.4-5.4s2.4-5.4,5.4-5.4s5.4,2.4,5.4,5.4S42.3,15.9,39.3,15.9z"/>
</g>
</svg>
