<?xml version="1.0" encoding="utf-8"?>
<!-- Generator: Adobe Illustrator 24.1.2, SVG Export Plug-In . SVG Version: 6.00 Build 0)  -->
<svg version="1.1" id="Layer_1" xmlns="http://www.w3.org/2000/svg" xmlns:xlink="http://www.w3.org/1999/xlink" x="0px" y="0px"
	 viewBox="0 0 50 50" style="enable-background:new 0 0 50 50;" xml:space="preserve">
<style type="text/css">
	.st0{fill:#FFFFFF;fill-opacity:0;}
	.st1{fill:#008EB0;}
	.st2{fill:#00B6E2;}
	.st3{fill:#47DBFF;}
	.st4{fill:#15D1FF;}
	.st5{fill:#FFFFFF;stroke:#000000;stroke-miterlimit:10;}
	.st6{fill:none;stroke:#47DBFF;stroke-miterlimit:10;}
	.st7{fill:none;stroke:#15D1FF;stroke-miterlimit:10;}
	.st8{fill:none;stroke:#00B6E2;stroke-miterlimit:10;}
	.st9{fill:none;stroke:#008EB0;stroke-miterlimit:10;}
</style>
<rect class="st0" width="50" height="50"/>
<circle class="st1" cx="9" cy="7.3" r="1.8"/>
<circle class="st2" cx="40.9" cy="7.3" r="1.8"/>
<circle class="st3" cx="9" cy="42.7" r="1.8"/>
<circle class="st3" cx="40.9" cy="42.7" r="1.8"/>
<circle class="st4" cx="40.9" cy="19.1" r="1.8"/>
<circle class="st2" cx="9" cy="19.1" r="1.8"/>
<circle class="st4" cx="9" cy="30.9" r="1.8"/>
<circle class="st1" cx="40.9" cy="30.9" r="1.8"/>
<path class="st5" d="M9,7.3"/>
<polyline class="st6" points="9,42.7 13.6,42.7 18.2,30.9 27.3,30.9 31.8,42.7 40.9,42.7 "/>
<polyline class="st7" points="9,30.9 13.6,30.9 18.2,7.3 22.7,7.3 27.3,19.1 40.9,19.1 "/>
<polyline class="st8" points="9,19.1 13.6,19.1 18.2,42.7 27.3,42.7 36.4,7.3 40.9,7.3 "/>
<polyline class="st9" points="9,7.3 13.6,7.3 18.2,19.1 22.7,19.1 27.3,7.3 31.8,7.3 36.4,30.9 40.9,30.9 "/>
</svg>
