<?xml version="1.0" encoding="utf-8"?>
<!-- Generator: Adobe Illustrator 24.1.2, SVG Export Plug-In . SVG Version: 6.00 Build 0)  -->
<svg version="1.1" id="Layer_1" xmlns="http://www.w3.org/2000/svg" xmlns:xlink="http://www.w3.org/1999/xlink" x="0px" y="0px"
	 viewBox="0 0 50 50" style="enable-background:new 0 0 50 50;" xml:space="preserve">
<style type="text/css">
	.st0{fill:#FFFFFF;fill-opacity:0;}
	.st1{fill:#B6C9DD;}
	.st2{fill:#4E79A8;}
	.st3{fill:#6E93BC;}
	.st4{fill:#92AECC;}
</style>
<rect class="st0" width="50" height="50"/>
<g>
	<rect x="40.8" y="9.9" class="st1" width="5.4" height="5.4"/>
</g>
<g>
	<rect x="16.1" y="9.9" class="st2" width="5.4" height="5.4"/>
</g>
<g>
	<rect x="22.3" y="9.9" class="st2" width="5.4" height="5.4"/>
</g>
<g>
	<rect x="28.5" y="9.9" class="st3" width="5.4" height="5.4"/>
</g>
<g>
	<rect x="34.7" y="9.9" class="st1" width="5.4" height="5.4"/>
</g>
<g>
	<rect x="3.7" y="16.1" class="st3" width="5.4" height="5.4"/>
</g>
<g>
	<rect x="40.8" y="16.1" class="st1" width="5.4" height="5.4"/>
</g>
<g>
	<rect x="9.9" y="16.1" class="st2" width="5.4" height="5.4"/>
</g>
<g>
	<rect x="16.1" y="16.1" class="st3" width="5.4" height="5.4"/>
</g>
<g>
	<rect x="22.3" y="16.1" class="st3" width="5.4" height="5.4"/>
</g>
<g>
	<rect x="28.5" y="16.1" class="st2" width="5.4" height="5.4"/>
</g>
<g>
	<rect x="34.7" y="16.1" class="st4" width="5.4" height="5.4"/>
</g>
<g>
	<rect x="3.7" y="22.3" class="st3" width="5.4" height="5.4"/>
</g>
<g>
	<rect x="40.8" y="22.3" class="st1" width="5.4" height="5.4"/>
</g>
<g>
	<rect x="9.9" y="22.3" class="st3" width="5.4" height="5.4"/>
</g>
<g>
	<rect x="16.1" y="22.3" class="st2" width="5.4" height="5.4"/>
</g>
<g>
	<rect x="22.3" y="22.3" class="st2" width="5.4" height="5.4"/>
</g>
<g>
	<rect x="28.5" y="22.3" class="st2" width="5.4" height="5.4"/>
</g>
<g>
	<rect x="34.7" y="22.3" class="st1" width="5.4" height="5.4"/>
</g>
<g>
	<rect x="3.7" y="28.5" class="st2" width="5.4" height="5.4"/>
</g>
<g>
	<rect x="40.8" y="28.5" class="st1" width="5.4" height="5.4"/>
</g>
<g>
	<rect x="9.9" y="28.5" class="st3" width="5.4" height="5.4"/>
</g>
<g>
	<rect x="16.1" y="28.5" class="st2" width="5.4" height="5.4"/>
</g>
<g>
	<rect x="22.3" y="28.5" class="st3" width="5.4" height="5.4"/>
</g>
<g>
	<rect x="28.5" y="28.5" class="st3" width="5.4" height="5.4"/>
</g>
<g>
	<rect x="34.7" y="28.5" class="st4" width="5.4" height="5.4"/>
</g>
<g>
	<rect x="3.7" y="34.7" class="st2" width="5.4" height="5.4"/>
</g>
<g>
	<rect x="9.9" y="34.7" class="st2" width="5.4" height="5.4"/>
</g>
<g>
	<rect x="16.1" y="34.7" class="st3" width="5.4" height="5.4"/>
</g>
<g>
	<rect x="22.3" y="34.7" class="st3" width="5.4" height="5.4"/>
</g>
<g>
	<rect x="28.5" y="34.7" class="st2" width="5.4" height="5.4"/>
</g>
</svg>
