<?xml version="1.0" encoding="utf-8"?>
<!-- Generator: Adobe Illustrator 24.1.2, SVG Export Plug-In . SVG Version: 6.00 Build 0)  -->
<svg version="1.1" id="Layer_1" xmlns="http://www.w3.org/2000/svg" xmlns:xlink="http://www.w3.org/1999/xlink" x="0px" y="0px"
	 viewBox="0 0 50 50" style="enable-background:new 0 0 50 50;" xml:space="preserve">
<style type="text/css">
	.st0{opacity:0;}
	.st1{fill:#FFFFFF;}
	.st2{fill:#28903B;}
	.st3{fill:#98E2A6;}
</style>
<g class="st0">
	<rect class="st1" width="50" height="50"/>
</g>
<g>
	<rect x="5.5" y="36.8" class="st2" width="3.6" height="1.5"/>
</g>
<g>
	<rect x="5.5" y="8.4" class="st2" width="3.6" height="1.5"/>
</g>
<g>
	<rect x="6.8" y="9.2" class="st2" width="1" height="7.1"/>
</g>
<g>
	<rect x="6.8" y="26.9" class="st2" width="1" height="10.6"/>
</g>
<g>
	<rect x="41" y="40.3" class="st2" width="3.5" height="1.5"/>
</g>
<g>
	<rect x="41" y="4.9" class="st2" width="3.5" height="1.5"/>
</g>
<g>
	<rect x="42.2" y="5.6" class="st2" width="1" height="7.1"/>
</g>
<g>
	<rect x="42.2" y="34" class="st2" width="1" height="7.1"/>
</g>
<g>
	<rect x="17.4" y="29.7" class="st2" width="3.6" height="1.5"/>
</g>
<g>
	<rect x="17.4" y="12" class="st2" width="3.6" height="1.5"/>
</g>
<g>
	<rect x="18.6" y="12.7" class="st2" width="1" height="7.1"/>
</g>
<g>
	<rect x="18.6" y="26.9" class="st2" width="1" height="3.5"/>
</g>
<g>
	<rect x="29.2" y="36.8" class="st2" width="3.6" height="1.5"/>
</g>
<g>
	<rect x="29.2" y="12" class="st2" width="3.6" height="1.5"/>
</g>
<g>
	<rect x="30.4" y="30.4" class="st2" width="1" height="7.1"/>
</g>
<g>
	<rect x="30.4" y="12.7" class="st2" width="1" height="3.5"/>
</g>
<g>
	<rect x="3.7" y="44.1" class="st3" width="42.5" height="1"/>
</g>
<rect x="3.2" y="15.8" class="st2" width="8.1" height="11.6"/>
<rect x="15" y="19.3" class="st2" width="8.1" height="8.1"/>
<rect x="26.9" y="15.8" class="st2" width="8.1" height="15.1"/>
<rect x="38.7" y="12.2" class="st2" width="8.1" height="22.3"/>
</svg>
