<?xml version="1.0" encoding="utf-8"?>
<!-- Generator: Adobe Illustrator 24.1.2, SVG Export Plug-In . SVG Version: 6.00 Build 0)  -->
<svg version="1.1" id="Layer_1" xmlns="http://www.w3.org/2000/svg" xmlns:xlink="http://www.w3.org/1999/xlink" x="0px" y="0px"
	 viewBox="0 0 50 50" style="enable-background:new 0 0 50 50;" xml:space="preserve">
<style type="text/css">
	.st0{fill:#FFFFFF;}
	.st1{fill:#B6C9DD;stroke:#FFFFFF;stroke-width:0.2889;}
	.st2{fill:#80A1C4;stroke:#FFFFFF;stroke-width:0.2889;}
	.st3{fill:#4E79A8;stroke:#FFFFFF;stroke-width:0.2889;}
</style>
<rect class="st0" width="50" height="50"/>
<polygon id="Wansbeck_3_" class="st1" points="25.18,4.2301 24.8167,3.6007 24.09,3.6007 23.7267,4.2301 24.09,4.8594 
	24.8167,4.8594 "/>
<polygon id="Tynemouth_3_" class="st1" points="27.3601,4.2301 26.9968,3.6007 26.2701,3.6007 25.9068,4.2301 26.2701,4.8594 
	26.9968,4.8594 "/>
<polygon id="Berwick-Upon-Tweed_3_" class="st1" points="24.09,4.8594 23.7267,4.2301 23,4.2301 22.6367,4.8594 23,5.4887 
	23.7267,5.4887 "/>
<polygon id="Blyth_Valley_3_" class="st1" points="26.2701,4.8594 25.9068,4.2301 25.18,4.2301 24.8167,4.8594 25.18,5.4887 
	25.9068,5.4887 "/>
<polygon id="South_Shields_3_" class="st1" points="28.4502,4.8594 28.0868,4.2301 27.3601,4.2301 26.9968,4.8594 27.3601,5.4887 
	28.0868,5.4887 "/>
<polygon id="Newcastle_Upon_Tyne_North_3_" class="st1" points="25.18,5.4887 24.8167,4.8594 24.09,4.8594 23.7267,5.4887 
	24.09,6.1181 24.8167,6.1181 "/>
<polygon id="Jarrow_3_" class="st1" points="27.3601,5.4887 26.9968,4.8594 26.2701,4.8594 25.9068,5.4887 26.2701,6.1181 
	26.9968,6.1181 "/>
<polygon id="Sunderland_Central_3_" class="st1" points="29.5402,5.4887 29.1769,4.8594 28.4502,4.8594 28.0868,5.4887 
	28.4502,6.1181 29.1769,6.1181 "/>
<polygon id="Hexham_3_" class="st1" points="24.09,6.1181 23.7267,5.4887 23,5.4887 22.6367,6.1181 23,6.7474 23.7267,6.7474 "/>
<polygon id="Tyneside_North_3_" class="st1" points="26.2701,6.1181 25.9068,5.4887 25.18,5.4887 24.8167,6.1181 25.18,6.7474 
	25.9068,6.7474 "/>
<polygon id="Washington__Sunderland_West_3_" class="st1" points="28.4502,6.1181 28.0868,5.4887 27.3601,5.4887 26.9968,6.1181 
	27.3601,6.7474 28.0868,6.7474 "/>
<polygon id="Newcastle_Upon_Tyne_Central_3_" class="st1" points="25.18,6.7474 24.8167,6.1181 24.09,6.1181 23.7267,6.7474 
	24.09,7.3768 24.8167,7.3768 "/>
<polygon id="Gateshead_3_" class="st1" points="27.3601,6.7474 26.9968,6.1181 26.2701,6.1181 25.9068,6.7474 26.2701,7.3768 
	26.9968,7.3768 "/>
<polygon id="Easington_3_" class="st1" points="29.5402,6.7474 29.1769,6.1181 28.4502,6.1181 28.0868,6.7474 28.4502,7.3768 
	29.1769,7.3768 "/>
<polygon id="Blaydon_3_" class="st1" points="24.09,7.3768 23.7267,6.7474 23,6.7474 22.6367,7.3768 23,8.0061 23.7267,8.0061 "/>
<polygon id="Newcastle_Upon_Tyne_East_3_" class="st1" points="26.2701,7.3768 25.9068,6.7474 25.18,6.7474 24.8167,7.3768 
	25.18,8.0061 25.9068,8.0061 "/>
<polygon id="Houghton__Sunderland_South_3_" class="st1" points="28.4502,7.3768 28.0868,6.7474 27.3601,6.7474 26.9968,7.3768 
	27.3601,8.0061 28.0868,8.0061 "/>
<polygon id="Hartlepool_3_" class="st1" points="30.6303,7.3768 30.2669,6.7474 29.5402,6.7474 29.1769,7.3768 29.5402,8.0061 
	30.2669,8.0061 "/>
<polygon id="Durham_North_West_3_" class="st1" points="25.18,8.0061 24.8167,7.3768 24.09,7.3768 23.7267,8.0061 24.09,8.6355 
	24.8167,8.6355 "/>
<polygon id="Durham_City_of_3_" class="st1" points="27.3601,8.0061 26.9968,7.3768 26.2701,7.3768 25.9068,8.0061 26.2701,8.6355 
	26.9968,8.6355 "/>
<polygon id="Stockton_North_3_" class="st1" points="29.5402,8.0061 29.1769,7.3768 28.4502,7.3768 28.0868,8.0061 28.4502,8.6355 
	29.1769,8.6355 "/>
<polygon id="Redcar_3_" class="st1" points="31.7203,8.0061 31.3569,7.3768 30.6303,7.3768 30.2669,8.0061 30.6303,8.6355 
	31.3569,8.6355 "/>
<polygon id="Durham_North_3_" class="st1" points="26.2701,8.6355 25.9068,8.0061 25.18,8.0061 24.8167,8.6355 25.18,9.2648 
	25.9068,9.2648 "/>
<polygon id="Sedgefield_3_" class="st1" points="28.4502,8.6355 28.0868,8.0061 27.3601,8.0061 26.9968,8.6355 27.3601,9.2648 
	28.0868,9.2648 "/>
<polygon id="Middlesbrough_3_" class="st1" points="30.6303,8.6355 30.2669,8.0061 29.5402,8.0061 29.1769,8.6355 29.5402,9.2648 
	30.2669,9.2648 "/>
<polygon id="Bishop_Auckland_3_" class="st1" points="27.3601,9.2648 26.9968,8.6355 26.2701,8.6355 25.9068,9.2648 26.2701,9.8942 
	26.9968,9.8942 "/>
<polygon id="Darlington_3_" class="st1" points="29.5402,9.2648 29.1769,8.6355 28.4502,8.6355 28.0868,9.2648 28.4502,9.8942 
	29.1769,9.8942 "/>
<polygon id="Middlesbrough_South__Cleveland_East_3_" class="st1" points="31.7203,9.2648 31.3569,8.6355 30.6303,8.6355 
	30.2669,9.2648 30.6303,9.8942 31.3569,9.8942 "/>
<polygon id="Stockton_South_3_" class="st1" points="30.6303,9.8942 30.2669,9.2648 29.5402,9.2648 29.1769,9.8942 29.5402,10.5235 
	30.2669,10.5235 "/>
<polygon id="Penrith__The_Border_3_" class="st2" points="23,6.7474 22.6367,6.1181 21.91,6.1181 21.5466,6.7474 21.91,7.3768 
	22.6367,7.3768 "/>
<polygon id="Workington_3_" class="st2" points="21.91,7.3768 21.5466,6.7474 20.8199,6.7474 20.4566,7.3768 20.8199,8.0061 
	21.5466,8.0061 "/>
<polygon id="Carlisle_3_" class="st2" points="23,8.0061 22.6367,7.3768 21.91,7.3768 21.5466,8.0061 21.91,8.6355 22.6367,8.6355 
	"/>
<polygon id="Copeland_3_" class="st2" points="21.91,8.6355 21.5466,8.0061 20.8199,8.0061 20.4566,8.6355 20.8199,9.2648 
	21.5466,9.2648 "/>
<polygon id="Westmorland__Lonsdale_3_" class="st2" points="24.09,8.6355 23.7267,8.0061 23,8.0061 22.6367,8.6355 23,9.2648 
	23.7267,9.2648 "/>
<polygon id="Morecambe__Lunesdale_3_" class="st2" points="23,9.2648 22.6367,8.6355 21.91,8.6355 21.5466,9.2648 21.91,9.8942 
	22.6367,9.8942 "/>
<polygon id="Lancaster__Fleetwood_3_" class="st2" points="25.18,9.2648 24.8167,8.6355 24.09,8.6355 23.7267,9.2648 24.09,9.8942 
	24.8167,9.8942 "/>
<polygon id="Barrow__Furness_3_" class="st2" points="21.91,9.8942 21.5466,9.2648 20.8199,9.2648 20.4566,9.8942 20.8199,10.5235 
	21.5466,10.5235 "/>
<polygon id="Wyre__Preston_North_3_" class="st2" points="24.09,9.8942 23.7267,9.2648 23,9.2648 22.6367,9.8942 23,10.5235 
	23.7267,10.5235 "/>
<polygon id="Ribble_Valley_3_" class="st2" points="26.2701,9.8942 25.9068,9.2648 25.18,9.2648 24.8167,9.8942 25.18,10.5235 
	25.9068,10.5235 "/>
<polygon id="Blackpool_North__Cleveleys_3_" class="st2" points="20.8199,10.5235 20.4566,9.8942 19.7299,9.8942 19.3665,10.5235 
	19.7299,11.1529 20.4566,11.1529 "/>
<polygon id="Blackburn_3_" class="st2" points="23,10.5235 22.6367,9.8942 21.91,9.8942 21.5466,10.5235 21.91,11.1529 
	22.6367,11.1529 "/>
<polygon id="Hyndburn_3_" class="st2" points="25.18,10.5235 24.8167,9.8942 24.09,9.8942 23.7267,10.5235 24.09,11.1529 
	24.8167,11.1529 "/>
<polygon id="Blackpool_South_3_" class="st2" points="19.7299,11.1529 19.3665,10.5235 18.6399,10.5235 18.2765,11.1529 
	18.6399,11.7822 19.3665,11.7822 "/>
<polygon id="Preston_3_" class="st2" points="21.91,11.1529 21.5466,10.5235 20.8199,10.5235 20.4566,11.1529 20.8199,11.7822 
	21.5466,11.7822 "/>
<polygon id="Bury_North_3_" class="st2" points="24.09,11.1529 23.7267,10.5235 23,10.5235 22.6367,11.1529 23,11.7822 
	23.7267,11.7822 "/>
<polygon id="Pendle_3_" class="st2" points="26.2701,11.1529 25.9068,10.5235 25.18,10.5235 24.8167,11.1529 25.18,11.7822 
	25.9068,11.7822 "/>
<polygon id="Chorley_3_" class="st2" points="20.8199,11.7822 20.4566,11.1529 19.7299,11.1529 19.3665,11.7822 19.7299,12.4115 
	20.4566,12.4115 "/>
<polygon id="Bolton_North_East_3_" class="st2" points="23,11.7822 22.6367,11.1529 21.91,11.1529 21.5466,11.7822 21.91,12.4115 
	22.6367,12.4115 "/>
<polygon id="Heywood__Middleton_3_" class="st2" points="25.18,11.7822 24.8167,11.1529 24.09,11.1529 23.7267,11.7822 
	24.09,12.4115 24.8167,12.4115 "/>
<polygon id="Fylde_3_" class="st2" points="19.7299,12.4115 19.3665,11.7822 18.6399,11.7822 18.2765,12.4115 18.6399,13.0409 
	19.3665,13.0409 "/>
<polygon id="Bolton_West_3_" class="st2" points="21.91,12.4115 21.5466,11.7822 20.8199,11.7822 20.4566,12.4115 20.8199,13.0409 
	21.5466,13.0409 "/>
<polygon id="Bury_South_3_" class="st2" points="24.09,12.4115 23.7267,11.7822 23,11.7822 22.6367,12.4115 23,13.0409 
	23.7267,13.0409 "/>
<polygon id="Burnley_3_" class="st2" points="26.2701,12.4115 25.9068,11.7822 25.18,11.7822 24.8167,12.4115 25.18,13.0409 
	25.9068,13.0409 "/>
<polygon id="Wigan_3_" class="st2" points="20.8199,13.0409 20.4566,12.4115 19.7299,12.4115 19.3665,13.0409 19.7299,13.6702 
	20.4566,13.6702 "/>
<polygon id="Bolton_South_East_3_" class="st2" points="23,13.0409 22.6367,12.4115 21.91,12.4115 21.5466,13.0409 21.91,13.6702 
	22.6367,13.6702 "/>
<polygon id="Oldham_West__Royton_3_" class="st2" points="25.18,13.0409 24.8167,12.4115 24.09,12.4115 23.7267,13.0409 
	24.09,13.6702 24.8167,13.6702 "/>
<polygon id="Lancashire_West_3_" class="st2" points="19.7299,13.6702 19.3665,13.0409 18.6399,13.0409 18.2765,13.6702 
	18.6399,14.2995 19.3665,14.2995 "/>
<polygon id="Stretford__Urmston_3_" class="st2" points="21.91,13.6702 21.5466,13.0409 20.8199,13.0409 20.4566,13.6702 
	20.8199,14.2995 21.5466,14.2995 "/>
<polygon id="Blackley__Broughton_3_" class="st2" points="24.09,13.6702 23.7267,13.0409 23,13.0409 22.6367,13.6702 23,14.2995 
	23.7267,14.2995 "/>
<polygon id="Rossendale__Darwen_3_" class="st2" points="26.2701,13.6702 25.9068,13.0409 25.18,13.0409 24.8167,13.6702 
	25.18,14.2995 25.9068,14.2995 "/>
<polygon id="South_Ribble_3_" class="st2" points="18.6399,14.2995 18.2765,13.6702 17.5499,13.6702 17.1865,14.2995 
	17.5499,14.9289 18.2765,14.9289 "/>
<polygon id="Makerfield_3_" class="st2" points="20.8199,14.2995 20.4566,13.6702 19.7299,13.6702 19.3665,14.2995 19.7299,14.9289 
	20.4566,14.9289 "/>
<polygon id="Salford__Eccles_3_" class="st2" points="23,14.2995 22.6367,13.6702 21.91,13.6702 21.5466,14.2995 21.91,14.9289 
	22.6367,14.9289 "/>
<polygon id="Ashton-under-Lyne_3_" class="st2" points="25.18,14.2995 24.8167,13.6702 24.09,13.6702 23.7267,14.2995 
	24.09,14.9289 24.8167,14.9289 "/>
<polygon id="Southport_3_" class="st2" points="17.5499,14.9289 17.1865,14.2995 16.4598,14.2995 16.0965,14.9289 16.4598,15.5582 
	17.1865,15.5582 "/>
<polygon id="St_Helens_North__3_" class="st2" points="19.7299,14.9289 19.3665,14.2995 18.6399,14.2995 18.2765,14.9289 
	18.6399,15.5582 19.3665,15.5582 "/>
<polygon id="Manchester_Gorton_3_" class="st2" points="21.91,14.9289 21.5466,14.2995 20.8199,14.2995 20.4566,14.9289 
	20.8199,15.5582 21.5466,15.5582 "/>
<polygon id="Manchester_Central_3_" class="st2" points="24.09,14.9289 23.7267,14.2995 23,14.2995 22.6367,14.9289 23,15.5582 
	23.7267,15.5582 "/>
<polygon id="Rochdale_3_" class="st2" points="26.2701,14.9289 25.9068,14.2995 25.18,14.2995 24.8167,14.9289 25.18,15.5582 
	25.9068,15.5582 "/>
<polygon id="Liverpool_Walton_3_" class="st2" points="18.6399,15.5582 18.2765,14.9289 17.5499,14.9289 17.1865,15.5582 
	17.5499,16.1876 18.2765,16.1876 "/>
<polygon id="Leigh_3_" class="st2" points="20.8199,15.5582 20.4566,14.9289 19.7299,14.9289 19.3665,15.5582 19.7299,16.1876 
	20.4566,16.1876 "/>
<polygon id="Wythenshawe__Sale_East_3_" class="st2" points="23,15.5582 22.6367,14.9289 21.91,14.9289 21.5466,15.5582 
	21.91,16.1876 22.6367,16.1876 "/>
<polygon id="Denton__Reddish_3_" class="st2" points="25.18,15.5582 24.8167,14.9289 24.09,14.9289 23.7267,15.5582 24.09,16.1876 
	24.8167,16.1876 "/>
<polygon id="Sefton_Central_3_" class="st2" points="17.5499,16.1876 17.1865,15.5582 16.4598,15.5582 16.0965,16.1876 
	16.4598,16.8169 17.1865,16.8169 "/>
<polygon id="Knowsley_3_" class="st2" points="19.7299,16.1876 19.3665,15.5582 18.6399,15.5582 18.2765,16.1876 18.6399,16.8169 
	19.3665,16.8169 "/>
<polygon id="Worsley__Eccles_South_3_" class="st2" points="21.91,16.1876 21.5466,15.5582 20.8199,15.5582 20.4566,16.1876 
	20.8199,16.8169 21.5466,16.8169 "/>
<polygon id="Manchester_Withington_3_" class="st2" points="24.09,16.1876 23.7267,15.5582 23,15.5582 22.6367,16.1876 23,16.8169 
	23.7267,16.8169 "/>
<polygon id="Oldham_East__Saddleworth_3_" class="st2" points="26.2701,16.1876 25.9068,15.5582 25.18,15.5582 24.8167,16.1876 
	25.18,16.8169 25.9068,16.8169 "/>
<polygon id="Liverpool_West_Derby_3_" class="st2" points="18.6399,16.8169 18.2765,16.1876 17.5499,16.1876 17.1865,16.8169 
	17.5499,17.4463 18.2765,17.4463 "/>
<polygon id="Warrington_North_3_" class="st2" points="20.8199,16.8169 20.4566,16.1876 19.7299,16.1876 19.3665,16.8169 
	19.7299,17.4463 20.4566,17.4463 "/>
<polygon id="Altrincham__Sale_West_3_" class="st2" points="23,16.8169 22.6367,16.1876 21.91,16.1876 21.5466,16.8169 
	21.91,17.4463 22.6367,17.4463 "/>
<polygon id="Stockport_3_" class="st2" points="25.18,16.8169 24.8167,16.1876 24.09,16.1876 23.7267,16.8169 24.09,17.4463 
	24.8167,17.4463 "/>
<polygon id="Birkenhead_3_" class="st2" points="17.5499,17.4463 17.1865,16.8169 16.4598,16.8169 16.0965,17.4463 16.4598,18.0756 
	17.1865,18.0756 "/>
<polygon id="St_Helens_South__Whiston_3_" class="st2" points="19.7299,17.4463 19.3665,16.8169 18.6399,16.8169 18.2765,17.4463 
	18.6399,18.0756 19.3665,18.0756 "/>
<polygon id="Warrington_South_3_" class="st2" points="21.91,17.4463 21.5466,16.8169 20.8199,16.8169 20.4566,17.4463 
	20.8199,18.0756 21.5466,18.0756 "/>
<polygon id="Cheadle_3_" class="st2" points="24.09,17.4463 23.7267,16.8169 23,16.8169 22.6367,17.4463 23,18.0756 
	23.7267,18.0756 "/>
<polygon id="Stalybridge__Hyde_3_" class="st2" points="26.2701,17.4463 25.9068,16.8169 25.18,16.8169 24.8167,17.4463 
	25.18,18.0756 25.9068,18.0756 "/>
<polygon id="Bootle_3_" class="st2" points="16.4598,18.0756 16.0965,17.4463 15.3698,17.4463 15.0064,18.0756 15.3698,18.705 
	16.0965,18.705 "/>
<polygon id="Liverpool_Wavertree_3_" class="st2" points="18.6399,18.0756 18.2765,17.4463 17.5499,17.4463 17.1865,18.0756 
	17.5499,18.705 18.2765,18.705 "/>
<polygon id="Halton_3_" class="st2" points="20.8199,18.0756 20.4566,17.4463 19.7299,17.4463 19.3665,18.0756 19.7299,18.705 
	20.4566,18.705 "/>
<polygon id="Tatton_3_" class="st2" points="23,18.0756 22.6367,17.4463 21.91,17.4463 21.5466,18.0756 21.91,18.705 
	22.6367,18.705 "/>
<polygon id="Macclesfield_3_" class="st2" points="25.18,18.0756 24.8167,17.4463 24.09,17.4463 23.7267,18.0756 24.09,18.705 
	24.8167,18.705 "/>
<polygon id="Ellesmere_Port__Neston_3_" class="st2" points="17.5499,18.705 17.1865,18.0756 16.4598,18.0756 16.0965,18.705 
	16.4598,19.3343 17.1865,19.3343 "/>
<polygon id="Garston__Halewood_3_" class="st2" points="19.7299,18.705 19.3665,18.0756 18.6399,18.0756 18.2765,18.705 
	18.6399,19.3343 19.3665,19.3343 "/>
<polygon id="Crewe__Nantwich_3_" class="st2" points="21.91,18.705 21.5466,18.0756 20.8199,18.0756 20.4566,18.705 
	20.8199,19.3343 21.5466,19.3343 "/>
<polygon id="Congleton_3_" class="st2" points="24.09,18.705 23.7267,18.0756 23,18.0756 22.6367,18.705 23,19.3343 
	23.7267,19.3343 "/>
<polygon id="Hazel_Grove_3_" class="st2" points="26.2701,18.705 25.9068,18.0756 25.18,18.0756 24.8167,18.705 25.18,19.3343 
	25.9068,19.3343 "/>
<polygon id="Wallasey_3_" class="st2" points="16.4598,19.3343 16.0965,18.705 15.3698,18.705 15.0064,19.3343 15.3698,19.9637 
	16.0965,19.9637 "/>
<polygon id="Liverpool_Riverside_3_" class="st2" points="18.6399,19.3343 18.2765,18.705 17.5499,18.705 17.1865,19.3343 
	17.5499,19.9637 18.2765,19.9637 "/>
<polygon id="Weaver_Vale_3_" class="st2" points="20.8199,19.3343 20.4566,18.705 19.7299,18.705 19.3665,19.3343 19.7299,19.9637 
	20.4566,19.9637 "/>
<polygon id="Wirral_South_3_" class="st2" points="17.5499,19.9637 17.1865,19.3343 16.4598,19.3343 16.0965,19.9637 
	16.4598,20.593 17.1865,20.593 "/>
<polygon id="Eddisbury_3_" class="st2" points="19.7299,19.9637 19.3665,19.3343 18.6399,19.3343 18.2765,19.9637 18.6399,20.593 
	19.3665,20.593 "/>
<polygon id="Wirral_West_3_" class="st2" points="16.4598,20.593 16.0965,19.9637 15.3698,19.9637 15.0064,20.593 15.3698,21.2223 
	16.0965,21.2223 "/>
<polygon id="Chester_City_of_3_" class="st2" points="18.6399,20.593 18.2765,19.9637 17.5499,19.9637 17.1865,20.593 
	17.5499,21.2223 18.2765,21.2223 "/>
<polygon id="Richmond_Yorks_3_" class="st3" points="28.4502,9.8942 28.0868,9.2648 27.3601,9.2648 26.9968,9.8942 27.3601,10.5235 
	28.0868,10.5235 "/>
<polygon id="Skipton__Ripon_3_" class="st3" points="27.3601,10.5235 26.9968,9.8942 26.2701,9.8942 25.9068,10.5235 
	26.2701,11.1529 26.9968,11.1529 "/>
<polygon id="Shipley_3_" class="st3" points="29.5402,10.5235 29.1769,9.8942 28.4502,9.8942 28.0868,10.5235 28.4502,11.1529 
	29.1769,11.1529 "/>
<polygon id="Harrogate__Knaresborough_3_" class="st3" points="31.7203,10.5235 31.3569,9.8942 30.6303,9.8942 30.2669,10.5235 
	30.6303,11.1529 31.3569,11.1529 "/>
<polygon id="Pudsey_3_" class="st3" points="28.4502,11.1529 28.0868,10.5235 27.3601,10.5235 26.9968,11.1529 27.3601,11.7822 
	28.0868,11.7822 "/>
<polygon id="Elmet__Rothwell_3_" class="st3" points="30.6303,11.1529 30.2669,10.5235 29.5402,10.5235 29.1769,11.1529 
	29.5402,11.7822 30.2669,11.7822 "/>
<polygon id="Scarborough__Whitby_3_" class="st3" points="32.8103,11.1529 32.4469,10.5235 31.7203,10.5235 31.3569,11.1529 
	31.7203,11.7822 32.4469,11.7822 "/>
<polygon id="Keighley_3_" class="st3" points="27.3601,11.7822 26.9968,11.1529 26.2701,11.1529 25.9068,11.7822 26.2701,12.4115 
	26.9968,12.4115 "/>
<polygon id="Leeds_West_3_" class="st3" points="29.5402,11.7822 29.1769,11.1529 28.4502,11.1529 28.0868,11.7822 28.4502,12.4115 
	29.1769,12.4115 "/>
<polygon id="Selby__Ainsty_3_" class="st3" points="31.7203,11.7822 31.3569,11.1529 30.6303,11.1529 30.2669,11.7822 
	30.6303,12.4115 31.3569,12.4115 "/>
<polygon id="Bradford_East_3_" class="st3" points="28.4502,12.4115 28.0868,11.7822 27.3601,11.7822 26.9968,12.4115 
	27.3601,13.0409 28.0868,13.0409 "/>
<polygon id="Normanton_Pontefract__Castleford_3_" class="st3" points="30.6303,12.4115 30.2669,11.7822 29.5402,11.7822 
	29.1769,12.4115 29.5402,13.0409 30.2669,13.0409 "/>
<polygon id="York_Outer_3_" class="st3" points="32.8103,12.4115 32.4469,11.7822 31.7203,11.7822 31.3569,12.4115 31.7203,13.0409 
	32.4469,13.0409 "/>
<polygon id="Bradford_West_3_" class="st3" points="27.3601,13.0409 26.9968,12.4115 26.2701,12.4115 25.9068,13.0409 
	26.2701,13.6702 26.9968,13.6702 "/>
<polygon id="Leeds_North_West_3_" class="st3" points="29.5402,13.0409 29.1769,12.4115 28.4502,12.4115 28.0868,13.0409 
	28.4502,13.6702 29.1769,13.6702 "/>
<polygon id="York_Central_3_" class="st3" points="31.7203,13.0409 31.3569,12.4115 30.6303,12.4115 30.2669,13.0409 
	30.6303,13.6702 31.3569,13.6702 "/>
<polygon id="Thirsk__Malton_3_" class="st3" points="33.9003,13.0409 33.537,12.4115 32.8103,12.4115 32.4469,13.0409 
	32.8103,13.6702 33.537,13.6702 "/>
<polygon id="Leeds_Central_3_" class="st3" points="28.4502,13.6702 28.0868,13.0409 27.3601,13.0409 26.9968,13.6702 
	27.3601,14.2995 28.0868,14.2995 "/>
<polygon id="Leeds_North_East_3_" class="st3" points="30.6303,13.6702 30.2669,13.0409 29.5402,13.0409 29.1769,13.6702 
	29.5402,14.2995 30.2669,14.2995 "/>
<polygon id="Hemsworth_3_" class="st3" points="32.8103,13.6702 32.4469,13.0409 31.7203,13.0409 31.3569,13.6702 31.7203,14.2995 
	32.4469,14.2995 "/>
<polygon id="Yorkshire_East_3_" class="st3" points="34.9904,13.6702 34.627,13.0409 33.9003,13.0409 33.537,13.6702 
	33.9003,14.2995 34.627,14.2995 "/>
<polygon id="Bradford_South_3_" class="st3" points="27.3601,14.2995 26.9968,13.6702 26.2701,13.6702 25.9068,14.2995 
	26.2701,14.9289 26.9968,14.9289 "/>
<polygon id="Wakefield_3_" class="st3" points="29.5402,14.2995 29.1769,13.6702 28.4502,13.6702 28.0868,14.2995 28.4502,14.9289 
	29.1769,14.9289 "/>
<polygon id="Leeds_East_3_" class="st3" points="31.7203,14.2995 31.3569,13.6702 30.6303,13.6702 30.2669,14.2995 30.6303,14.9289 
	31.3569,14.9289 "/>
<polygon id="Haltemprice__Howden_3_" class="st3" points="33.9003,14.2995 33.537,13.6702 32.8103,13.6702 32.4469,14.2995 
	32.8103,14.9289 33.537,14.9289 "/>
<polygon id="Batley__Spen_3_" class="st3" points="28.4502,14.9289 28.0868,14.2995 27.3601,14.2995 26.9968,14.9289 
	27.3601,15.5582 28.0868,15.5582 "/>
<polygon id="Morley__Outwood_3_" class="st3" points="30.6303,14.9289 30.2669,14.2995 29.5402,14.2995 29.1769,14.9289 
	29.5402,15.5582 30.2669,15.5582 "/>
<polygon id="Doncaster_North_3_" class="st3" points="32.8103,14.9289 32.4469,14.2995 31.7203,14.2995 31.3569,14.9289 
	31.7203,15.5582 32.4469,15.5582 "/>
<polygon id="Beverley__Holderness_3_" class="st3" points="34.9904,14.9289 34.627,14.2995 33.9003,14.2995 33.537,14.9289 
	33.9003,15.5582 34.627,15.5582 "/>
<polygon id="Halifax_3_" class="st3" points="27.3601,15.5582 26.9968,14.9289 26.2701,14.9289 25.9068,15.5582 26.2701,16.1876 
	26.9968,16.1876 "/>
<polygon id="Dewsbury_3_" class="st3" points="29.5402,15.5582 29.1769,14.9289 28.4502,14.9289 28.0868,15.5582 28.4502,16.1876 
	29.1769,16.1876 "/>
<polygon id="Wentworth__Dearne_3_" class="st3" points="31.7203,15.5582 31.3569,14.9289 30.6303,14.9289 30.2669,15.5582 
	30.6303,16.1876 31.3569,16.1876 "/>
<polygon id="Hull_North_3_" class="st3" points="33.9003,15.5582 33.537,14.9289 32.8103,14.9289 32.4469,15.5582 32.8103,16.1876 
	33.537,16.1876 "/>
<polygon id="Huddersfield_3_" class="st3" points="28.4502,16.1876 28.0868,15.5582 27.3601,15.5582 26.9968,16.1876 
	27.3601,16.8169 28.0868,16.8169 "/>
<polygon id="Rotherham_3_" class="st3" points="30.6303,16.1876 30.2669,15.5582 29.5402,15.5582 29.1769,16.1876 29.5402,16.8169 
	30.2669,16.8169 "/>
<polygon id="Doncaster_Central_3_" class="st3" points="32.8103,16.1876 32.4469,15.5582 31.7203,15.5582 31.3569,16.1876 
	31.7203,16.8169 32.4469,16.8169 "/>
<polygon id="Calder_Valley_3_" class="st3" points="27.3601,16.8169 26.9968,16.1876 26.2701,16.1876 25.9068,16.8169 
	26.2701,17.4463 26.9968,17.4463 "/>
<polygon id="Barnsley_East_3_" class="st3" points="29.5402,16.8169 29.1769,16.1876 28.4502,16.1876 28.0868,16.8169 
	28.4502,17.4463 29.1769,17.4463 "/>
<polygon id="Don_Valley_3_" class="st3" points="31.7203,16.8169 31.3569,16.1876 30.6303,16.1876 30.2669,16.8169 30.6303,17.4463 
	31.3569,17.4463 "/>
<polygon id="Hull_East_3_" class="st3" points="33.9003,16.8169 33.537,16.1876 32.8103,16.1876 32.4469,16.8169 32.8103,17.4463 
	33.537,17.4463 "/>
<polygon id="Barnsley_Central_3_" class="st3" points="28.4502,17.4463 28.0868,16.8169 27.3601,16.8169 26.9968,17.4463 
	27.3601,18.0756 28.0868,18.0756 "/>
<polygon id="Sheffield_Brightside__Hillsborough_3_" class="st3" points="30.6303,17.4463 30.2669,16.8169 29.5402,16.8169 
	29.1769,17.4463 29.5402,18.0756 30.2669,18.0756 "/>
<polygon id="Brigg__Goole_3_" class="st3" points="32.8103,17.4463 32.4469,16.8169 31.7203,16.8169 31.3569,17.4463 
	31.7203,18.0756 32.4469,18.0756 "/>
<polygon id="Colne_Valley_3_" class="st3" points="27.3601,18.0756 26.9968,17.4463 26.2701,17.4463 25.9068,18.0756 
	26.2701,18.705 26.9968,18.705 "/>
<polygon id="Sheffield_Central_3_" class="st3" points="29.5402,18.0756 29.1769,17.4463 28.4502,17.4463 28.0868,18.0756 
	28.4502,18.705 29.1769,18.705 "/>
<polygon id="Sheffield_South_East_3_" class="st3" points="31.7203,18.0756 31.3569,17.4463 30.6303,17.4463 30.2669,18.0756 
	30.6303,18.705 31.3569,18.705 "/>
<polygon id="Hull_West__Hessle_3_" class="st3" points="33.9003,18.0756 33.537,17.4463 32.8103,17.4463 32.4469,18.0756 
	32.8103,18.705 33.537,18.705 "/>
<polygon id="Penistone__Stocksbridge_3_" class="st3" points="28.4502,18.705 28.0868,18.0756 27.3601,18.0756 26.9968,18.705 
	27.3601,19.3343 28.0868,19.3343 "/>
<polygon id="Sheffield_Heeley_3_" class="st3" points="30.6303,18.705 30.2669,18.0756 29.5402,18.0756 29.1769,18.705 
	29.5402,19.3343 30.2669,19.3343 "/>
<polygon id="Rother_Valley_3_" class="st3" points="32.8103,18.705 32.4469,18.0756 31.7203,18.0756 31.3569,18.705 
	31.7203,19.3343 32.4469,19.3343 "/>
<polygon id="Great_Grimsby_3_" class="st3" points="34.9904,18.705 34.627,18.0756 33.9003,18.0756 33.537,18.705 33.9003,19.3343 
	34.627,19.3343 "/>
<polygon id="Sheffield_Hallam_3_" class="st3" points="29.5402,19.3343 29.1769,18.705 28.4502,18.705 28.0868,19.3343 
	28.4502,19.9637 29.1769,19.9637 "/>
<polygon id="Scunthorpe_3_" class="st3" points="33.9003,19.3343 33.537,18.705 32.8103,18.705 32.4469,19.3343 32.8103,19.9637 
	33.537,19.9637 "/>
<polygon id="Cleethorpes_3_" class="st3" points="34.9904,19.9637 34.627,19.3343 33.9003,19.3343 33.537,19.9637 33.9003,20.593 
	34.627,20.593 "/>
<polygon id="Staffordshire_Moorlands_3_" class="st3" points="23,19.3343 22.6367,18.705 21.91,18.705 21.5466,19.3343 
	21.91,19.9637 22.6367,19.9637 "/>
<polygon id="Burton_3_" class="st3" points="25.18,19.3343 24.8167,18.705 24.09,18.705 23.7267,19.3343 24.09,19.9637 
	24.8167,19.9637 "/>
<polygon id="Stoke-on-Trent_Central_3_" class="st3" points="21.91,19.9637 21.5466,19.3343 20.8199,19.3343 20.4566,19.9637 
	20.8199,20.593 21.5466,20.593 "/>
<polygon id="Stone_3_" class="st3" points="24.09,19.9637 23.7267,19.3343 23,19.3343 22.6367,19.9637 23,20.593 23.7267,20.593 "/>
<polygon id="Tamworth_3_" class="st3" points="26.2701,19.9637 25.9068,19.3343 25.18,19.3343 24.8167,19.9637 25.18,20.593 
	25.9068,20.593 "/>
<polygon id="Stoke-on-Trent_North_3_" class="st3" points="20.8199,20.593 20.4566,19.9637 19.7299,19.9637 19.3665,20.593 
	19.7299,21.2223 20.4566,21.2223 "/>
<polygon id="Wolverhampton_North_East_3_" class="st3" points="23,20.593 22.6367,19.9637 21.91,19.9637 21.5466,20.593 
	21.91,21.2223 22.6367,21.2223 "/>
<polygon id="Lichfield_3_" class="st3" points="25.18,20.593 24.8167,19.9637 24.09,19.9637 23.7267,20.593 24.09,21.2223 
	24.8167,21.2223 "/>
<polygon id="Newcastle-under-Lyme_3_" class="st3" points="19.7299,21.2223 19.3665,20.593 18.6399,20.593 18.2765,21.2223 
	18.6399,21.8517 19.3665,21.8517 "/>
<polygon id="Stoke-on-Trent_South_3_" class="st3" points="21.91,21.2223 21.5466,20.593 20.8199,20.593 20.4566,21.2223 
	20.8199,21.8517 21.5466,21.8517 "/>
<polygon id="Stafford_3_" class="st3" points="24.09,21.2223 23.7267,20.593 23,20.593 22.6367,21.2223 23,21.8517 23.7267,21.8517 
	"/>
<polygon id="Warwickshire_North_3_" class="st3" points="26.2701,21.2223 25.9068,20.593 25.18,20.593 24.8167,21.2223 
	25.18,21.8517 25.9068,21.8517 "/>
<polygon id="Staffordshire_South_3_" class="st3" points="20.8199,21.8517 20.4566,21.2223 19.7299,21.2223 19.3665,21.8517 
	19.7299,22.481 20.4566,22.481 "/>
<polygon id="Walsall_North_3_" class="st3" points="23,21.8517 22.6367,21.2223 21.91,21.2223 21.5466,21.8517 21.91,22.481 
	22.6367,22.481 "/>
<polygon id="Aldridge-Brownhills_3_" class="st3" points="25.18,21.8517 24.8167,21.2223 24.09,21.2223 23.7267,21.8517 
	24.09,22.481 24.8167,22.481 "/>
<polygon id="Shropshire_North_3_" class="st3" points="19.7299,22.481 19.3665,21.8517 18.6399,21.8517 18.2765,22.481 
	18.6399,23.1103 19.3665,23.1103 "/>
<polygon id="Wolverhampton_South_West_3_" class="st3" points="21.91,22.481 21.5466,21.8517 20.8199,21.8517 20.4566,22.481 
	20.8199,23.1103 21.5466,23.1103 "/>
<polygon id="Cannock_Chase_3_" class="st3" points="24.09,22.481 23.7267,21.8517 23,21.8517 22.6367,22.481 23,23.1103 
	23.7267,23.1103 "/>
<polygon id="Nuneaton_3_" class="st3" points="26.2701,22.481 25.9068,21.8517 25.18,21.8517 24.8167,22.481 25.18,23.1103 
	25.9068,23.1103 "/>
<polygon id="Telford_3_" class="st3" points="20.8199,23.1103 20.4566,22.481 19.7299,22.481 19.3665,23.1103 19.7299,23.7397 
	20.4566,23.7397 "/>
<polygon id="Walsall_South_3_" class="st3" points="23,23.1103 22.6367,22.481 21.91,22.481 21.5466,23.1103 21.91,23.7397 
	22.6367,23.7397 "/>
<polygon id="Sutton_Coldfield_3_" class="st3" points="25.18,23.1103 24.8167,22.481 24.09,22.481 23.7267,23.1103 24.09,23.7397 
	24.8167,23.7397 "/>
<polygon id="Shrewsbury__Atcham_3_" class="st3" points="19.7299,23.7397 19.3665,23.1103 18.6399,23.1103 18.2765,23.7397 
	18.6399,24.369 19.3665,24.369 "/>
<polygon id="Wolverhampton_South_East_3_" class="st3" points="21.91,23.7397 21.5466,23.1103 20.8199,23.1103 20.4566,23.7397 
	20.8199,24.369 21.5466,24.369 "/>
<polygon id="Birmingham_Erdington_3_" class="st3" points="24.09,23.7397 23.7267,23.1103 23,23.1103 22.6367,23.7397 23,24.369 
	23.7267,24.369 "/>
<polygon id="Coventry_North_East_3_" class="st3" points="26.2701,23.7397 25.9068,23.1103 25.18,23.1103 24.8167,23.7397 
	25.18,24.369 25.9068,24.369 "/>
<polygon id="Dudley_North_3_" class="st3" points="20.8199,24.369 20.4566,23.7397 19.7299,23.7397 19.3665,24.369 19.7299,24.9984 
	20.4566,24.9984 "/>
<polygon id="West_Bromwich_East_3_" class="st3" points="23,24.369 22.6367,23.7397 21.91,23.7397 21.5466,24.369 21.91,24.9984 
	22.6367,24.9984 "/>
<polygon id="Meriden_3_" class="st3" points="25.18,24.369 24.8167,23.7397 24.09,23.7397 23.7267,24.369 24.09,24.9984 
	24.8167,24.9984 "/>
<polygon id="Wrekin_The_3_" class="st3" points="19.7299,24.9984 19.3665,24.369 18.6399,24.369 18.2765,24.9984 18.6399,25.6277 
	19.3665,25.6277 "/>
<polygon id="Warley_3_" class="st3" points="21.91,24.9984 21.5466,24.369 20.8199,24.369 20.4566,24.9984 20.8199,25.6277 
	21.5466,25.6277 "/>
<polygon id="Birmingham_Hodge_Hill_3_" class="st3" points="24.09,24.9984 23.7267,24.369 23,24.369 22.6367,24.9984 23,25.6277 
	23.7267,25.6277 "/>
<polygon id="Coventry_North_West_3_" class="st3" points="26.2701,24.9984 25.9068,24.369 25.18,24.369 24.8167,24.9984 
	25.18,25.6277 25.9068,25.6277 "/>
<polygon id="Dudley_South_3_" class="st3" points="20.8199,25.6277 20.4566,24.9984 19.7299,24.9984 19.3665,25.6277 
	19.7299,26.2571 20.4566,26.2571 "/>
<polygon id="Birmingham_Perry_Barr_3_" class="st3" points="23,25.6277 22.6367,24.9984 21.91,24.9984 21.5466,25.6277 
	21.91,26.2571 22.6367,26.2571 "/>
<polygon id="Coventry_South_3_" class="st3" points="25.18,25.6277 24.8167,24.9984 24.09,24.9984 23.7267,25.6277 24.09,26.2571 
	24.8167,26.2571 "/>
<polygon id="Ludlow_3_" class="st3" points="19.7299,26.2571 19.3665,25.6277 18.6399,25.6277 18.2765,26.2571 18.6399,26.8864 
	19.3665,26.8864 "/>
<polygon id="Birmingham_Selly_Oak_3_" class="st3" points="21.91,26.2571 21.5466,25.6277 20.8199,25.6277 20.4566,26.2571 
	20.8199,26.8864 21.5466,26.8864 "/>
<polygon id="Birmingham_Yardley_3_" class="st3" points="24.09,26.2571 23.7267,25.6277 23,25.6277 22.6367,26.2571 23,26.8864 
	23.7267,26.8864 "/>
<polygon id="West_Bromwich_West_3_" class="st3" points="20.8199,26.8864 20.4566,26.2571 19.7299,26.2571 19.3665,26.8864 
	19.7299,27.5158 20.4566,27.5158 "/>
<polygon id="Birmingham_Ladywood_3_" class="st3" points="23,26.8864 22.6367,26.2571 21.91,26.2571 21.5466,26.8864 21.91,27.5158 
	22.6367,27.5158 "/>
<polygon id="Rugby_3_" class="st3" points="25.18,26.8864 24.8167,26.2571 24.09,26.2571 23.7267,26.8864 24.09,27.5158 
	24.8167,27.5158 "/>
<polygon id="Wyre_Forest_3_" class="st3" points="19.7299,27.5158 19.3665,26.8864 18.6399,26.8864 18.2765,27.5158 
	18.6399,28.1451 19.3665,28.1451 "/>
<polygon id="Halesowen__Rowley_Regis_3_" class="st3" points="21.91,27.5158 21.5466,26.8864 20.8199,26.8864 20.4566,27.5158 
	20.8199,28.1451 21.5466,28.1451 "/>
<polygon id="Solihull_3_" class="st3" points="24.09,27.5158 23.7267,26.8864 23,26.8864 22.6367,27.5158 23,28.1451 
	23.7267,28.1451 "/>
<polygon id="Stourbridge_3_" class="st3" points="20.8199,28.1451 20.4566,27.5158 19.7299,27.5158 19.3665,28.1451 
	19.7299,28.7745 20.4566,28.7745 "/>
<polygon id="Birmingham_Hall_Green_3_" class="st3" points="23,28.1451 22.6367,27.5158 21.91,27.5158 21.5466,28.1451 
	21.91,28.7745 22.6367,28.7745 "/>
<polygon id="Warwick__Leamington_3_" class="st3" points="25.18,28.1451 24.8167,27.5158 24.09,27.5158 23.7267,28.1451 
	24.09,28.7745 24.8167,28.7745 "/>
<polygon id="Herefordshire_North_3_" class="st3" points="19.7299,28.7745 19.3665,28.1451 18.6399,28.1451 18.2765,28.7745 
	18.6399,29.4038 19.3665,29.4038 "/>
<polygon id="Birmingham_Northfield_3_" class="st3" points="21.91,28.7745 21.5466,28.1451 20.8199,28.1451 20.4566,28.7745 
	20.8199,29.4038 21.5466,29.4038 "/>
<polygon id="Kenilworth__Southam_3_" class="st3" points="24.09,28.7745 23.7267,28.1451 23,28.1451 22.6367,28.7745 23,29.4038 
	23.7267,29.4038 "/>
<polygon id="Birmingham_Edgbaston_3_" class="st3" points="20.8199,29.4038 20.4566,28.7745 19.7299,28.7745 19.3665,29.4038 
	19.7299,30.0331 20.4566,30.0331 "/>
<polygon id="Bromsgrove_3_" class="st3" points="23,29.4038 22.6367,28.7745 21.91,28.7745 21.5466,29.4038 21.91,30.0331 
	22.6367,30.0331 "/>
<polygon id="Redditch_3_" class="st3" points="21.91,30.0331 21.5466,29.4038 20.8199,29.4038 20.4566,30.0331 20.8199,30.6625 
	21.5466,30.6625 "/>
<polygon id="Stratford-on-Avon_3_" class="st3" points="24.09,30.0331 23.7267,29.4038 23,29.4038 22.6367,30.0331 23,30.6625 
	23.7267,30.6625 "/>
<polygon id="Worcester_3_" class="st3" points="20.8199,30.6625 20.4566,30.0331 19.7299,30.0331 19.3665,30.6625 19.7299,31.2918 
	20.4566,31.2918 "/>
<polygon id="Worcestershire_Mid_3_" class="st3" points="23,30.6625 22.6367,30.0331 21.91,30.0331 21.5466,30.6625 21.91,31.2918 
	22.6367,31.2918 "/>
<polygon id="Worcestershire_West_3_" class="st3" points="21.91,31.2918 21.5466,30.6625 20.8199,30.6625 20.4566,31.2918 
	20.8199,31.9211 21.5466,31.9211 "/>
<polygon id="Hereford__Herefordshire_South_3_" class="st3" points="20.8199,31.9211 20.4566,31.2918 19.7299,31.2918 
	19.3665,31.9211 19.7299,32.5505 20.4566,32.5505 "/>
<polygon id="High_Peak_3_" class="st1" points="27.3601,19.3343 26.9968,18.705 26.2701,18.705 25.9068,19.3343 26.2701,19.9637 
	26.9968,19.9637 "/>
<polygon id="Mansfield_3_" class="st1" points="31.7203,19.3343 31.3569,18.705 30.6303,18.705 30.2669,19.3343 30.6303,19.9637 
	31.3569,19.9637 "/>
<polygon id="Derbyshire_North_East_3_" class="st1" points="28.4502,19.9637 28.0868,19.3343 27.3601,19.3343 26.9968,19.9637 
	27.3601,20.593 28.0868,20.593 "/>
<polygon id="Bolsover_3_" class="st1" points="30.6303,19.9637 30.2669,19.3343 29.5402,19.3343 29.1769,19.9637 29.5402,20.593 
	30.2669,20.593 "/>
<polygon id="Bassetlaw_3_" class="st1" points="32.8103,19.9637 32.4469,19.3343 31.7203,19.3343 31.3569,19.9637 31.7203,20.593 
	32.4469,20.593 "/>
<polygon id="Derbyshire_Dales_3_" class="st1" points="27.3601,20.593 26.9968,19.9637 26.2701,19.9637 25.9068,20.593 
	26.2701,21.2223 26.9968,21.2223 "/>
<polygon id="Chesterfield_3_" class="st1" points="29.5402,20.593 29.1769,19.9637 28.4502,19.9637 28.0868,20.593 28.4502,21.2223 
	29.1769,21.2223 "/>
<polygon id="Sherwood_3_" class="st1" points="31.7203,20.593 31.3569,19.9637 30.6303,19.9637 30.2669,20.593 30.6303,21.2223 
	31.3569,21.2223 "/>
<polygon id="Newark_3_" class="st1" points="33.9003,20.593 33.537,19.9637 32.8103,19.9637 32.4469,20.593 32.8103,21.2223 
	33.537,21.2223 "/>
<polygon id="Derbyshire_Mid_3_" class="st1" points="28.4502,21.2223 28.0868,20.593 27.3601,20.593 26.9968,21.2223 
	27.3601,21.8517 28.0868,21.8517 "/>
<polygon id="Ashfield_3_" class="st1" points="30.6303,21.2223 30.2669,20.593 29.5402,20.593 29.1769,21.2223 29.5402,21.8517 
	30.2669,21.8517 "/>
<polygon id="Nottingham_North_3_" class="st1" points="32.8103,21.2223 32.4469,20.593 31.7203,20.593 31.3569,21.2223 
	31.7203,21.8517 32.4469,21.8517 "/>
<polygon id="Gainsborough_3_" class="st1" points="34.9904,21.2223 34.627,20.593 33.9003,20.593 33.537,21.2223 33.9003,21.8517 
	34.627,21.8517 "/>
<polygon id="Derby_North_3_" class="st1" points="27.3601,21.8517 26.9968,21.2223 26.2701,21.2223 25.9068,21.8517 26.2701,22.481 
	26.9968,22.481 "/>
<polygon id="Amber_Valley_3_" class="st1" points="29.5402,21.8517 29.1769,21.2223 28.4502,21.2223 28.0868,21.8517 
	28.4502,22.481 29.1769,22.481 "/>
<polygon id="Broxtowe_3_" class="st1" points="31.7203,21.8517 31.3569,21.2223 30.6303,21.2223 30.2669,21.8517 30.6303,22.481 
	31.3569,22.481 "/>
<polygon id="Gedling_3_" class="st1" points="33.9003,21.8517 33.537,21.2223 32.8103,21.2223 32.4469,21.8517 32.8103,22.481 
	33.537,22.481 "/>
<polygon id="Derby_South_3_" class="st1" points="28.4502,22.481 28.0868,21.8517 27.3601,21.8517 26.9968,22.481 27.3601,23.1103 
	28.0868,23.1103 "/>
<polygon id="Erewash_3_" class="st1" points="30.6303,22.481 30.2669,21.8517 29.5402,21.8517 29.1769,22.481 29.5402,23.1103 
	30.2669,23.1103 "/>
<polygon id="Nottingham_East_3_" class="st1" points="32.8103,22.481 32.4469,21.8517 31.7203,21.8517 31.3569,22.481 
	31.7203,23.1103 32.4469,23.1103 "/>
<polygon id="Louth__Horncastle_3_" class="st1" points="34.9904,22.481 34.627,21.8517 33.9003,21.8517 33.537,22.481 
	33.9003,23.1103 34.627,23.1103 "/>
<polygon id="Derbyshire_South_3_" class="st1" points="27.3601,23.1103 26.9968,22.481 26.2701,22.481 25.9068,23.1103 
	26.2701,23.7397 26.9968,23.7397 "/>
<polygon id="Loughborough_3_" class="st1" points="29.5402,23.1103 29.1769,22.481 28.4502,22.481 28.0868,23.1103 28.4502,23.7397 
	29.1769,23.7397 "/>
<polygon id="Nottingham_South_3_" class="st1" points="31.7203,23.1103 31.3569,22.481 30.6303,22.481 30.2669,23.1103 
	30.6303,23.7397 31.3569,23.7397 "/>
<polygon id="Lincoln_3_" class="st1" points="33.9003,23.1103 33.537,22.481 32.8103,22.481 32.4469,23.1103 32.8103,23.7397 
	33.537,23.7397 "/>
<polygon id="Leicestershire_North_West_3_" class="st1" points="28.4502,23.7397 28.0868,23.1103 27.3601,23.1103 26.9968,23.7397 
	27.3601,24.369 28.0868,24.369 "/>
<polygon id="Charnwood_3_" class="st1" points="30.6303,23.7397 30.2669,23.1103 29.5402,23.1103 29.1769,23.7397 29.5402,24.369 
	30.2669,24.369 "/>
<polygon id="Rushcliffe_3_" class="st1" points="32.8103,23.7397 32.4469,23.1103 31.7203,23.1103 31.3569,23.7397 31.7203,24.369 
	32.4469,24.369 "/>
<polygon id="Boston__Skegness_3_" class="st1" points="34.9904,23.7397 34.627,23.1103 33.9003,23.1103 33.537,23.7397 
	33.9003,24.369 34.627,24.369 "/>
<polygon id="Bosworth_3_" class="st1" points="27.3601,24.369 26.9968,23.7397 26.2701,23.7397 25.9068,24.369 26.2701,24.9984 
	26.9968,24.9984 "/>
<polygon id="Leicester_East_3_" class="st1" points="29.5402,24.369 29.1769,23.7397 28.4502,23.7397 28.0868,24.369 
	28.4502,24.9984 29.1769,24.9984 "/>
<polygon id="Corby_3_" class="st1" points="31.7203,24.369 31.3569,23.7397 30.6303,23.7397 30.2669,24.369 30.6303,24.9984 
	31.3569,24.9984 "/>
<polygon id="Sleaford__North_Hykeham_3_" class="st1" points="33.9003,24.369 33.537,23.7397 32.8103,23.7397 32.4469,24.369 
	32.8103,24.9984 33.537,24.9984 "/>
<polygon id="Leicester_West_3_" class="st1" points="28.4502,24.9984 28.0868,24.369 27.3601,24.369 26.9968,24.9984 
	27.3601,25.6277 28.0868,25.6277 "/>
<polygon id="Kettering_3_" class="st1" points="30.6303,24.9984 30.2669,24.369 29.5402,24.369 29.1769,24.9984 29.5402,25.6277 
	30.2669,25.6277 "/>
<polygon id="Rutland__Melton_3_" class="st1" points="32.8103,24.9984 32.4469,24.369 31.7203,24.369 31.3569,24.9984 
	31.7203,25.6277 32.4469,25.6277 "/>
<polygon id="South_Holland__The_Deepings_3_" class="st1" points="34.9904,24.9984 34.627,24.369 33.9003,24.369 33.537,24.9984 
	33.9003,25.6277 34.627,25.6277 "/>
<polygon id="Leicestershire_South_3_" class="st1" points="27.3601,25.6277 26.9968,24.9984 26.2701,24.9984 25.9068,25.6277 
	26.2701,26.2571 26.9968,26.2571 "/>
<polygon id="Harborough_3_" class="st1" points="29.5402,25.6277 29.1769,24.9984 28.4502,24.9984 28.0868,25.6277 28.4502,26.2571 
	29.1769,26.2571 "/>
<polygon id="Grantham__Stamford_3_" class="st1" points="33.9003,25.6277 33.537,24.9984 32.8103,24.9984 32.4469,25.6277 
	32.8103,26.2571 33.537,26.2571 "/>
<polygon id="Daventry_3_" class="st1" points="26.2701,26.2571 25.9068,25.6277 25.18,25.6277 24.8167,26.2571 25.18,26.8864 
	25.9068,26.8864 "/>
<polygon id="Leicester_South_3_" class="st1" points="28.4502,26.2571 28.0868,25.6277 27.3601,25.6277 26.9968,26.2571 
	27.3601,26.8864 28.0868,26.8864 "/>
<polygon id="Wellingborough_3_" class="st1" points="27.3601,26.8864 26.9968,26.2571 26.2701,26.2571 25.9068,26.8864 
	26.2701,27.5158 26.9968,27.5158 "/>
<polygon id="Northampton_North_3_" class="st1" points="26.2701,27.5158 25.9068,26.8864 25.18,26.8864 24.8167,27.5158 
	25.18,28.1451 25.9068,28.1451 "/>
<polygon id="Northampton_South_3_" class="st1" points="26.2701,28.7745 25.9068,28.1451 25.18,28.1451 24.8167,28.7745 
	25.18,29.4038 25.9068,29.4038 "/>
<polygon id="Northamptonshire_South_3_" class="st1" points="25.18,29.4038 24.8167,28.7745 24.09,28.7745 23.7267,29.4038 
	24.09,30.0331 24.8167,30.0331 "/>
<polygon id="Delyn_3_" class="st2" points="17.5499,21.2223 17.1865,20.593 16.4598,20.593 16.0965,21.2223 16.4598,21.8517 
	17.1865,21.8517 "/>
<polygon id="Ynys_Mon_3_" class="st2" points="14.2797,21.8517 13.9164,21.2223 13.1897,21.2223 12.8264,21.8517 13.1897,22.481 
	13.9164,22.481 "/>
<polygon id="Alyn__Deeside_3_" class="st2" points="18.6399,21.8517 18.2765,21.2223 17.5499,21.2223 17.1865,21.8517 
	17.5499,22.481 18.2765,22.481 "/>
<polygon id="Vale_Of_Clwyd_3_" class="st2" points="17.5499,22.481 17.1865,21.8517 16.4598,21.8517 16.0965,22.481 
	16.4598,23.1103 17.1865,23.1103 "/>
<polygon id="Aberconwy_3_" class="st2" points="16.4598,23.1103 16.0965,22.481 15.3698,22.481 15.0064,23.1103 15.3698,23.7397 
	16.0965,23.7397 "/>
<polygon id="Wrexham_3_" class="st2" points="18.6399,23.1103 18.2765,22.481 17.5499,22.481 17.1865,23.1103 17.5499,23.7397 
	18.2765,23.7397 "/>
<polygon id="Arfon_3_" class="st2" points="15.3698,23.7397 15.0064,23.1103 14.2797,23.1103 13.9164,23.7397 14.2797,24.369 
	15.0064,24.369 "/>
<polygon id="Clwyd_West_3_" class="st2" points="17.5499,23.7397 17.1865,23.1103 16.4598,23.1103 16.0965,23.7397 16.4598,24.369 
	17.1865,24.369 "/>
<polygon id="Dwyfor_Meirionnydd_3_" class="st2" points="16.4598,24.369 16.0965,23.7397 15.3698,23.7397 15.0064,24.369 
	15.3698,24.9984 16.0965,24.9984 "/>
<polygon id="Clwyd_South_3_" class="st2" points="18.6399,24.369 18.2765,23.7397 17.5499,23.7397 17.1865,24.369 17.5499,24.9984 
	18.2765,24.9984 "/>
<polygon id="Montgomeryshire_3_" class="st2" points="18.6399,25.6277 18.2765,24.9984 17.5499,24.9984 17.1865,25.6277 
	17.5499,26.2571 18.2765,26.2571 "/>
<polygon id="Brecon__Radnorshire_3_" class="st2" points="18.6399,26.8864 18.2765,26.2571 17.5499,26.2571 17.1865,26.8864 
	17.5499,27.5158 18.2765,27.5158 "/>
<polygon id="Ceredigion_3_" class="st2" points="18.6399,28.1451 18.2765,27.5158 17.5499,27.5158 17.1865,28.1451 17.5499,28.7745 
	18.2765,28.7745 "/>
<polygon id="Blaenau_Gwent_3_" class="st2" points="18.6399,29.4038 18.2765,28.7745 17.5499,28.7745 17.1865,29.4038 
	17.5499,30.0331 18.2765,30.0331 "/>
<polygon id="Merthyr_Tydfil__Rhymney_3_" class="st2" points="17.5499,30.0331 17.1865,29.4038 16.4598,29.4038 16.0965,30.0331 
	16.4598,30.6625 17.1865,30.6625 "/>
<polygon id="Torfaen_3_" class="st2" points="19.7299,30.0331 19.3665,29.4038 18.6399,29.4038 18.2765,30.0331 18.6399,30.6625 
	19.3665,30.6625 "/>
<polygon id="Rhondda_3_" class="st2" points="16.4598,30.6625 16.0965,30.0331 15.3698,30.0331 15.0064,30.6625 15.3698,31.2918 
	16.0965,31.2918 "/>
<polygon id="Islwyn_3_" class="st2" points="18.6399,30.6625 18.2765,30.0331 17.5499,30.0331 17.1865,30.6625 17.5499,31.2918 
	18.2765,31.2918 "/>
<polygon id="Neath_3_" class="st2" points="15.3698,31.2918 15.0064,30.6625 14.2797,30.6625 13.9164,31.2918 14.2797,31.9211 
	15.0064,31.9211 "/>
<polygon id="Cynon_Valley_3_" class="st2" points="17.5499,31.2918 17.1865,30.6625 16.4598,30.6625 16.0965,31.2918 
	16.4598,31.9211 17.1865,31.9211 "/>
<polygon id="Monmouth_3_" class="st2" points="19.7299,31.2918 19.3665,30.6625 18.6399,30.6625 18.2765,31.2918 18.6399,31.9211 
	19.3665,31.9211 "/>
<polygon id="Preseli_Pembrokeshire_3_" class="st2" points="12.0996,31.9211 11.7363,31.2918 11.0096,31.2918 10.6463,31.9211 
	11.0096,32.5505 11.7363,32.5505 "/>
<polygon id="Carmarthen_East__Dinefwr_3_" class="st2" points="14.2797,31.9211 13.9164,31.2918 13.1897,31.2918 12.8264,31.9211 
	13.1897,32.5505 13.9164,32.5505 "/>
<polygon id="Pontypridd_3_" class="st2" points="16.4598,31.9211 16.0965,31.2918 15.3698,31.2918 15.0064,31.9211 15.3698,32.5505 
	16.0965,32.5505 "/>
<polygon id="Caerphilly_3_" class="st2" points="18.6399,31.9211 18.2765,31.2918 17.5499,31.2918 17.1865,31.9211 17.5499,32.5505 
	18.2765,32.5505 "/>
<polygon id="Llanelli_3_" class="st2" points="13.1897,32.5505 12.8264,31.9211 12.0996,31.9211 11.7363,32.5505 12.0996,33.1798 
	12.8264,33.1798 "/>
<polygon id="Aberavon_3_" class="st2" points="15.3698,32.5505 15.0064,31.9211 14.2797,31.9211 13.9164,32.5505 14.2797,33.1798 
	15.0064,33.1798 "/>
<polygon id="Cardiff_Central_3_" class="st2" points="17.5499,32.5505 17.1865,31.9211 16.4598,31.9211 16.0965,32.5505 
	16.4598,33.1798 17.1865,33.1798 "/>
<polygon id="Newport_East_3_" class="st2" points="19.7299,32.5505 19.3665,31.9211 18.6399,31.9211 18.2765,32.5505 
	18.6399,33.1798 19.3665,33.1798 "/>
<polygon id="Carmarthen_West__Pembrokeshire_South_3_" class="st2" points="12.0996,33.1798 11.7363,32.5505 11.0096,32.5505 
	10.6463,33.1798 11.0096,33.8092 11.7363,33.8092 "/>
<polygon id="Swansea_West_3_" class="st2" points="14.2797,33.1798 13.9164,32.5505 13.1897,32.5505 12.8264,33.1798 
	13.1897,33.8092 13.9164,33.8092 "/>
<polygon id="Cardiff_West_3_" class="st2" points="16.4598,33.1798 16.0965,32.5505 15.3698,32.5505 15.0064,33.1798 
	15.3698,33.8092 16.0965,33.8092 "/>
<polygon id="Cardiff_North_3_" class="st2" points="18.6399,33.1798 18.2765,32.5505 17.5499,32.5505 17.1865,33.1798 
	17.5499,33.8092 18.2765,33.8092 "/>
<polygon id="Gower_3_" class="st2" points="13.1897,33.8092 12.8264,33.1798 12.0996,33.1798 11.7363,33.8092 12.0996,34.4385 
	12.8264,34.4385 "/>
<polygon id="Ogmore_3_" class="st2" points="15.3698,33.8092 15.0064,33.1798 14.2797,33.1798 13.9164,33.8092 14.2797,34.4385 
	15.0064,34.4385 "/>
<polygon id="Cardiff_South__Penarth_3_" class="st2" points="17.5499,33.8092 17.1865,33.1798 16.4598,33.1798 16.0965,33.8092 
	16.4598,34.4385 17.1865,34.4385 "/>
<polygon id="Swansea_East_3_" class="st2" points="14.2797,34.4385 13.9164,33.8092 13.1897,33.8092 12.8264,34.4385 
	13.1897,35.0679 13.9164,35.0679 "/>
<polygon id="Vale_Of_Glamorgan_3_" class="st2" points="16.4598,34.4385 16.0965,33.8092 15.3698,33.8092 15.0064,34.4385 
	15.3698,35.0679 16.0965,35.0679 "/>
<polygon id="Newport_West_3_" class="st2" points="18.6399,34.4385 18.2765,33.8092 17.5499,33.8092 17.1865,34.4385 
	17.5499,35.0679 18.2765,35.0679 "/>
<polygon id="Bridgend_3_" class="st2" points="15.3698,35.0679 15.0064,34.4385 14.2797,34.4385 13.9164,35.0679 14.2797,35.6972 
	15.0064,35.6972 "/>
<polygon id="Norfolk_Mid_3_" class="st2" points="31.7203,25.6277 31.3569,24.9984 30.6303,24.9984 30.2669,25.6277 
	30.6303,26.2571 31.3569,26.2571 "/>
<polygon id="Norfolk_North_West_3_" class="st2" points="36.0804,25.6277 35.7171,24.9984 34.9904,24.9984 34.627,25.6277 
	34.9904,26.2571 35.7171,26.2571 "/>
<polygon id="Cambridgeshire_North_West_3_" class="st2" points="30.6303,26.2571 30.2669,25.6277 29.5402,25.6277 29.1769,26.2571 
	29.5402,26.8864 30.2669,26.8864 "/>
<polygon id="Peterborough_3_" class="st2" points="32.8103,26.2571 32.4469,25.6277 31.7203,25.6277 31.3569,26.2571 
	31.7203,26.8864 32.4469,26.8864 "/>
<polygon id="Cambridgeshire_North_East_3_" class="st2" points="34.9904,26.2571 34.627,25.6277 33.9003,25.6277 33.537,26.2571 
	33.9003,26.8864 34.627,26.8864 "/>
<polygon id="Broadland_3_" class="st2" points="37.1704,26.2571 36.8071,25.6277 36.0804,25.6277 35.7171,26.2571 36.0804,26.8864 
	36.8071,26.8864 "/>
<polygon id="Huntingdon_3_" class="st2" points="29.5402,26.8864 29.1769,26.2571 28.4502,26.2571 28.0868,26.8864 28.4502,27.5158 
	29.1769,27.5158 "/>
<polygon id="Cambridgeshire_South_3_" class="st2" points="31.7203,26.8864 31.3569,26.2571 30.6303,26.2571 30.2669,26.8864 
	30.6303,27.5158 31.3569,27.5158 "/>
<polygon id="Hertfordshire_North_East_3_" class="st2" points="33.9003,26.8864 33.537,26.2571 32.8103,26.2571 32.4469,26.8864 
	32.8103,27.5158 33.537,27.5158 "/>
<polygon id="Norwich_North_3_" class="st2" points="36.0804,26.8864 35.7171,26.2571 34.9904,26.2571 34.627,26.8864 
	34.9904,27.5158 35.7171,27.5158 "/>
<polygon id="Norfolk_North_3_" class="st2" points="38.2605,26.8864 37.8972,26.2571 37.1704,26.2571 36.8071,26.8864 
	37.1704,27.5158 37.8972,27.5158 "/>
<polygon id="Bedford_3_" class="st2" points="28.4502,27.5158 28.0868,26.8864 27.3601,26.8864 26.9968,27.5158 27.3601,28.1451 
	28.0868,28.1451 "/>
<polygon id="Stevenage_3_" class="st2" points="30.6303,27.5158 30.2669,26.8864 29.5402,26.8864 29.1769,27.5158 29.5402,28.1451 
	30.2669,28.1451 "/>
<polygon id="Hemel_Hempstead_3_" class="st2" points="32.8103,27.5158 32.4469,26.8864 31.7203,26.8864 31.3569,27.5158 
	31.7203,28.1451 32.4469,28.1451 "/>
<polygon id="Norfolk_South_West_3_" class="st2" points="34.9904,27.5158 34.627,26.8864 33.9003,26.8864 33.537,27.5158 
	33.9003,28.1451 34.627,28.1451 "/>
<polygon id="Norwich_South_3_" class="st2" points="37.1704,27.5158 36.8071,26.8864 36.0804,26.8864 35.7171,27.5158 
	36.0804,28.1451 36.8071,28.1451 "/>
<polygon id="Great_Yarmouth_3_" class="st2" points="39.3505,27.5158 38.9872,26.8864 38.2605,26.8864 37.8972,27.5158 
	38.2605,28.1451 38.9872,28.1451 "/>
<polygon id="Bedfordshire_North_East_3_" class="st2" points="27.3601,28.1451 26.9968,27.5158 26.2701,27.5158 25.9068,28.1451 
	26.2701,28.7745 26.9968,28.7745 "/>
<polygon id="Hitchin__Harpenden_3_" class="st2" points="29.5402,28.1451 29.1769,27.5158 28.4502,27.5158 28.0868,28.1451 
	28.4502,28.7745 29.1769,28.7745 "/>
<polygon id="St_Albans_3_" class="st2" points="31.7203,28.1451 31.3569,27.5158 30.6303,27.5158 30.2669,28.1451 30.6303,28.7745 
	31.3569,28.7745 "/>
<polygon id="Hertford__Stortford_3_" class="st2" points="33.9003,28.1451 33.537,27.5158 32.8103,27.5158 32.4469,28.1451 
	32.8103,28.7745 33.537,28.7745 "/>
<polygon id="Suffolk_West_3_" class="st2" points="36.0804,28.1451 35.7171,27.5158 34.9904,27.5158 34.627,28.1451 
	34.9904,28.7745 35.7171,28.7745 "/>
<polygon id="Norfolk_South_3_" class="st2" points="38.2605,28.1451 37.8972,27.5158 37.1704,27.5158 36.8071,28.1451 
	37.1704,28.7745 37.8972,28.7745 "/>
<polygon id="Waveney_3_" class="st2" points="40.4406,28.1451 40.0772,27.5158 39.3505,27.5158 38.9872,28.1451 39.3505,28.7745 
	40.0772,28.7745 "/>
<polygon id="Luton_South_3_" class="st2" points="28.4502,28.7745 28.0868,28.1451 27.3601,28.1451 26.9968,28.7745 
	27.3601,29.4038 28.0868,29.4038 "/>
<polygon id="Welwyn_Hatfield_3_" class="st2" points="30.6303,28.7745 30.2669,28.1451 29.5402,28.1451 29.1769,28.7745 
	29.5402,29.4038 30.2669,29.4038 "/>
<polygon id="Broxbourne_3_" class="st2" points="32.8103,28.7745 32.4469,28.1451 31.7203,28.1451 31.3569,28.7745 31.7203,29.4038 
	32.4469,29.4038 "/>
<polygon id="Cambridge_3_" class="st2" points="34.9904,28.7745 34.627,28.1451 33.9003,28.1451 33.537,28.7745 33.9003,29.4038 
	34.627,29.4038 "/>
<polygon id="Bury_St_Edmunds_3_" class="st2" points="37.1704,28.7745 36.8071,28.1451 36.0804,28.1451 35.7171,28.7745 
	36.0804,29.4038 36.8071,29.4038 "/>
<polygon id="Ipswich_3_" class="st2" points="39.3505,28.7745 38.9872,28.1451 38.2605,28.1451 37.8972,28.7745 38.2605,29.4038 
	38.9872,29.4038 "/>
<polygon id="Suffolk_Coastal_3_" class="st2" points="41.5306,28.7745 41.1672,28.1451 40.4406,28.1451 40.0772,28.7745 
	40.4406,29.4038 41.1672,29.4038 "/>
<polygon id="Luton_North_3_" class="st2" points="27.3601,29.4038 26.9968,28.7745 26.2701,28.7745 25.9068,29.4038 
	26.2701,30.0331 26.9968,30.0331 "/>
<polygon id="Hertsmere_3_" class="st2" points="29.5402,29.4038 29.1769,28.7745 28.4502,28.7745 28.0868,29.4038 28.4502,30.0331 
	29.1769,30.0331 "/>
<polygon id="Harlow_3_" class="st2" points="33.9003,29.4038 33.537,28.7745 32.8103,28.7745 32.4469,29.4038 32.8103,30.0331 
	33.537,30.0331 "/>
<polygon id="Cambridgeshire_South_East_3_" class="st2" points="36.0804,29.4038 35.7171,28.7745 34.9904,28.7745 34.627,29.4038 
	34.9904,30.0331 35.7171,30.0331 "/>
<polygon id="Suffolk_South_3_" class="st2" points="38.2605,29.4038 37.8972,28.7745 37.1704,28.7745 36.8071,29.4038 
	37.1704,30.0331 37.8972,30.0331 "/>
<polygon id="Suffolk_Central__Ipswich_North_3_" class="st2" points="40.4406,29.4038 40.0772,28.7745 39.3505,28.7745 
	38.9872,29.4038 39.3505,30.0331 40.0772,30.0331 "/>
<polygon id="Bedfordshire_Mid_3_" class="st2" points="26.2701,30.0331 25.9068,29.4038 25.18,29.4038 24.8167,30.0331 
	25.18,30.6625 25.9068,30.6625 "/>
<polygon id="Watford_3_" class="st2" points="28.4502,30.0331 28.0868,29.4038 27.3601,29.4038 26.9968,30.0331 27.3601,30.6625 
	28.0868,30.6625 "/>
<polygon id="Epping_Forest_3_" class="st2" points="34.9904,30.0331 34.627,29.4038 33.9003,29.4038 33.537,30.0331 
	33.9003,30.6625 34.627,30.6625 "/>
<polygon id="Braintree_3_" class="st2" points="37.1704,30.0331 36.8071,29.4038 36.0804,29.4038 35.7171,30.0331 36.0804,30.6625 
	36.8071,30.6625 "/>
<polygon id="Harwich__Essex_North_3_" class="st2" points="39.3505,30.0331 38.9872,29.4038 38.2605,29.4038 37.8972,30.0331 
	38.2605,30.6625 38.9872,30.6625 "/>
<polygon id="Clacton_3_" class="st2" points="41.5306,30.0331 41.1672,29.4038 40.4406,29.4038 40.0772,30.0331 40.4406,30.6625 
	41.1672,30.6625 "/>
<polygon id="Hertfordshire_South_West_3_" class="st2" points="27.3601,30.6625 26.9968,30.0331 26.2701,30.0331 25.9068,30.6625 
	26.2701,31.2918 26.9968,31.2918 "/>
<polygon id="Brentwood__Ongar_3_" class="st2" points="36.0804,30.6625 35.7171,30.0331 34.9904,30.0331 34.627,30.6625 
	34.9904,31.2918 35.7171,31.2918 "/>
<polygon id="Colchester_3_" class="st2" points="38.2605,30.6625 37.8972,30.0331 37.1704,30.0331 36.8071,30.6625 37.1704,31.2918 
	37.8972,31.2918 "/>
<polygon id="Witham_3_" class="st2" points="40.4406,30.6625 40.0772,30.0331 39.3505,30.0331 38.9872,30.6625 39.3505,31.2918 
	40.0772,31.2918 "/>
<polygon id="Bedfordshire_South_West_3_" class="st2" points="26.2701,31.2918 25.9068,30.6625 25.18,30.6625 24.8167,31.2918 
	25.18,31.9211 25.9068,31.9211 "/>
<polygon id="Saffron_Walden_3_" class="st2" points="37.1704,31.2918 36.8071,30.6625 36.0804,30.6625 35.7171,31.2918 
	36.0804,31.9211 36.8071,31.9211 "/>
<polygon id="Rayleigh__Wickford_3_" class="st2" points="39.3505,31.2918 38.9872,30.6625 38.2605,30.6625 37.8972,31.2918 
	38.2605,31.9211 38.9872,31.9211 "/>
<polygon id="Maldon_3_" class="st2" points="41.5306,31.2918 41.1672,30.6625 40.4406,30.6625 40.0772,31.2918 40.4406,31.9211 
	41.1672,31.9211 "/>
<polygon id="Chelmsford_3_" class="st2" points="38.2605,31.9211 37.8972,31.2918 37.1704,31.2918 36.8071,31.9211 37.1704,32.5505 
	37.8972,32.5505 "/>
<polygon id="Southend_West_3_" class="st2" points="40.4406,31.9211 40.0772,31.2918 39.3505,31.2918 38.9872,31.9211 
	39.3505,32.5505 40.0772,32.5505 "/>
<polygon id="Basildon__Billericay_3_" class="st2" points="39.3505,32.5505 38.9872,31.9211 38.2605,31.9211 37.8972,32.5505 
	38.2605,33.1798 38.9872,33.1798 "/>
<polygon id="Rochford__Southend_East_3_" class="st2" points="41.5306,32.5505 41.1672,31.9211 40.4406,31.9211 40.0772,32.5505 
	40.4406,33.1798 41.1672,33.1798 "/>
<polygon id="Basildon_South__Thurrock_East_3_" class="st2" points="40.4406,33.1798 40.0772,32.5505 39.3505,32.5505 
	38.9872,33.1798 39.3505,33.8092 40.0772,33.8092 "/>
<polygon id="Castle_Point_3_" class="st2" points="41.5306,33.8092 41.1672,33.1798 40.4406,33.1798 40.0772,33.8092 
	40.4406,34.4385 41.1672,34.4385 "/>
<polygon id="Thurrock_3_" class="st2" points="40.4406,34.4385 40.0772,33.8092 39.3505,33.8092 38.9872,34.4385 39.3505,35.0679 
	40.0772,35.0679 "/>
<polygon id="Chipping_Barnet_3_" class="st3" points="31.7203,29.4038 31.3569,28.7745 30.6303,28.7745 30.2669,29.4038 
	30.6303,30.0331 31.3569,30.0331 "/>
<polygon id="Hendon_3_" class="st3" points="30.6303,30.0331 30.2669,29.4038 29.5402,29.4038 29.1769,30.0331 29.5402,30.6625 
	30.2669,30.6625 "/>
<polygon id="Enfield_Southgate_3_" class="st3" points="32.8103,30.0331 32.4469,29.4038 31.7203,29.4038 31.3569,30.0331 
	31.7203,30.6625 32.4469,30.6625 "/>
<polygon id="Harrow_East_3_" class="st3" points="29.5402,30.6625 29.1769,30.0331 28.4502,30.0331 28.0868,30.6625 
	28.4502,31.2918 29.1769,31.2918 "/>
<polygon id="Finchley__Golders_Green_3_" class="st3" points="31.7203,30.6625 31.3569,30.0331 30.6303,30.0331 30.2669,30.6625 
	30.6303,31.2918 31.3569,31.2918 "/>
<polygon id="Enfield_North_3_" class="st3" points="33.9003,30.6625 33.537,30.0331 32.8103,30.0331 32.4469,30.6625 
	32.8103,31.2918 33.537,31.2918 "/>
<polygon id="Harrow_West_3_" class="st3" points="28.4502,31.2918 28.0868,30.6625 27.3601,30.6625 26.9968,31.2918 
	27.3601,31.9211 28.0868,31.9211 "/>
<polygon id="Brent_Central_3_" class="st3" points="30.6303,31.2918 30.2669,30.6625 29.5402,30.6625 29.1769,31.2918 
	29.5402,31.9211 30.2669,31.9211 "/>
<polygon id="Tottenham_3_" class="st3" points="32.8103,31.2918 32.4469,30.6625 31.7203,30.6625 31.3569,31.2918 31.7203,31.9211 
	32.4469,31.9211 "/>
<polygon id="Edmonton_3_" class="st3" points="34.9904,31.2918 34.627,30.6625 33.9003,30.6625 33.537,31.2918 33.9003,31.9211 
	34.627,31.9211 "/>
<polygon id="Ruislip_Northwood__Pinner_3_" class="st3" points="27.3601,31.9211 26.9968,31.2918 26.2701,31.2918 25.9068,31.9211 
	26.2701,32.5505 26.9968,32.5505 "/>
<polygon id="Brent_North_3_" class="st3" points="29.5402,31.9211 29.1769,31.2918 28.4502,31.2918 28.0868,31.9211 
	28.4502,32.5505 29.1769,32.5505 "/>
<polygon id="Islington_North_3_" class="st3" points="31.7203,31.9211 31.3569,31.2918 30.6303,31.2918 30.2669,31.9211 
	30.6303,32.5505 31.3569,32.5505 "/>
<polygon id="Walthamstow_3_" class="st3" points="33.9003,31.9211 33.537,31.2918 32.8103,31.2918 32.4469,31.9211 32.8103,32.5505 
	33.537,32.5505 "/>
<polygon id="Chingford__Woodford_Green_3_" class="st3" points="36.0804,31.9211 35.7171,31.2918 34.9904,31.2918 34.627,31.9211 
	34.9904,32.5505 35.7171,32.5505 "/>
<polygon id="Ealing_Central__Acton_3_" class="st3" points="28.4502,32.5505 28.0868,31.9211 27.3601,31.9211 26.9968,32.5505 
	27.3601,33.1798 28.0868,33.1798 "/>
<polygon id="Hornsey__Wood_Green_3_" class="st3" points="30.6303,32.5505 30.2669,31.9211 29.5402,31.9211 29.1769,32.5505 
	29.5402,33.1798 30.2669,33.1798 "/>
<polygon id="Hackney_North__Stoke_Newington_3_" class="st3" points="32.8103,32.5505 32.4469,31.9211 31.7203,31.9211 
	31.3569,32.5505 31.7203,33.1798 32.4469,33.1798 "/>
<polygon id="Leyton__Wanstead_3_" class="st3" points="34.9904,32.5505 34.627,31.9211 33.9003,31.9211 33.537,32.5505 
	33.9003,33.1798 34.627,33.1798 "/>
<polygon id="Ilford_North_3_" class="st3" points="37.1704,32.5505 36.8071,31.9211 36.0804,31.9211 35.7171,32.5505 
	36.0804,33.1798 36.8071,33.1798 "/>
<polygon id="Ealing_North_3_" class="st3" points="27.3601,33.1798 26.9968,32.5505 26.2701,32.5505 25.9068,33.1798 
	26.2701,33.8092 26.9968,33.8092 "/>
<polygon id="Hampstead__Kilburn_3_" class="st3" points="29.5402,33.1798 29.1769,32.5505 28.4502,32.5505 28.0868,33.1798 
	28.4502,33.8092 29.1769,33.8092 "/>
<polygon id="Holborn__St_Pancras_3_" class="st3" points="31.7203,33.1798 31.3569,32.5505 30.6303,32.5505 30.2669,33.1798 
	30.6303,33.8092 31.3569,33.8092 "/>
<polygon id="Hackney_South__Shoreditch_3_" class="st3" points="33.9003,33.1798 33.537,32.5505 32.8103,32.5505 32.4469,33.1798 
	32.8103,33.8092 33.537,33.8092 "/>
<polygon id="West_Ham_3_" class="st3" points="36.0804,33.1798 35.7171,32.5505 34.9904,32.5505 34.627,33.1798 34.9904,33.8092 
	35.7171,33.8092 "/>
<polygon id="Ilford_South_3_" class="st3" points="38.2605,33.1798 37.8972,32.5505 37.1704,32.5505 36.8071,33.1798 
	37.1704,33.8092 37.8972,33.8092 "/>
<polygon id="Uxbridge__South_Ruislip_3_" class="st3" points="26.2701,33.8092 25.9068,33.1798 25.18,33.1798 24.8167,33.8092 
	25.18,34.4385 25.9068,34.4385 "/>
<polygon id="Brentford__Isleworth_3_" class="st3" points="28.4502,33.8092 28.0868,33.1798 27.3601,33.1798 26.9968,33.8092 
	27.3601,34.4385 28.0868,34.4385 "/>
<polygon id="Westminster_North_3_" class="st3" points="30.6303,33.8092 30.2669,33.1798 29.5402,33.1798 29.1769,33.8092 
	29.5402,34.4385 30.2669,34.4385 "/>
<polygon id="Islington_South__Finsbury_3_" class="st3" points="32.8103,33.8092 32.4469,33.1798 31.7203,33.1798 31.3569,33.8092 
	31.7203,34.4385 32.4469,34.4385 "/>
<polygon id="Bethnal_Green__Bow_3_" class="st3" points="34.9904,33.8092 34.627,33.1798 33.9003,33.1798 33.537,33.8092 
	33.9003,34.4385 34.627,34.4385 "/>
<polygon id="East_Ham_3_" class="st3" points="37.1704,33.8092 36.8071,33.1798 36.0804,33.1798 35.7171,33.8092 36.0804,34.4385 
	36.8071,34.4385 "/>
<polygon id="Romford_3_" class="st3" points="39.3505,33.8092 38.9872,33.1798 38.2605,33.1798 37.8972,33.8092 38.2605,34.4385 
	38.9872,34.4385 "/>
<polygon id="Ealing_Southall_3_" class="st3" points="27.3601,34.4385 26.9968,33.8092 26.2701,33.8092 25.9068,34.4385 
	26.2701,35.0679 26.9968,35.0679 "/>
<polygon id="Kensington_3_" class="st3" points="29.5402,34.4385 29.1769,33.8092 28.4502,33.8092 28.0868,34.4385 28.4502,35.0679 
	29.1769,35.0679 "/>
<polygon id="Cities_Of_London__Westminster_3_" class="st3" points="31.7203,34.4385 31.3569,33.8092 30.6303,33.8092 
	30.2669,34.4385 30.6303,35.0679 31.3569,35.0679 "/>
<polygon id="Poplar__Limehouse_3_" class="st3" points="33.9003,34.4385 33.537,33.8092 32.8103,33.8092 32.4469,34.4385 
	32.8103,35.0679 33.537,35.0679 "/>
<polygon id="Greenwich__Woolwich_3_" class="st3" points="36.0804,34.4385 35.7171,33.8092 34.9904,33.8092 34.627,34.4385 
	34.9904,35.0679 35.7171,35.0679 "/>
<polygon id="Barking_3_" class="st3" points="38.2605,34.4385 37.8972,33.8092 37.1704,33.8092 36.8071,34.4385 37.1704,35.0679 
	37.8972,35.0679 "/>
<polygon id="Hayes__Harlington_3_" class="st3" points="26.2701,35.0679 25.9068,34.4385 25.18,34.4385 24.8167,35.0679 
	25.18,35.6972 25.9068,35.6972 "/>
<polygon id="Richmond_Park_3_" class="st3" points="28.4502,35.0679 28.0868,34.4385 27.3601,34.4385 26.9968,35.0679 
	27.3601,35.6972 28.0868,35.6972 "/>
<polygon id="Chelsea__Fulham_3_" class="st3" points="30.6303,35.0679 30.2669,34.4385 29.5402,34.4385 29.1769,35.0679 
	29.5402,35.6972 30.2669,35.6972 "/>
<polygon id="Bermondsey__Old_Southwark_3_" class="st3" points="32.8103,35.0679 32.4469,34.4385 31.7203,34.4385 31.3569,35.0679 
	31.7203,35.6972 32.4469,35.6972 "/>
<polygon id="Lewisham_Deptford_3_" class="st3" points="34.9904,35.0679 34.627,34.4385 33.9003,34.4385 33.537,35.0679 
	33.9003,35.6972 34.627,35.6972 "/>
<polygon id="Old_Bexley__Sidcup_3_" class="st3" points="37.1704,35.0679 36.8071,34.4385 36.0804,34.4385 35.7171,35.0679 
	36.0804,35.6972 36.8071,35.6972 "/>
<polygon id="Hornchurch__Upminster_3_" class="st3" points="39.3505,35.0679 38.9872,34.4385 38.2605,34.4385 37.8972,35.0679 
	38.2605,35.6972 38.9872,35.6972 "/>
<polygon id="Feltham__Heston_3_" class="st3" points="27.3601,35.6972 26.9968,35.0679 26.2701,35.0679 25.9068,35.6972 
	26.2701,36.3266 26.9968,36.3266 "/>
<polygon id="Hammersmith_3_" class="st3" points="29.5402,35.6972 29.1769,35.0679 28.4502,35.0679 28.0868,35.6972 
	28.4502,36.3266 29.1769,36.3266 "/>
<polygon id="Vauxhall_3_" class="st3" points="31.7203,35.6972 31.3569,35.0679 30.6303,35.0679 30.2669,35.6972 30.6303,36.3266 
	31.3569,36.3266 "/>
<polygon id="Camberwell__Peckham_3_" class="st3" points="33.9003,35.6972 33.537,35.0679 32.8103,35.0679 32.4469,35.6972 
	32.8103,36.3266 33.537,36.3266 "/>
<polygon id="Eltham_3_" class="st3" points="36.0804,35.6972 35.7171,35.0679 34.9904,35.0679 34.627,35.6972 34.9904,36.3266 
	35.7171,36.3266 "/>
<polygon id="Dagenham__Rainham_3_" class="st3" points="38.2605,35.6972 37.8972,35.0679 37.1704,35.0679 36.8071,35.6972 
	37.1704,36.3266 37.8972,36.3266 "/>
<polygon id="Putney_3_" class="st3" points="28.4502,36.3266 28.0868,35.6972 27.3601,35.6972 26.9968,36.3266 27.3601,36.9559 
	28.0868,36.9559 "/>
<polygon id="Battersea_3_" class="st3" points="30.6303,36.3266 30.2669,35.6972 29.5402,35.6972 29.1769,36.3266 29.5402,36.9559 
	30.2669,36.9559 "/>
<polygon id="Dulwich__West_Norwood_3_" class="st3" points="32.8103,36.3266 32.4469,35.6972 31.7203,35.6972 31.3569,36.3266 
	31.7203,36.9559 32.4469,36.9559 "/>
<polygon id="Bromley__Chislehurst_3_" class="st3" points="34.9904,36.3266 34.627,35.6972 33.9003,35.6972 33.537,36.3266 
	33.9003,36.9559 34.627,36.9559 "/>
<polygon id="Erith__Thamesmead_3_" class="st3" points="37.1704,36.3266 36.8071,35.6972 36.0804,35.6972 35.7171,36.3266 
	36.0804,36.9559 36.8071,36.9559 "/>
<polygon id="Twickenham_3_" class="st3" points="27.3601,36.9559 26.9968,36.3266 26.2701,36.3266 25.9068,36.9559 26.2701,37.5852 
	26.9968,37.5852 "/>
<polygon id="Wimbledon_3_" class="st3" points="29.5402,36.9559 29.1769,36.3266 28.4502,36.3266 28.0868,36.9559 28.4502,37.5852 
	29.1769,37.5852 "/>
<polygon id="Streatham_3_" class="st3" points="31.7203,36.9559 31.3569,36.3266 30.6303,36.3266 30.2669,36.9559 30.6303,37.5852 
	31.3569,37.5852 "/>
<polygon id="Lewisham_East_3_" class="st3" points="33.9003,36.9559 33.537,36.3266 32.8103,36.3266 32.4469,36.9559 
	32.8103,37.5852 33.537,37.5852 "/>
<polygon id="Bexleyheath__Crayford_3_" class="st3" points="36.0804,36.9559 35.7171,36.3266 34.9904,36.3266 34.627,36.9559 
	34.9904,37.5852 35.7171,37.5852 "/>
<polygon id="Sutton__Cheam_3_" class="st3" points="28.4502,37.5852 28.0868,36.9559 27.3601,36.9559 26.9968,37.5852 
	27.3601,38.2146 28.0868,38.2146 "/>
<polygon id="Tooting_3_" class="st3" points="30.6303,37.5852 30.2669,36.9559 29.5402,36.9559 29.1769,37.5852 29.5402,38.2146 
	30.2669,38.2146 "/>
<polygon id="Lewisham_West__Penge_3_" class="st3" points="32.8103,37.5852 32.4469,36.9559 31.7203,36.9559 31.3569,37.5852 
	31.7203,38.2146 32.4469,38.2146 "/>
<polygon id="Orpington_3_" class="st3" points="34.9904,37.5852 34.627,36.9559 33.9003,36.9559 33.537,37.5852 33.9003,38.2146 
	34.627,38.2146 "/>
<polygon id="Kingston__Surbiton_3_" class="st3" points="27.3601,38.2146 26.9968,37.5852 26.2701,37.5852 25.9068,38.2146 
	26.2701,38.8439 26.9968,38.8439 "/>
<polygon id="Mitcham__Morden_3_" class="st3" points="29.5402,38.2146 29.1769,37.5852 28.4502,37.5852 28.0868,38.2146 
	28.4502,38.8439 29.1769,38.8439 "/>
<polygon id="Croydon_North_3_" class="st3" points="31.7203,38.2146 31.3569,37.5852 30.6303,37.5852 30.2669,38.2146 
	30.6303,38.8439 31.3569,38.8439 "/>
<polygon id="Beckenham_3_" class="st3" points="33.9003,38.2146 33.537,37.5852 32.8103,37.5852 32.4469,38.2146 32.8103,38.8439 
	33.537,38.8439 "/>
<polygon id="Carshalton__Wallington_3_" class="st3" points="30.6303,38.8439 30.2669,38.2146 29.5402,38.2146 29.1769,38.8439 
	29.5402,39.4732 30.2669,39.4732 "/>
<polygon id="Croydon_Central_3_" class="st3" points="32.8103,38.8439 32.4469,38.2146 31.7203,38.2146 31.3569,38.8439 
	31.7203,39.4732 32.4469,39.4732 "/>
<polygon id="Croydon_South_3_" class="st3" points="31.7203,39.4732 31.3569,38.8439 30.6303,38.8439 30.2669,39.4732 
	30.6303,40.1026 31.3569,40.1026 "/>
<polygon id="Milton_Keynes_North_3_" class="st3" points="25.18,30.6625 24.8167,30.0331 24.09,30.0331 23.7267,30.6625 
	24.09,31.2918 24.8167,31.2918 "/>
<polygon id="Henley_3_" class="st3" points="24.09,31.2918 23.7267,30.6625 23,30.6625 22.6367,31.2918 23,31.9211 23.7267,31.9211 
	"/>
<polygon id="Banbury_3_" class="st3" points="23,31.9211 22.6367,31.2918 21.91,31.2918 21.5466,31.9211 21.91,32.5505 
	22.6367,32.5505 "/>
<polygon id="Milton_Keynes_South_3_" class="st3" points="25.18,31.9211 24.8167,31.2918 24.09,31.2918 23.7267,31.9211 
	24.09,32.5505 24.8167,32.5505 "/>
<polygon id="Chesham__Amersham_3_" class="st3" points="24.09,32.5505 23.7267,31.9211 23,31.9211 22.6367,32.5505 23,33.1798 
	23.7267,33.1798 "/>
<polygon id="Buckingham_3_" class="st3" points="26.2701,32.5505 25.9068,31.9211 25.18,31.9211 24.8167,32.5505 25.18,33.1798 
	25.9068,33.1798 "/>
<polygon id="Witney_3_" class="st3" points="23,33.1798 22.6367,32.5505 21.91,32.5505 21.5466,33.1798 21.91,33.8092 
	22.6367,33.8092 "/>
<polygon id="Beaconsfield_3_" class="st3" points="25.18,33.1798 24.8167,32.5505 24.09,32.5505 23.7267,33.1798 24.09,33.8092 
	24.8167,33.8092 "/>
<polygon id="Wycombe_3_" class="st3" points="24.09,33.8092 23.7267,33.1798 23,33.1798 22.6367,33.8092 23,34.4385 
	23.7267,34.4385 "/>
<polygon id="Aylesbury_3_" class="st3" points="23,34.4385 22.6367,33.8092 21.91,33.8092 21.5466,34.4385 21.91,35.0679 
	22.6367,35.0679 "/>
<polygon id="Slough_3_" class="st3" points="25.18,34.4385 24.8167,33.8092 24.09,33.8092 23.7267,34.4385 24.09,35.0679 
	24.8167,35.0679 "/>
<polygon id="Oxford_East_3_" class="st3" points="24.09,35.0679 23.7267,34.4385 23,34.4385 22.6367,35.0679 23,35.6972 
	23.7267,35.6972 "/>
<polygon id="Oxford_West__Abingdon_3_" class="st3" points="23,35.6972 22.6367,35.0679 21.91,35.0679 21.5466,35.6972 
	21.91,36.3266 22.6367,36.3266 "/>
<polygon id="Runnymede__Weybridge_3_" class="st3" points="25.18,35.6972 24.8167,35.0679 24.09,35.0679 23.7267,35.6972 
	24.09,36.3266 24.8167,36.3266 "/>
<polygon id="Rochester__Strood_3_" class="st3" points="40.4406,35.6972 40.0772,35.0679 39.3505,35.0679 38.9872,35.6972 
	39.3505,36.3266 40.0772,36.3266 "/>
<polygon id="Wantage_3_" class="st3" points="21.91,36.3266 21.5466,35.6972 20.8199,35.6972 20.4566,36.3266 20.8199,36.9559 
	21.5466,36.9559 "/>
<polygon id="Maidenhead_3_" class="st3" points="24.09,36.3266 23.7267,35.6972 23,35.6972 22.6367,36.3266 23,36.9559 
	23.7267,36.9559 "/>
<polygon id="Windsor_3_" class="st3" points="26.2701,36.3266 25.9068,35.6972 25.18,35.6972 24.8167,36.3266 25.18,36.9559 
	25.9068,36.9559 "/>
<polygon id="Gravesham_3_" class="st3" points="39.3505,36.3266 38.9872,35.6972 38.2605,35.6972 37.8972,36.3266 38.2605,36.9559 
	38.9872,36.9559 "/>
<polygon id="Sittingbourne__Sheppey_3_" class="st3" points="41.5306,36.3266 41.1672,35.6972 40.4406,35.6972 40.0772,36.3266 
	40.4406,36.9559 41.1672,36.9559 "/>
<polygon id="Reading_East_3_" class="st3" points="23,36.9559 22.6367,36.3266 21.91,36.3266 21.5466,36.9559 21.91,37.5852 
	22.6367,37.5852 "/>
<polygon id="Spelthorne_3_" class="st3" points="25.18,36.9559 24.8167,36.3266 24.09,36.3266 23.7267,36.9559 24.09,37.5852 
	24.8167,37.5852 "/>
<polygon id="Dartford_3_" class="st3" points="38.2605,36.9559 37.8972,36.3266 37.1704,36.3266 36.8071,36.9559 37.1704,37.5852 
	37.8972,37.5852 "/>
<polygon id="Chatham__Aylesford_3_" class="st3" points="40.4406,36.9559 40.0772,36.3266 39.3505,36.3266 38.9872,36.9559 
	39.3505,37.5852 40.0772,37.5852 "/>
<polygon id="Canterbury_3_" class="st3" points="42.6206,36.9559 42.2573,36.3266 41.5306,36.3266 41.1672,36.9559 41.5306,37.5852 
	42.2573,37.5852 "/>
<polygon id="Newbury_3_" class="st3" points="21.91,37.5852 21.5466,36.9559 20.8199,36.9559 20.4566,37.5852 20.8199,38.2146 
	21.5466,38.2146 "/>
<polygon id="Bracknell_3_" class="st3" points="24.09,37.5852 23.7267,36.9559 23,36.9559 22.6367,37.5852 23,38.2146 
	23.7267,38.2146 "/>
<polygon id="Esher__Walton_3_" class="st3" points="26.2701,37.5852 25.9068,36.9559 25.18,36.9559 24.8167,37.5852 25.18,38.2146 
	25.9068,38.2146 "/>
<polygon id="Tonbridge__Malling_3_" class="st3" points="37.1704,37.5852 36.8071,36.9559 36.0804,36.9559 35.7171,37.5852 
	36.0804,38.2146 36.8071,38.2146 "/>
<polygon id="Maidstone__The_Weald_3_" class="st3" points="39.3505,37.5852 38.9872,36.9559 38.2605,36.9559 37.8972,37.5852 
	38.2605,38.2146 38.9872,38.2146 "/>
<polygon id="Gillingham__Rainham_3_" class="st3" points="41.5306,37.5852 41.1672,36.9559 40.4406,36.9559 40.0772,37.5852 
	40.4406,38.2146 41.1672,38.2146 "/>
<polygon id="Thanet_North_3_" class="st3" points="43.7107,37.5852 43.3473,36.9559 42.6206,36.9559 42.2573,37.5852 
	42.6206,38.2146 43.3473,38.2146 "/>
<polygon id="Reading_West_3_" class="st3" points="23,38.2146 22.6367,37.5852 21.91,37.5852 21.5466,38.2146 21.91,38.8439 
	22.6367,38.8439 "/>
<polygon id="Surrey_Heath_3_" class="st3" points="25.18,38.2146 24.8167,37.5852 24.09,37.5852 23.7267,38.2146 24.09,38.8439 
	24.8167,38.8439 "/>
<polygon id="Sevenoaks_3_" class="st3" points="36.0804,38.2146 35.7171,37.5852 34.9904,37.5852 34.627,38.2146 34.9904,38.8439 
	35.7171,38.8439 "/>
<polygon id="Tunbridge_Wells_3_" class="st3" points="38.2605,38.2146 37.8972,37.5852 37.1704,37.5852 36.8071,38.2146 
	37.1704,38.8439 37.8972,38.8439 "/>
<polygon id="Faversham__Mid_Kent_3_" class="st3" points="40.4406,38.2146 40.0772,37.5852 39.3505,37.5852 38.9872,38.2146 
	39.3505,38.8439 40.0772,38.8439 "/>
<polygon id="Thanet_South_3_" class="st3" points="42.6206,38.2146 42.2573,37.5852 41.5306,37.5852 41.1672,38.2146 
	41.5306,38.8439 42.2573,38.8439 "/>
<polygon id="Hampshire_North_West_3_" class="st3" points="21.91,38.8439 21.5466,38.2146 20.8199,38.2146 20.4566,38.8439 
	20.8199,39.4732 21.5466,39.4732 "/>
<polygon id="Hampshire_North_East_3_" class="st3" points="24.09,38.8439 23.7267,38.2146 23,38.2146 22.6367,38.8439 23,39.4732 
	23.7267,39.4732 "/>
<polygon id="Mole_Valley_3_" class="st3" points="26.2701,38.8439 25.9068,38.2146 25.18,38.2146 24.8167,38.8439 25.18,39.4732 
	25.9068,39.4732 "/>
<polygon id="Epsom__Ewell_3_" class="st3" points="28.4502,38.8439 28.0868,38.2146 27.3601,38.2146 26.9968,38.8439 
	27.3601,39.4732 28.0868,39.4732 "/>
<polygon id="Surrey_East_3_" class="st3" points="34.9904,38.8439 34.627,38.2146 33.9003,38.2146 33.537,38.8439 33.9003,39.4732 
	34.627,39.4732 "/>
<polygon id="Wealden_3_" class="st3" points="37.1704,38.8439 36.8071,38.2146 36.0804,38.2146 35.7171,38.8439 36.0804,39.4732 
	36.8071,39.4732 "/>
<polygon id="Ashford_3_" class="st3" points="39.3505,38.8439 38.9872,38.2146 38.2605,38.2146 37.8972,38.8439 38.2605,39.4732 
	38.9872,39.4732 "/>
<polygon id="Dover_3_" class="st3" points="41.5306,38.8439 41.1672,38.2146 40.4406,38.2146 40.0772,38.8439 40.4406,39.4732 
	41.1672,39.4732 "/>
<polygon id="Wokingham_3_" class="st3" points="23,39.4732 22.6367,38.8439 21.91,38.8439 21.5466,39.4732 21.91,40.1026 
	22.6367,40.1026 "/>
<polygon id="Woking_3_" class="st3" points="25.18,39.4732 24.8167,38.8439 24.09,38.8439 23.7267,39.4732 24.09,40.1026 
	24.8167,40.1026 "/>
<polygon id="Guildford_3_" class="st3" points="27.3601,39.4732 26.9968,38.8439 26.2701,38.8439 25.9068,39.4732 26.2701,40.1026 
	26.9968,40.1026 "/>
<polygon id="Reigate_3_" class="st3" points="29.5402,39.4732 29.1769,38.8439 28.4502,38.8439 28.0868,39.4732 28.4502,40.1026 
	29.1769,40.1026 "/>
<polygon id="Horsham_3_" class="st3" points="33.9003,39.4732 33.537,38.8439 32.8103,38.8439 32.4469,39.4732 32.8103,40.1026 
	33.537,40.1026 "/>
<polygon id="Sussex_Mid_3_" class="st3" points="36.0804,39.4732 35.7171,38.8439 34.9904,38.8439 34.627,39.4732 34.9904,40.1026 
	35.7171,40.1026 "/>
<polygon id="Bexhill__Battle_3_" class="st3" points="38.2605,39.4732 37.8972,38.8439 37.1704,38.8439 36.8071,39.4732 
	37.1704,40.1026 37.8972,40.1026 "/>
<polygon id="Folkestone__Hythe_3_" class="st3" points="40.4406,39.4732 40.0772,38.8439 39.3505,38.8439 38.9872,39.4732 
	39.3505,40.1026 40.0772,40.1026 "/>
<polygon id="Romsey__Southampton_North_3_" class="st3" points="21.91,40.1026 21.5466,39.4732 20.8199,39.4732 20.4566,40.1026 
	20.8199,40.7319 21.5466,40.7319 "/>
<polygon id="Aldershot_3_" class="st3" points="24.09,40.1026 23.7267,39.4732 23,39.4732 22.6367,40.1026 23,40.7319 
	23.7267,40.7319 "/>
<polygon id="Surrey_South_West_3_" class="st3" points="26.2701,40.1026 25.9068,39.4732 25.18,39.4732 24.8167,40.1026 
	25.18,40.7319 25.9068,40.7319 "/>
<polygon id="Hampshire_East_3_" class="st3" points="28.4502,40.1026 28.0868,39.4732 27.3601,39.4732 26.9968,40.1026 
	27.3601,40.7319 28.0868,40.7319 "/>
<polygon id="Crawley_3_" class="st3" points="30.6303,40.1026 30.2669,39.4732 29.5402,39.4732 29.1769,40.1026 29.5402,40.7319 
	30.2669,40.7319 "/>
<polygon id="Arundel__South_Downs_3_" class="st3" points="32.8103,40.1026 32.4469,39.4732 31.7203,39.4732 31.3569,40.1026 
	31.7203,40.7319 32.4469,40.7319 "/>
<polygon id="Brighton_Pavilion_3_" class="st3" points="34.9904,40.1026 34.627,39.4732 33.9003,39.4732 33.537,40.1026 
	33.9003,40.7319 34.627,40.7319 "/>
<polygon id="Lewes_3_" class="st3" points="37.1704,40.1026 36.8071,39.4732 36.0804,39.4732 35.7171,40.1026 36.0804,40.7319 
	36.8071,40.7319 "/>
<polygon id="Hastings__Rye_3_" class="st3" points="39.3505,40.1026 38.9872,39.4732 38.2605,39.4732 37.8972,40.1026 
	38.2605,40.7319 38.9872,40.7319 "/>
<polygon id="Basingstoke_3_" class="st3" points="23,40.7319 22.6367,40.1026 21.91,40.1026 21.5466,40.7319 21.91,41.3612 
	22.6367,41.3612 "/>
<polygon id="Winchester_3_" class="st3" points="25.18,40.7319 24.8167,40.1026 24.09,40.1026 23.7267,40.7319 24.09,41.3612 
	24.8167,41.3612 "/>
<polygon id="Portsmouth_North_3_" class="st3" points="27.3601,40.7319 26.9968,40.1026 26.2701,40.1026 25.9068,40.7319 
	26.2701,41.3612 26.9968,41.3612 "/>
<polygon id="Havant_3_" class="st3" points="29.5402,40.7319 29.1769,40.1026 28.4502,40.1026 28.0868,40.7319 28.4502,41.3612 
	29.1769,41.3612 "/>
<polygon id="Bognor_Regis__Littlehampton_3_" class="st3" points="31.7203,40.7319 31.3569,40.1026 30.6303,40.1026 
	30.2669,40.7319 30.6303,41.3612 31.3569,41.3612 "/>
<polygon id="Worthing_East__Shoreham_3_" class="st3" points="33.9003,40.7319 33.537,40.1026 32.8103,40.1026 32.4469,40.7319 
	32.8103,41.3612 33.537,41.3612 "/>
<polygon id="Brighton_Kemptown_3_" class="st3" points="36.0804,40.7319 35.7171,40.1026 34.9904,40.1026 34.627,40.7319 
	34.9904,41.3612 35.7171,41.3612 "/>
<polygon id="Eastbourne_3_" class="st3" points="38.2605,40.7319 37.8972,40.1026 37.1704,40.1026 36.8071,40.7319 37.1704,41.3612 
	37.8972,41.3612 "/>
<polygon id="New_Forest_East_3_" class="st3" points="21.91,41.3612 21.5466,40.7319 20.8199,40.7319 20.4566,41.3612 
	20.8199,41.9906 21.5466,41.9906 "/>
<polygon id="Southampton_Itchen_3_" class="st3" points="24.09,41.3612 23.7267,40.7319 23,40.7319 22.6367,41.3612 23,41.9906 
	23.7267,41.9906 "/>
<polygon id="Meon_Valley_3_" class="st3" points="26.2701,41.3612 25.9068,40.7319 25.18,40.7319 24.8167,41.3612 25.18,41.9906 
	25.9068,41.9906 "/>
<polygon id="Portsmouth_South_3_" class="st3" points="28.4502,41.3612 28.0868,40.7319 27.3601,40.7319 26.9968,41.3612 
	27.3601,41.9906 28.0868,41.9906 "/>
<polygon id="Chichester_3_" class="st3" points="30.6303,41.3612 30.2669,40.7319 29.5402,40.7319 29.1769,41.3612 29.5402,41.9906 
	30.2669,41.9906 "/>
<polygon id="Worthing_West_3_" class="st3" points="32.8103,41.3612 32.4469,40.7319 31.7203,40.7319 31.3569,41.3612 
	31.7203,41.9906 32.4469,41.9906 "/>
<polygon id="Hove_3_" class="st3" points="34.9904,41.3612 34.627,40.7319 33.9003,40.7319 33.537,41.3612 33.9003,41.9906 
	34.627,41.9906 "/>
<polygon id="Southampton_Test_3_" class="st3" points="23,41.9906 22.6367,41.3612 21.91,41.3612 21.5466,41.9906 21.91,42.62 
	22.6367,42.62 "/>
<polygon id="Eastleigh_3_" class="st3" points="25.18,41.9906 24.8167,41.3612 24.09,41.3612 23.7267,41.9906 24.09,42.62 
	24.8167,42.62 "/>
<polygon id="Gosport_3_" class="st3" points="27.3601,41.9906 26.9968,41.3612 26.2701,41.3612 25.9068,41.9906 26.2701,42.62 
	26.9968,42.62 "/>
<polygon id="New_Forest_West_3_" class="st3" points="21.91,42.62 21.5466,41.9906 20.8199,41.9906 20.4566,42.62 20.8199,43.2493 
	21.5466,43.2493 "/>
<polygon id="Fareham_3_" class="st3" points="26.2701,42.62 25.9068,41.9906 25.18,41.9906 24.8167,42.62 25.18,43.2493 
	25.9068,43.2493 "/>
<polygon id="Isle_Of_Wight_3_" class="st3" points="24.09,43.8787 23.7267,43.2493 23,43.2493 22.6367,43.8787 23,44.508 
	23.7267,44.508 "/>
<polygon id="Cheltenham_3_" class="st2" points="21.91,32.5505 21.5466,31.9211 20.8199,31.9211 20.4566,32.5505 20.8199,33.1798 
	21.5466,33.1798 "/>
<polygon id="Tewkesbury_3_" class="st2" points="20.8199,33.1798 20.4566,32.5505 19.7299,32.5505 19.3665,33.1798 19.7299,33.8092 
	20.4566,33.8092 "/>
<polygon id="Forest_Of_Dean_3_" class="st2" points="19.7299,33.8092 19.3665,33.1798 18.6399,33.1798 18.2765,33.8092 
	18.6399,34.4385 19.3665,34.4385 "/>
<polygon id="Cotswolds_The_3_" class="st2" points="21.91,33.8092 21.5466,33.1798 20.8199,33.1798 20.4566,33.8092 
	20.8199,34.4385 21.5466,34.4385 "/>
<polygon id="Gloucester_3_" class="st2" points="20.8199,34.4385 20.4566,33.8092 19.7299,33.8092 19.3665,34.4385 19.7299,35.0679 
	20.4566,35.0679 "/>
<polygon id="Thornbury__Yate_3_" class="st2" points="19.7299,35.0679 19.3665,34.4385 18.6399,34.4385 18.2765,35.0679 
	18.6399,35.6972 19.3665,35.6972 "/>
<polygon id="Swindon_North_3_" class="st2" points="21.91,35.0679 21.5466,34.4385 20.8199,34.4385 20.4566,35.0679 
	20.8199,35.6972 21.5466,35.6972 "/>
<polygon id="Filton__Bradley_Stoke_3_" class="st2" points="18.6399,35.6972 18.2765,35.0679 17.5499,35.0679 17.1865,35.6972 
	17.5499,36.3266 18.2765,36.3266 "/>
<polygon id="Stroud_3_" class="st2" points="20.8199,35.6972 20.4566,35.0679 19.7299,35.0679 19.3665,35.6972 19.7299,36.3266 
	20.4566,36.3266 "/>
<polygon id="Kingswood_3_" class="st2" points="19.7299,36.3266 19.3665,35.6972 18.6399,35.6972 18.2765,36.3266 18.6399,36.9559 
	19.3665,36.9559 "/>
<polygon id="Bristol_East_3_" class="st2" points="18.6399,36.9559 18.2765,36.3266 17.5499,36.3266 17.1865,36.9559 
	17.5499,37.5852 18.2765,37.5852 "/>
<polygon id="Swindon_South_3_" class="st2" points="20.8199,36.9559 20.4566,36.3266 19.7299,36.3266 19.3665,36.9559 
	19.7299,37.5852 20.4566,37.5852 "/>
<polygon id="Bristol_North_West_3_" class="st2" points="17.5499,37.5852 17.1865,36.9559 16.4598,36.9559 16.0965,37.5852 
	16.4598,38.2146 17.1865,38.2146 "/>
<polygon id="Bath_3_" class="st2" points="19.7299,37.5852 19.3665,36.9559 18.6399,36.9559 18.2765,37.5852 18.6399,38.2146 
	19.3665,38.2146 "/>
<polygon id="Somerset_North_3_" class="st2" points="16.4598,38.2146 16.0965,37.5852 15.3698,37.5852 15.0064,38.2146 
	15.3698,38.8439 16.0965,38.8439 "/>
<polygon id="Bristol_West_3_" class="st2" points="18.6399,38.2146 18.2765,37.5852 17.5499,37.5852 17.1865,38.2146 
	17.5499,38.8439 18.2765,38.8439 "/>
<polygon id="Wiltshire_North_3_" class="st2" points="20.8199,38.2146 20.4566,37.5852 19.7299,37.5852 19.3665,38.2146 
	19.7299,38.8439 20.4566,38.8439 "/>
<polygon id="Bristol_South_3_" class="st2" points="17.5499,38.8439 17.1865,38.2146 16.4598,38.2146 16.0965,38.8439 
	16.4598,39.4732 17.1865,39.4732 "/>
<polygon id="Chippenham_3_" class="st2" points="19.7299,38.8439 19.3665,38.2146 18.6399,38.2146 18.2765,38.8439 18.6399,39.4732 
	19.3665,39.4732 "/>
<polygon id="Weston-Super-Mare_3_" class="st2" points="16.4598,39.4732 16.0965,38.8439 15.3698,38.8439 15.0064,39.4732 
	15.3698,40.1026 16.0965,40.1026 "/>
<polygon id="Somerset_North_East_3_" class="st2" points="18.6399,39.4732 18.2765,38.8439 17.5499,38.8439 17.1865,39.4732 
	17.5499,40.1026 18.2765,40.1026 "/>
<polygon id="Devizes_3_" class="st2" points="20.8199,39.4732 20.4566,38.8439 19.7299,38.8439 19.3665,39.4732 19.7299,40.1026 
	20.4566,40.1026 "/>
<polygon id="Wells_3_" class="st2" points="15.3698,40.1026 15.0064,39.4732 14.2797,39.4732 13.9164,40.1026 14.2797,40.7319 
	15.0064,40.7319 "/>
<polygon id="Wiltshire_South_West_3_" class="st2" points="17.5499,40.1026 17.1865,39.4732 16.4598,39.4732 16.0965,40.1026 
	16.4598,40.7319 17.1865,40.7319 "/>
<polygon id="Bournemouth_West_3_" class="st2" points="19.7299,40.1026 19.3665,39.4732 18.6399,39.4732 18.2765,40.1026 
	18.6399,40.7319 19.3665,40.7319 "/>
<polygon id="Bridgwater__West_Somerset_3_" class="st2" points="14.2797,40.7319 13.9164,40.1026 13.1897,40.1026 12.8264,40.7319 
	13.1897,41.3612 13.9164,41.3612 "/>
<polygon id="Somerton__Frome_3_" class="st2" points="16.4598,40.7319 16.0965,40.1026 15.3698,40.1026 15.0064,40.7319 
	15.3698,41.3612 16.0965,41.3612 "/>
<polygon id="Dorset_North_3_" class="st2" points="18.6399,40.7319 18.2765,40.1026 17.5499,40.1026 17.1865,40.7319 
	17.5499,41.3612 18.2765,41.3612 "/>
<polygon id="Salisbury_3_" class="st2" points="20.8199,40.7319 20.4566,40.1026 19.7299,40.1026 19.3665,40.7319 19.7299,41.3612 
	20.4566,41.3612 "/>
<polygon id="Devon_North_3_" class="st2" points="13.1897,41.3612 12.8264,40.7319 12.0996,40.7319 11.7363,41.3612 
	12.0996,41.9906 12.8264,41.9906 "/>
<polygon id="Yeovil_3_" class="st2" points="15.3698,41.3612 15.0064,40.7319 14.2797,40.7319 13.9164,41.3612 14.2797,41.9906 
	15.0064,41.9906 "/>
<polygon id="Dorset_Mid__Poole_North_3_" class="st2" points="17.5499,41.3612 17.1865,40.7319 16.4598,40.7319 16.0965,41.3612 
	16.4598,41.9906 17.1865,41.9906 "/>
<polygon id="Bournemouth_East_3_" class="st2" points="19.7299,41.3612 19.3665,40.7319 18.6399,40.7319 18.2765,41.3612 
	18.6399,41.9906 19.3665,41.9906 "/>
<polygon id="Taunton_Deane_3_" class="st2" points="14.2797,41.9906 13.9164,41.3612 13.1897,41.3612 12.8264,41.9906 
	13.1897,42.62 13.9164,42.62 "/>
<polygon id="Tiverton__Honiton_3_" class="st2" points="16.4598,41.9906 16.0965,41.3612 15.3698,41.3612 15.0064,41.9906 
	15.3698,42.62 16.0965,42.62 "/>
<polygon id="Poole_3_" class="st2" points="18.6399,41.9906 18.2765,41.3612 17.5499,41.3612 17.1865,41.9906 17.5499,42.62 
	18.2765,42.62 "/>
<polygon id="Christchurch_3_" class="st2" points="20.8199,41.9906 20.4566,41.3612 19.7299,41.3612 19.3665,41.9906 19.7299,42.62 
	20.4566,42.62 "/>
<polygon id="Devon_Central_3_" class="st2" points="13.1897,42.62 12.8264,41.9906 12.0996,41.9906 11.7363,42.62 12.0996,43.2493 
	12.8264,43.2493 "/>
<polygon id="Devon_East_3_" class="st2" points="15.3698,42.62 15.0064,41.9906 14.2797,41.9906 13.9164,42.62 14.2797,43.2493 
	15.0064,43.2493 "/>
<polygon id="Dorset_West_3_" class="st2" points="17.5499,42.62 17.1865,41.9906 16.4598,41.9906 16.0965,42.62 16.4598,43.2493 
	17.1865,43.2493 "/>
<polygon id="Devon_West__Torridge_3_" class="st2" points="12.0996,43.2493 11.7363,42.62 11.0096,42.62 10.6463,43.2493 
	11.0096,43.8787 11.7363,43.8787 "/>
<polygon id="Exeter_3_" class="st2" points="14.2797,43.2493 13.9164,42.62 13.1897,42.62 12.8264,43.2493 13.1897,43.8787 
	13.9164,43.8787 "/>
<polygon id="Dorset_South_3_" class="st2" points="18.6399,43.2493 18.2765,42.62 17.5499,42.62 17.1865,43.2493 17.5499,43.8787 
	18.2765,43.8787 "/>
<polygon id="Cornwall_North_3_" class="st2" points="11.0096,43.8787 10.6463,43.2493 9.9196,43.2493 9.5562,43.8787 9.9196,44.508 
	10.6463,44.508 "/>
<polygon id="Plymouth_Moor_View_3_" class="st2" points="13.1897,43.8787 12.8264,43.2493 12.0996,43.2493 11.7363,43.8787 
	12.0996,44.508 12.8264,44.508 "/>
<polygon id="Newton_Abbot_3_" class="st2" points="15.3698,43.8787 15.0064,43.2493 14.2797,43.2493 13.9164,43.8787 
	14.2797,44.508 15.0064,44.508 "/>
<polygon id="St_Austell__Newquay_3_" class="st2" points="9.9196,44.508 9.5562,43.8787 8.8296,43.8787 8.4662,44.508 
	8.8296,45.1374 9.5562,45.1374 "/>
<polygon id="Plymouth_Sutton__Devonport_3_" class="st2" points="12.0996,44.508 11.7363,43.8787 11.0096,43.8787 10.6463,44.508 
	11.0096,45.1374 11.7363,45.1374 "/>
<polygon id="Torbay_3_" class="st2" points="14.2797,44.508 13.9164,43.8787 13.1897,43.8787 12.8264,44.508 13.1897,45.1374 
	13.9164,45.1374 "/>
<polygon id="Camborne__Redruth_3_" class="st2" points="8.8296,45.1374 8.4662,44.508 7.7395,44.508 7.3762,45.1374 7.7395,45.7667 
	8.4662,45.7667 "/>
<polygon id="Cornwall_South_East_3_" class="st2" points="11.0096,45.1374 10.6463,44.508 9.9196,44.508 9.5562,45.1374 
	9.9196,45.7667 10.6463,45.7667 "/>
<polygon id="Devon_South_West_3_" class="st2" points="13.1897,45.1374 12.8264,44.508 12.0996,44.508 11.7363,45.1374 
	12.0996,45.7667 12.8264,45.7667 "/>
<polygon id="St_Ives_3_" class="st2" points="7.7395,45.7667 7.3762,45.1374 6.6495,45.1374 6.2861,45.7667 6.6495,46.396 
	7.3762,46.396 "/>
<polygon id="Truro__Falmouth_3_" class="st2" points="9.9196,45.7667 9.5562,45.1374 8.8296,45.1374 8.4662,45.7667 8.8296,46.396 
	9.5562,46.396 "/>
<polygon id="Totnes_3_" class="st2" points="14.2797,45.7667 13.9164,45.1374 13.1897,45.1374 12.8264,45.7667 13.1897,46.396 
	13.9164,46.396 "/>
</svg>
