<?xml version="1.0" encoding="utf-8"?>
<!-- Generator: Adobe Illustrator 24.1.2, SVG Export Plug-In . SVG Version: 6.00 Build 0)  -->
<svg version="1.1" id="Layer_1" xmlns="http://www.w3.org/2000/svg" xmlns:xlink="http://www.w3.org/1999/xlink" x="0px" y="0px"
	 viewBox="0 0 50 50" style="enable-background:new 0 0 50 50;" xml:space="preserve">
<style type="text/css">
	.st0{fill:#FFFFFF;fill-opacity:0;}
	.st1{fill:none;stroke:#4E79A8;stroke-width:1.4346;stroke-miterlimit:10;}
	.st2{fill:none;stroke:#B6C9DD;stroke-width:4.3039;stroke-miterlimit:10;}
	.st3{fill:#4E79A8;}
</style>
<rect class="st0" width="50" height="50"/>
<path class="st1" d="M45.2614,25.479c-11.1909,0-20.263-9.072-20.263-20.263"/>
<path class="st1" d="M25.4789,4.7354c0,11.1909-9.072,20.263-20.2629,20.263"/>
<path class="st1" d="M24.9984,5.216c0,13.0426-5.067,24.9016-13.3399,33.7161"/>
<path class="st1" d="M24.9984,5.216c0,4.5872-3.7187,8.3059-8.3059,8.3059c-2.2936,0-4.3701-0.9297-5.8731-2.4327"/>
<path class="st1" d="M38.9866,39.6663c-7.9132-7.9132-7.9132-20.743,0-28.6561"/>
<path class="st1" d="M11.0101,11.0101c9.2225,9.2224,14.0252,21.191,14.4082,33.2736"/>
<path class="st1" d="M24.9984,44.7808c0-4.5872,3.7187-8.3059,8.3059-8.3059c2.2936,0,4.3701,0.9297,5.8732,2.4327"/>
<circle class="st2" cx="24.9984" cy="24.9984" r="19.7824"/>
<circle class="st3" cx="24.9984" cy="5.216" r="1.4684"/>
<circle class="st3" cx="11.0101" cy="11.0101" r="1.4684"/>
<path class="st3" d="M5.216,23.53c0.811,0,1.4684,0.6574,1.4684,1.4684S6.027,26.4668,5.216,26.4668
	c-0.811,0-1.4684-0.6574-1.4684-1.4684S4.405,23.53,5.216,23.53z"/>
<path class="st3" d="M9.9718,37.9483c0.5734-0.5735,1.5032-0.5735,2.0766,0c0.5735,0.5735,0.5735,1.5032,0,2.0766
	c-0.5734,0.5735-1.5032,0.5735-2.0766,0C9.3983,39.4515,9.3983,38.5218,9.9718,37.9483z"/>
<circle class="st3" cx="24.9984" cy="44.7808" r="1.4684"/>
<path class="st3" d="M37.9483,40.0249c-0.5734-0.5734-0.5734-1.5031,0-2.0766c0.5735-0.5735,1.5032-0.5735,2.0767,0
	c0.5734,0.5735,0.5734,1.5032,0,2.0766C39.4515,40.5984,38.5218,40.5984,37.9483,40.0249z"/>
<circle class="st3" cx="44.7808" cy="24.9984" r="1.4684"/>
<circle class="st3" cx="38.9866" cy="11.0101" r="1.4684"/>
</svg>
