<?xml version="1.0" encoding="utf-8"?>
<!-- Generator: Adobe Illustrator 24.1.2, SVG Export Plug-In . SVG Version: 6.00 Build 0)  -->
<svg version="1.1" id="Layer_1" xmlns="http://www.w3.org/2000/svg" xmlns:xlink="http://www.w3.org/1999/xlink" x="0px" y="0px"
	 viewBox="0 0 50 50" style="enable-background:new 0 0 50 50;" xml:space="preserve">
<style type="text/css">
	.st0{fill:#FFFFFF;fill-opacity:0;}
	.st1{fill:#28903B;}
</style>
<rect class="st0" width="50" height="50"/>
<circle class="st1" cx="9" cy="7.3" r="1.8"/>
<circle class="st1" cx="40.9" cy="7.3" r="1.8"/>
<circle class="st1" cx="14.3" cy="7.3" r="2.7"/>
<circle class="st1" cx="26" cy="7.3" r="1.8"/>
<circle class="st1" cx="31.3" cy="7.3" r="1.3"/>
<circle class="st1" cx="18.6" cy="7.3" r="1.3"/>
<circle class="st1" cx="40.9" cy="42.7" r="1.8"/>
<circle class="st1" cx="14.3" cy="42.7" r="1.4"/>
<circle class="st1" cx="24" cy="42.7" r="2.2"/>
<circle class="st1" cx="31.3" cy="42.7" r="1.3"/>
<circle class="st1" cx="18.6" cy="42.7" r="1.8"/>
<circle class="st1" cx="35.6" cy="42.7" r="2.7"/>
<circle class="st1" cx="9" cy="30.9" r="1.4"/>
<circle class="st1" cx="26" cy="30.9" r="1.8"/>
<circle class="st1" cx="29.3" cy="30.9" r="1.3"/>
<circle class="st1" cx="20.6" cy="30.9" r="2.9"/>
<circle class="st1" cx="35.6" cy="30.9" r="1.8"/>
<circle class="st1" cx="9" cy="19.1" r="2.7"/>
<circle class="st1" cx="38.9" cy="19.1" r="1.3"/>
<circle class="st1" cx="15.3" cy="19.1" r="1.4"/>
<circle class="st1" cx="25" cy="19.1" r="1.3"/>
<circle class="st1" cx="30.3" cy="19.1" r="1.8"/>
<circle class="st1" cx="19.6" cy="19.1" r="2.2"/>
<circle class="st1" cx="33.6" cy="19.1" r="1.3"/>
</svg>
