<?xml version="1.0" encoding="utf-8"?>
<!-- Generator: Adobe Illustrator 24.1.2, SVG Export Plug-In . SVG Version: 6.00 Build 0)  -->
<svg version="1.1" id="Layer_1" xmlns="http://www.w3.org/2000/svg" xmlns:xlink="http://www.w3.org/1999/xlink" x="0px" y="0px"
	 viewBox="0 0 50 50" style="enable-background:new 0 0 50 50;" xml:space="preserve">
<style type="text/css">
	.st0{fill:#FFFFFF;fill-opacity:0;}
	.st1{fill:#C7AB89;}
	.st2{fill:none;stroke:#977347;stroke-width:2;stroke-miterlimit:10;}
</style>
<rect class="st0" width="50" height="50"/>
<polygon class="st1" points="3.9,28.7 7.4,28.7 11,28.7 11,35.8 11,42.9 7.4,42.9 3.9,42.9 3.9,35.8 "/>
<polygon class="st1" points="15.7,14.5 19.2,14.5 22.8,14.5 22.8,28.6 22.8,42.8 19.2,42.8 15.7,42.8 15.7,28.6 "/>
<polygon class="st1" points="27.5,21.6 31,21.6 34.6,21.6 34.6,32.2 34.6,42.9 31,42.9 27.5,42.9 27.5,32.2 "/>
<polygon class="st1" points="39.3,7.4 42.8,7.4 46.4,7.4 46.4,25.1 46.4,42.8 42.8,42.8 39.3,42.8 39.3,25.1 "/>
<polyline class="st2" points="7.4,21.6 19.2,35.8 31,28.6 42.8,35.8 "/>
</svg>
