<?xml version="1.0" encoding="utf-8"?>
<!-- Generator: Adobe Illustrator 24.1.0, SVG Export Plug-In . SVG Version: 6.00 Build 0)  -->
<svg version="1.1" id="Layer_1" xmlns="http://www.w3.org/2000/svg" xmlns:xlink="http://www.w3.org/1999/xlink" x="0px" y="0px"
	 viewBox="0 0 50 50" style="enable-background:new 0 0 50 50;" xml:space="preserve">
<style type="text/css">
	.st0{fill:#FFFFFF;fill-opacity:0;}
	.st1{fill:#939598;stroke:#FFFFFF;stroke-width:0.75;stroke-miterlimit:10;}
	.st2{fill:#D1D3D4;stroke:#FFFFFF;stroke-width:0.75;stroke-miterlimit:10;}
</style>
<rect class="st0" width="50" height="50"/>
<path class="st1" d="M37.6,12.4C34.3,9.2,29.9,7.2,25,7.2v8.9c4.9,0,8.9,4,8.9,8.9c0,4.9-4,8.9-8.9,8.9c-2.5,0-4.7-1-6.3-2.6
	l-6.3,6.3c3.2,3.2,7.6,5.2,12.6,5.2c4.9,0,9.3-2,12.6-5.2c3.2-3.2,5.2-7.6,5.2-12.6C42.7,20.1,40.8,15.7,37.6,12.4z"/>
<path class="st2" d="M16.1,25c0-4.9,4-8.9,8.9-8.9l0,0l0-8.9c-4.9,0-9.3,2-12.6,5.2C9.2,15.7,7.3,20.1,7.3,25c0,4.9,2,9.3,5.2,12.6
	l6.3-6.3C17.1,29.7,16.1,27.5,16.1,25z"/>
</svg>
