<?xml version="1.0" encoding="utf-8"?>
<!-- Generator: Adobe Illustrator 24.1.2, SVG Export Plug-In . SVG Version: 6.00 Build 0)  -->
<svg version="1.1" id="Layer_1" xmlns="http://www.w3.org/2000/svg" xmlns:xlink="http://www.w3.org/1999/xlink" x="0px" y="0px"
	 viewBox="0 0 50 50" style="enable-background:new 0 0 50 50;" xml:space="preserve">
<style type="text/css">
	.st0{fill:#FFFFFF;fill-opacity:0;}
	.st1{fill:#008EB0;}
</style>
<rect class="st0" width="50" height="50"/>
<circle class="st1" cx="9" cy="7.3" r="1.8"/>
<circle class="st1" cx="40.9" cy="7.3" r="1.8"/>
<circle class="st1" cx="13.6" cy="7.3" r="1.8"/>
<circle class="st1" cx="18.2" cy="7.3" r="1.8"/>
<circle class="st1" cx="27.3" cy="7.3" r="1.8"/>
<circle class="st1" cx="31.8" cy="7.3" r="1.8"/>
<circle class="st1" cx="9" cy="42.7" r="1.8"/>
<circle class="st1" cx="13.6" cy="42.7" r="1.8"/>
<circle class="st1" cx="18.2" cy="42.7" r="1.8"/>
<circle class="st1" cx="27.3" cy="42.7" r="1.8"/>
<circle class="st1" cx="31.8" cy="42.7" r="1.8"/>
<circle class="st1" cx="36.4" cy="42.7" r="1.8"/>
<circle class="st1" cx="40.9" cy="19.1" r="1.8"/>
<circle class="st1" cx="13.6" cy="19.1" r="1.8"/>
<circle class="st1" cx="18.2" cy="19.1" r="1.8"/>
<circle class="st1" cx="22.7" cy="19.1" r="1.8"/>
<circle class="st1" cx="27.3" cy="19.1" r="1.8"/>
<circle class="st1" cx="36.4" cy="19.1" r="1.8"/>
<circle class="st1" cx="9" cy="30.9" r="1.8"/>
<circle class="st1" cx="40.9" cy="30.9" r="1.8"/>
<circle class="st1" cx="13.6" cy="30.9" r="1.8"/>
<circle class="st1" cx="27.3" cy="30.9" r="1.8"/>
<circle class="st1" cx="31.8" cy="30.9" r="1.8"/>
</svg>
