<?xml version="1.0" encoding="utf-8"?>
<!-- Generator: Adobe Illustrator 24.0.3, SVG Export Plug-In . SVG Version: 6.00 Build 0)  -->
<svg version="1.1" id="Layer_1" xmlns="http://www.w3.org/2000/svg" xmlns:xlink="http://www.w3.org/1999/xlink" x="0px" y="0px"
	 viewBox="0 0 50 50" style="enable-background:new 0 0 50 50;" xml:space="preserve">
<style type="text/css">
	.st0{fill:#FFFFFF;fill-opacity:0;}
	.st1{fill:#4E79A8;}
</style>
<rect class="st0" width="50" height="50"/>
<rect x="15.6" y="39.1" class="st1" width="7.1" height="7.1"/>
<rect x="15.6" y="21.4" class="st1" width="7.1" height="7.1"/>
<rect x="15.6" y="12.6" class="st1" width="7.1" height="7.1"/>
<rect x="15.6" y="30.3" class="st1" width="7.1" height="7.1"/>
<rect x="3.7" y="39.1" class="st1" width="7.1" height="7.1"/>
<rect x="3.7" y="30.3" class="st1" width="7.1" height="7.1"/>
<rect x="27.4" y="39.1" class="st1" width="7.1" height="7.1"/>
<rect x="27.4" y="21.4" class="st1" width="7.1" height="7.1"/>
<rect x="27.4" y="30.3" class="st1" width="7.1" height="7.1"/>
<rect x="39.2" y="39.1" class="st1" width="7.1" height="7.1"/>
<rect x="39.2" y="21.4" class="st1" width="7.1" height="7.1"/>
<rect x="39.2" y="3.7" class="st1" width="7.1" height="7.1"/>
<rect x="39.2" y="12.6" class="st1" width="7.1" height="7.1"/>
<rect x="39.2" y="30.3" class="st1" width="7.1" height="7.1"/>
</svg>
