<?xml version="1.0" encoding="utf-8"?>
<!-- Generator: Adobe Illustrator 24.0.3, SVG Export Plug-In . SVG Version: 6.00 Build 0)  -->
<svg version="1.1" id="Layer_1" xmlns="http://www.w3.org/2000/svg" xmlns:xlink="http://www.w3.org/1999/xlink" x="0px" y="0px"
	 viewBox="0 0 50 50" style="enable-background:new 0 0 50 50;" xml:space="preserve">
<style type="text/css">
	.st0{fill:#FFFFFF;fill-opacity:0;}
	.st1{fill:#4E79A8;}
</style>
<rect class="st0" width="50" height="50"/>
<path class="st1" d="M36,31.4c3.3,0,6,2.7,6,6s-2.7,6-6,6c-2.6,0-4.8-1.7-5.7-4H28v-4h2.3C31.2,33.1,33.4,31.4,36,31.4z M36,35.4
	c-1.1,0-2,0.9-2,2s0.9,2,2,2s2-0.9,2-2S37.1,35.4,36,35.4z M36,17.4c1.6,0,2.9-1.3,2.9-2.9s-1.3-2.9-2.9-2.9s-2.9,1.3-2.9,2.9
	S34.4,17.4,36,17.4z M36,6.6c4.4,0,8,3.6,8,8c0,6-8,14.9-8,14.9s-8-8.9-8-14.9C28,10.2,31.6,6.6,36,6.6z M17.7,35.4H20v4h-2.3
	c-0.8,2.3-3,4-5.7,4c-3.3,0-6-2.7-6-6c0-2.6,1.7-4.8,4-5.7v-2.3h4v2.3C15.7,32.4,17.1,33.7,17.7,35.4z M12,35.4c-1.1,0-2,0.9-2,2
	s0.9,2,2,2s2-0.9,2-2S13.1,35.4,12,35.4z M12,7.4c3.3,0,6,2.7,6,6c0,2.6-1.7,4.8-4,5.7v2.3h-4v-2.3c-2.3-0.8-4-3-4-5.7
	C6,10.1,8.7,7.4,12,7.4z M12,11.4c-1.1,0-2,0.9-2,2s0.9,2,2,2s2-0.9,2-2S13.1,11.4,12,11.4z M22,39.4v-4h4v4H22z M14,27.4h-4v-4h4
	V27.4z"/>
</svg>
