<?xml version="1.0" encoding="utf-8"?>
<!-- Generator: Adobe Illustrator 24.0.3, SVG Export Plug-In . SVG Version: 6.00 Build 0)  -->
<svg version="1.1" id="Layer_1" xmlns="http://www.w3.org/2000/svg" xmlns:xlink="http://www.w3.org/1999/xlink" x="0px" y="0px"
	 viewBox="0 0 50 50" style="enable-background:new 0 0 50 50;" xml:space="preserve">
<style type="text/css">
	.st0{fill:#FFFFFF;fill-opacity:0;}
	.st1{fill:#4E79A8;}
</style>
<rect class="st0" width="50" height="50"/>
<path class="st1" d="M7,29l1,0.2l9-9c-0.4-1.4,0-2.8,1-3.8c1.6-1.6,4-1.6,5.6,0c1,1,1.4,2.6,1,3.8l5,5L31,25c0.4,0,0.8,0,1,0.2l7-7
	c0-0.4,0-0.8,0-1.2c0-2.2,1.8-4,4-4s4,1.8,4,4s-1.8,4-4,4c-0.4,0-0.8,0-1-0.2l-7,7c0,0.4,0.2,0.6,0.2,1c0,2.2-1.8,4-4,4s-4-1.8-4-4
	l0.2-1l-5-5c-0.6,0.2-1.4,0.2-2,0l-9,9L11,33c0,2.2-1.8,4-4,4s-4-1.8-4-4S4.8,29,7,29z"/>
</svg>
