<?xml version="1.0" encoding="utf-8"?>
<!-- Generator: Adobe Illustrator 23.0.3, SVG Export Plug-In . SVG Version: 6.00 Build 0)  -->
<svg version="1.1" id="Layer_1" xmlns="http://www.w3.org/2000/svg" xmlns:xlink="http://www.w3.org/1999/xlink" x="0px" y="0px"
	 viewBox="0 0 50 50" style="enable-background:new 0 0 50 50;" xml:space="preserve">
<style type="text/css">
	.st0{fill:#FFFFFF;fill-opacity:0;}
	.st1{fill:#939598;}
</style>
<rect class="st0" width="50" height="50"/>
<path class="st1" d="M45,37.6V12.4c1.2-0.7,2-2,2-3.4c0-2.2-1.8-4-4-4s-4,1.8-4,4c0,0.4,0,0.7,0.1,1L32,17.1C31.7,17,31.4,17,31,17
	l-1,0.1L24.9,12c0.4-1.3,0-2.8-1-3.9c-1.6-1.6-4.1-1.6-5.7,0c-1,1-1.4,2.5-1,3.9L8,21.1L7,21c-2.2,0-4,1.8-4,4c0,1.5,0.8,2.8,2,3.4
	v9.1c-1.2,0.7-2,2-2,3.4c0,2.2,1.8,4,4,4c1.5,0,2.8-0.8,3.4-2h29.1c0.7,1.2,2,2,3.4,2c2.2,0,4-1.8,4-4C47,39.5,46.2,38.2,45,37.6z
	 M10.9,24l9.1-9.1c0.7,0.2,1.4,0.2,2.1,0l5.1,5.1L27,21c0,2.2,1.8,4,4,4s4-1.8,4-4c0-0.4,0-0.7-0.1-1l6.1-6.1v23.7
	c-0.6,0.3-1.1,0.8-1.4,1.4H10.4c-0.3-0.6-0.8-1.1-1.4-1.4v-9.1c1.2-0.7,2-2,2-3.4L10.9,24z"/>
</svg>
