<?xml version="1.0" encoding="utf-8"?>
<!-- Generator: Adobe Illustrator 24.1.2, SVG Export Plug-In . SVG Version: 6.00 Build 0)  -->
<svg version="1.1" id="Layer_1" xmlns="http://www.w3.org/2000/svg" xmlns:xlink="http://www.w3.org/1999/xlink" x="0px" y="0px"
	 viewBox="0 0 50 50" style="enable-background:new 0 0 50 50;" xml:space="preserve">
<style type="text/css">
	.st0{fill:#FFFFFF;fill-opacity:0;}
	.st1{fill:#76A2C9;}
	.st2{fill:#4E79A8;}
</style>
<rect class="st0" width="50" height="50"/>
<g>
	<rect x="40.8" y="13" class="st1" width="5.4" height="5.4"/>
</g>
<rect x="16.1" y="13" class="st1" width="5.4" height="5.4"/>
<g>
	<rect x="22.3" y="13" class="st1" width="5.4" height="5.4"/>
</g>
<g>
	<rect x="28.5" y="13" class="st1" width="5.4" height="5.4"/>
</g>
<g>
	<rect x="34.7" y="13" class="st1" width="5.4" height="5.4"/>
</g>
<g>
	<rect x="3.7" y="19.2" class="st2" width="5.4" height="5.4"/>
</g>
<g>
	<rect x="40.8" y="19.2" class="st1" width="5.4" height="5.4"/>
</g>
<g>
	<rect x="9.9" y="19.2" class="st2" width="5.4" height="5.4"/>
</g>
<g>
	<rect x="16.1" y="19.2" class="st2" width="5.4" height="5.4"/>
</g>
<g>
	<rect x="22.3" y="19.2" class="st2" width="5.4" height="5.4"/>
</g>
<g>
	<rect x="28.5" y="19.2" class="st1" width="5.4" height="5.4"/>
</g>
<g>
	<rect x="34.7" y="19.2" class="st1" width="5.4" height="5.4"/>
</g>
<g>
	<rect x="3.7" y="25.4" class="st2" width="5.4" height="5.4"/>
</g>
<g>
	<rect x="40.8" y="25.4" class="st2" width="5.4" height="5.4"/>
</g>
<g>
	<rect x="9.9" y="25.4" class="st2" width="5.4" height="5.4"/>
</g>
<g>
	<rect x="16.1" y="25.4" class="st2" width="5.4" height="5.4"/>
</g>
<g>
	<rect x="22.3" y="25.4" class="st2" width="5.4" height="5.4"/>
</g>
<g>
	<rect x="28.5" y="25.4" class="st2" width="5.4" height="5.4"/>
</g>
<g>
	<rect x="34.7" y="25.4" class="st2" width="5.4" height="5.4"/>
</g>
<g>
	<rect x="3.7" y="31.6" class="st2" width="5.4" height="5.4"/>
</g>
<g>
	<rect x="40.8" y="31.6" class="st2" width="5.4" height="5.4"/>
</g>
<g>
	<rect x="9.9" y="31.6" class="st2" width="5.4" height="5.4"/>
</g>
<g>
	<rect x="16.1" y="31.6" class="st2" width="5.4" height="5.4"/>
</g>
<g>
	<rect x="22.3" y="31.6" class="st2" width="5.4" height="5.4"/>
</g>
<g>
	<rect x="28.5" y="31.6" class="st2" width="5.4" height="5.4"/>
</g>
<g>
	<rect x="34.7" y="31.6" class="st2" width="5.4" height="5.4"/>
</g>
<g>
	<rect x="3.7" y="37.8" class="st2" width="5.4" height="5.4"/>
</g>
<g>
	<rect x="9.9" y="37.8" class="st2" width="5.4" height="5.4"/>
</g>
<g>
	<rect x="16.1" y="37.8" class="st2" width="5.4" height="5.4"/>
</g>
<g>
	<rect x="22.3" y="37.8" class="st2" width="5.4" height="5.4"/>
</g>
<g>
	<rect x="28.5" y="37.8" class="st2" width="5.4" height="5.4"/>
</g>
<g>
	<rect x="3.7" y="13" class="st1" width="5.4" height="5.4"/>
</g>
<g>
	<rect x="9.9" y="13" class="st1" width="5.4" height="5.4"/>
</g>
<g>
	<rect x="34.6" y="37.8" class="st2" width="5.4" height="5.4"/>
</g>
<g>
	<rect x="40.8" y="37.8" class="st2" width="5.4" height="5.4"/>
</g>
<g>
	<rect x="40.8" y="6.8" class="st1" width="5.4" height="5.4"/>
</g>
<rect x="16.1" y="6.8" class="st1" width="5.4" height="5.4"/>
<g>
	<rect x="22.3" y="6.8" class="st1" width="5.4" height="5.4"/>
</g>
<g>
	<rect x="28.5" y="6.8" class="st1" width="5.4" height="5.4"/>
</g>
<g>
	<rect x="34.7" y="6.8" class="st1" width="5.4" height="5.4"/>
</g>
<g>
	<rect x="3.7" y="6.8" class="st1" width="5.4" height="5.4"/>
</g>
<g>
	<rect x="9.9" y="6.8" class="st1" width="5.4" height="5.4"/>
</g>
</svg>
