<?xml version="1.0" encoding="utf-8"?>
<!-- Generator: Adobe Illustrator 24.1.2, SVG Export Plug-In . SVG Version: 6.00 Build 0)  -->
<svg version="1.1" id="Layer_1" xmlns="http://www.w3.org/2000/svg" xmlns:xlink="http://www.w3.org/1999/xlink" x="0px" y="0px"
	 viewBox="0 0 50 50" style="enable-background:new 0 0 50 50;" xml:space="preserve">
<style type="text/css">
	.st0{fill:#FFFFFF;}
	.st1{fill:#A4478C;}
	.st2{fill:#C478B1;}
	.st3{fill:#DDB2D2;}
</style>
<rect class="st0" width="50" height="50"/>
<rect x="4.1" y="35" class="st1" width="10.6" height="7.1"/>
<path class="st0" d="M15.2,42.6H3.6v-8.1h11.6C15.2,34.5,15.2,42.6,15.2,42.6z M4.6,41.6h9.6v-6.1H4.6V41.6z"/>
<rect x="14.7" y="27.9" class="st1" width="17.7" height="14.2"/>
<path class="st0" d="M32.9,42.6H14.2V27.4h18.7V42.6z M15.2,41.6h16.7V28.4H15.2V41.6z"/>
<rect x="32.4" y="38.5" class="st1" width="14.2" height="3.5"/>
<path class="st0" d="M47.1,42.6H31.9V38h15.2V42.6z M32.9,41.6h13.2V39H32.9V41.6z"/>
<rect x="4.1" y="24.4" class="st2" width="10.6" height="10.6"/>
<path class="st0" d="M15.2,35.5H3.6V23.9h11.6C15.2,23.9,15.2,35.5,15.2,35.5z M4.6,34.5h9.6v-9.6H4.6V34.5z"/>
<rect x="14.7" y="17.3" class="st2" width="17.7" height="10.6"/>
<path class="st0" d="M32.9,28.4H14.2V16.8h18.7V28.4z M15.2,27.4h16.7v-9.6H15.2V27.4z"/>
<rect x="32.4" y="13.7" class="st2" width="14.2" height="24.8"/>
<path class="st0" d="M47.1,39H31.9V13.2h15.2V39z M32.9,38h13.2V14.2H32.9V38z"/>
<rect x="4.1" y="6.7" class="st3" width="10.6" height="17.7"/>
<path class="st0" d="M15.2,24.9H3.6V6.2h11.6C15.2,6.2,15.2,24.9,15.2,24.9z M4.6,23.9h9.6V7.2H4.6V23.9z"/>
<rect x="14.7" y="6.7" class="st3" width="17.7" height="10.6"/>
<path class="st0" d="M32.9,17.8H14.2V6.2h18.7V17.8z M15.2,16.8h16.7V7.2H15.2V16.8z"/>
<rect x="32.4" y="6.7" class="st3" width="14.2" height="7.1"/>
<path class="st0" d="M47.1,14.2H31.9v-8h15.2V14.2z M32.9,13.2h13.2v-6H32.9V13.2z"/>
</svg>
