<?xml version="1.0" encoding="utf-8"?>
<!-- Generator: Adobe Illustrator 19.0.1, SVG Export Plug-In . SVG Version: 6.00 Build 0)  -->
<svg version="1.1" id="Layer_1" xmlns="http://www.w3.org/2000/svg" xmlns:xlink="http://www.w3.org/1999/xlink" x="0px" y="0px"
	 viewBox="0 0 50 50" enable-background="new 0 0 50 50" xml:space="preserve">
<g opacity="0">
	<rect fill="#FFFFFF" width="50" height="50"/>
</g>
<g>
	<rect x="4.1" y="35" fill="#939598" width="10.6" height="7.1"/>
	<path fill="#FFFFFF" d="M15.2,42.6H3.6v-8.1h11.6V42.6z M4.6,41.6h9.6v-6.1H4.6V41.6z"/>
</g>
<g>
	<rect x="14.7" y="27.9" fill="#939598" width="17.7" height="14.2"/>
	<path fill="#FFFFFF" d="M32.9,42.6H14.2V27.4h18.7V42.6z M15.2,41.6h16.7V28.4H15.2V41.6z"/>
</g>
<g>
	<rect x="32.4" y="38.5" fill="#939598" width="14.2" height="3.5"/>
	<path fill="#FFFFFF" d="M47.1,42.6H31.9V38h15.2V42.6z M32.9,41.6h13.2V39H32.9V41.6z"/>
</g>
<g>
	<rect x="4.1" y="24.4" fill="#B1B3B6" width="10.6" height="10.6"/>
	<path fill="#FFFFFF" d="M15.2,35.5H3.6V23.9h11.6V35.5z M4.6,34.5h9.6v-9.6H4.6V34.5z"/>
</g>
<g>
	<rect x="14.7" y="17.3" fill="#B1B3B6" width="17.7" height="10.6"/>
	<path fill="#FFFFFF" d="M32.9,28.4H14.2V16.8h18.7V28.4z M15.2,27.4h16.7v-9.6H15.2V27.4z"/>
</g>
<g>
	<rect x="32.4" y="13.7" fill="#B1B3B6" width="14.2" height="24.8"/>
	<path fill="#FFFFFF" d="M47.1,39H31.9V13.2h15.2V39z M32.9,38h13.2V14.2H32.9V38z"/>
</g>
<g>
	<rect x="4.1" y="6.7" fill="#D1D3D4" width="10.6" height="17.7"/>
	<path fill="#FFFFFF" d="M15.2,24.9H3.6V6.2h11.6V24.9z M4.6,23.9h9.6V7.2H4.6V23.9z"/>
</g>
<g>
	<rect x="14.7" y="6.7" fill="#D1D3D4" width="17.7" height="10.6"/>
	<path fill="#FFFFFF" d="M32.9,17.8H14.2V6.2h18.7V17.8z M15.2,16.8h16.7V7.2H15.2V16.8z"/>
</g>
<g>
	<rect x="32.4" y="6.7" fill="#D1D3D4" width="14.2" height="7.1"/>
	<path fill="#FFFFFF" d="M47.1,14.2H31.9V6.2h15.2V14.2z M32.9,13.2h13.2V7.2H32.9V13.2z"/>
</g>
</svg>
