<?xml version="1.0" encoding="utf-8"?>
<!-- Generator: Adobe Illustrator 24.1.2, SVG Export Plug-In . SVG Version: 6.00 Build 0)  -->
<svg version="1.1" id="Layer_1" xmlns="http://www.w3.org/2000/svg" xmlns:xlink="http://www.w3.org/1999/xlink" x="0px" y="0px"
	 viewBox="0 0 50 50" style="enable-background:new 0 0 50 50;" xml:space="preserve">
<style type="text/css">
	.st0{fill:#FFFFFF;fill-opacity:0;}
	.st1{fill:#0054A6;}
	.st2{fill:#FFFFFF;}
	.st3{fill:#3099FE;}
</style>
<rect class="st0" width="50" height="50"/>
<path class="st1" d="M37.3,12.7c-3.3-3.2-7.5-5-12-5.1v8.2V25l-6.7,6.8l-5.8,5.8c3.3,3.1,7.5,4.8,12.1,4.8c4.6,0,9-1.8,12.3-5.1
	c3.3-3.3,5.1-7.7,5.1-12.3C42.3,20.3,40.5,16,37.3,12.7z"/>
<path class="st2" d="M24.6,15.7"/>
<path class="st3" d="M24.5,24.7l0-9V7.6c-4.4,0.1-8.7,1.9-12,5.1c-3.2,3.3-5,7.7-5,12.3c0,4.4,1.7,8.6,4.7,11.9L24.5,24.7z"/>
</svg>
