<?xml version="1.0" encoding="utf-8"?>
<!-- Generator: Adobe Illustrator 24.0.3, SVG Export Plug-In . SVG Version: 6.00 Build 0)  -->
<svg version="1.1" id="Layer_1" xmlns="http://www.w3.org/2000/svg" xmlns:xlink="http://www.w3.org/1999/xlink" x="0px" y="0px"
	 viewBox="0 0 50 50" style="enable-background:new 0 0 50 50;" xml:space="preserve">
<style type="text/css">
	.st0{opacity:0;}
	.st1{fill:#FFFFFF;}
	.st2{fill:#9ECAE9;}
	.st3{fill:#4E79A8;}
</style>
<g class="st0">
	<rect class="st1" width="50" height="50"/>
</g>
<g>
	<polygon class="st2" points="35.5,5.8 24.9,19.9 14.2,12.8 3.6,27 3.6,34.1 14.2,27 24.9,34.1 35.5,19.9 46.1,34.1 46.1,12.8 	"/>
</g>
<g>
	<rect x="3.6" y="44.2" class="st2" width="42.5" height="1"/>
</g>
<g>
	<polygon class="st3" points="4,27.3 3.2,26.7 14.1,12.2 24.8,19.3 35.4,5.1 46.4,12.4 45.9,13.3 35.6,6.4 25,20.6 14.4,13.5 	"/>
</g>
<g>
	<polygon class="st3" points="25,34.8 14.2,27.6 3.9,34.5 3.3,33.7 14.2,26.4 24.8,33.4 35.5,19.1 46.5,33.8 45.7,34.4 35.5,20.8 	
		"/>
</g>
</svg>
