<?xml version="1.0" encoding="utf-8"?>
<!-- Generator: Adobe Illustrator 24.1.2, SVG Export Plug-In . SVG Version: 6.00 Build 0)  -->
<svg version="1.1" id="Layer_1" xmlns="http://www.w3.org/2000/svg" xmlns:xlink="http://www.w3.org/1999/xlink" x="0px" y="0px"
	 viewBox="0 0 50 50" style="enable-background:new 0 0 50 50;" xml:space="preserve">
<style type="text/css">
	.st0{fill:#FFFFFF;fill-opacity:0;}
	.st1{fill:none;stroke:#F7A27A;stroke-miterlimit:10;}
	.st2{fill:#F26522;}
	.st3{fill:#F7A27A;}
	.st4{fill:none;stroke:#F26522;stroke-miterlimit:10;}
	.st5{fill:#F9C1A6;}
</style>
<rect class="st0" width="50" height="50"/>
<polyline class="st1" points="9,35.1 14.4,29.2 19.7,17.4 25,23.4 30.3,41 35.6,35.1 40.9,11.5 "/>
<circle class="st2" cx="25" cy="5.6" r="1.8"/>
<circle class="st3" cx="30.3" cy="41" r="1.8"/>
<circle class="st3" cx="19.7" cy="17.4" r="1.8"/>
<circle class="st2" cx="35.6" cy="17.4" r="1.8"/>
<circle class="st2" cx="9" cy="17.4" r="1.8"/>
<circle class="st3" cx="14.4" cy="29.2" r="1.8"/>
<circle class="st2" cx="19.7" cy="29.2" r="1.8"/>
<circle class="st3" cx="25" cy="23.4" r="1.8"/>
<circle class="st2" cx="30.3" cy="23.4" r="1.8"/>
<circle class="st3" cx="40.9" cy="11.5" r="1.8"/>
<circle class="st2" cx="14.4" cy="11.5" r="1.8"/>
<circle class="st3" cx="9" cy="35.1" r="1.8"/>
<circle class="st2" cx="40.9" cy="35.1" r="1.8"/>
<circle class="st3" cx="35.6" cy="35.1" r="1.8"/>
<polyline class="st4" points="9,17.4 14.4,11.5 19.7,29.2 25,5.6 30.3,23.4 35.6,17.4 40.9,35.1 "/>
<g>
	<rect x="3.7" y="45.2" class="st5" width="42.5" height="1"/>
</g>
</svg>
