<?xml version="1.0" encoding="utf-8"?>
<!-- Generator: Adobe Illustrator 24.1.2, SVG Export Plug-In . SVG Version: 6.00 Build 0)  -->
<svg version="1.1" id="Layer_1" xmlns="http://www.w3.org/2000/svg" xmlns:xlink="http://www.w3.org/1999/xlink" x="0px" y="0px"
	 viewBox="0 0 50 50" style="enable-background:new 0 0 50 50;" xml:space="preserve">
<style type="text/css">
	.st0{fill:#FFFFFF;fill-opacity:0;}
	.st1{fill:#76A2C9;}
	.st2{fill:#4E79A8;}
</style>
<rect class="st0" width="50" height="50"/>
<rect x="3.7476" y="34.2885" class="st1" width="42.5016" height="8.9115"/>
<path class="st2" d="M46.2492,24.3977c-10.941,0-16.4984-1.1653-21.8727-2.2921c-5.3067-1.1127-10.319-2.1636-20.6289-2.1636
	v-4.4558c10.941,0,16.4983,1.1652,21.8727,2.2921c5.3067,1.1127,10.319,2.1636,20.6289,2.1636V24.3977z"/>
<path class="st2" d="M46.2492,34.2885c-11.29,0-16.9884-2.6522-22.499-5.217c-5.1641-2.4036-10.0418-4.6738-20.0026-4.6738v-4.4558
	c11.2901,0,16.9884,2.6522,22.499,5.217c5.1641,2.4036,10.0418,4.6738,20.0026,4.6738V34.2885z"/>
<path class="st1" d="M3.7476,34.2885v-4.4558c10.2432,0,15.2265-1.2746,20.5025-2.6239c5.4038-1.3821,10.9915-2.8111,21.9991-2.8111
	v4.4558c-10.2432,0-15.2265,1.2745-20.5024,2.6238C20.3429,32.8594,14.7552,34.2885,3.7476,34.2885z"/>
<path class="st1" d="M3.7476,29.8327V25.377c9.904,0,14.7646-2.4862,19.9105-5.1185c2.7193-1.3909,5.5312-2.8293,9.0913-3.9219
	c4.0116-1.2312,8.4275-1.8297,13.4998-1.8297v4.4558c-9.904,0-14.7645,2.4862-19.9104,5.1185
	c-2.7194,1.391-5.5312,2.8292-9.0913,3.9219C13.2358,29.2342,8.8199,29.8327,3.7476,29.8327z"/>
<path class="st2" d="M27.794,18.2285c-1.4519,0.6573-2.8052,1.3493-4.136,2.03c-0.8006,0.4096-1.5944,0.8155-2.4013,1.2092
	c1.0564,0.2054,2.0825,0.4204,3.1196,0.6379c1.3615,0.2854,2.735,0.5734,4.2046,0.8442c2.7439-1.3468,5.6258-2.5569,9.4388-3.2816
	C33.8364,19.3602,30.7431,18.8245,27.794,18.2285z"/>
<path class="st2" d="M10.8783,24.8622c3.4837,0.4962,6.205,1.3478,8.6829,2.3486c2.0604-0.7782,3.8807-1.6591,5.6269-2.5432
	c-1.7922-0.8273-3.64-1.6453-5.7244-2.3624C17.0098,23.3932,14.3164,24.3195,10.8783,24.8622z"/>
<path class="st2" d="M3.7476,6.7968v8.6894c10.7661,0,16.239-0.2522,21.5318-0.4961c5.392-0.2485,10.485-0.4832,20.9697-0.4832
	V6.7968H3.7476z"/>
</svg>
