<?xml version="1.0" encoding="utf-8"?>
<!-- Generator: Adobe Illustrator 24.1.2, SVG Export Plug-In . SVG Version: 6.00 Build 0)  -->
<svg version="1.1" id="Layer_1" xmlns="http://www.w3.org/2000/svg" xmlns:xlink="http://www.w3.org/1999/xlink" x="0px" y="0px"
	 viewBox="0 0 50 50" style="enable-background:new 0 0 50 50;" xml:space="preserve">
<style type="text/css">
	.st0{opacity:0;}
	.st1{fill:#FFFFFF;}
	.st2{fill:#4E79A8;}
</style>
<g class="st0">
	<rect class="st1" width="50" height="50"/>
</g>
<g>
	<rect x="14.3" y="43.1" class="st2" width="21.2" height="2"/>
</g>
<rect x="9" y="40.7" class="st2" width="31.9" height="2"/>
<rect x="3.7" y="38.3" class="st2" width="42.5" height="2"/>
<rect x="19.6" y="35.9" class="st2" width="10.6" height="2"/>
<rect x="12.2" y="33.5" class="st2" width="25.5" height="2"/>
<rect x="14.3" y="31.2" class="st2" width="21.2" height="2"/>
<rect x="10.1" y="28.8" class="st2" width="29.8" height="2"/>
<rect x="20.7" y="26.4" class="st2" width="8.5" height="2"/>
<rect x="16.5" y="24" class="st2" width="17" height="2"/>
<rect x="18.1" y="21.6" class="st2" width="13.8" height="2"/>
<rect x="22.9" y="19.2" class="st2" width="4.2" height="2"/>
<rect x="19.7" y="16.8" class="st2" width="10.6" height="2"/>
<rect x="12.2" y="14.4" class="st2" width="25.5" height="2"/>
<rect x="5.9" y="12.1" class="st2" width="38.2" height="2"/>
<rect x="14.4" y="9.7" class="st2" width="21.2" height="2"/>
<rect x="18.6" y="7.3" class="st2" width="12.8" height="2"/>
<g>
	<rect x="22.9" y="4.9" class="st2" width="4.2" height="2"/>
</g>
</svg>
