<?xml version="1.0" encoding="utf-8"?>
<!-- Generator: Adobe Illustrator 24.1.2, SVG Export Plug-In . SVG Version: 6.00 Build 0)  -->
<svg version="1.1" id="Layer_1" xmlns="http://www.w3.org/2000/svg" xmlns:xlink="http://www.w3.org/1999/xlink" x="0px" y="0px"
	 viewBox="0 0 50 50" style="enable-background:new 0 0 50 50;" xml:space="preserve">
<style type="text/css">
	.st0{opacity:0;}
	.st1{fill:#FFFFFF;}
	.st2{fill:#65D47A;}
	.st3{fill:#28903B;}
</style>
<g class="st0">
	<rect class="st1" width="50" height="50"/>
</g>
<path class="st2" d="M38.8,21.9c-3.2,7.6-5,10.2-6.1,11.4s-4.6-1-7.2-9.8s-7.2,0.9-7.2,0.9S15.6,31,11.2,28c-3.1-2.1-5.9-1-7.4-0.1
	v5.5c0,0,3-0.9,4.4,0c1.3,0.9,2.7,3.2,3.2,4.1c0.4,0.9,2.8,3.5,4.1-1.7c1.2-5.2,4-4.8,4.7-2.8c0.7,2,1.3,6,6.1,4.4
	c4.7-1.5,8.7,3.9,9,4.5c0.3,0.6,2.4,2.4,5.4-0.5c3-2.9,5.8,0.4,5.8,0.4V13.9C44.1,14,41.6,15.4,38.8,21.9z"/>
<path class="st3" d="M40.7,9.1c-3.9-1.4-2.5-4.7-7.8,1.7c-5.2,6.5-8,1.4-8,1.4s-2.1-2.9-4.6,3.6c-2.5,6.6-5.4-3-5.4-3
	s-2-4.9-4.1,0.5c-2.2,5.4-7.1,2.9-7.1,2.9v11.5c1.5-0.9,4.3-2,7.4,0.1c4.4,3,7.1-3.6,7.1-3.6s4.6-9.7,7.2-0.9s6,11,7.2,9.8
	s2.9-3.8,6.1-11.4c2.8-6.6,5.2-7.9,7.4-8V7.4C46.2,7.4,44.6,10.5,40.7,9.1z"/>
</svg>
