<?xml version="1.0" encoding="utf-8"?>
<!-- Generator: Adobe Illustrator 24.1.2, SVG Export Plug-In . SVG Version: 6.00 Build 0)  -->
<svg version="1.1" id="Layer_1" xmlns="http://www.w3.org/2000/svg" xmlns:xlink="http://www.w3.org/1999/xlink" x="0px" y="0px"
	 viewBox="0 0 50 50" style="enable-background:new 0 0 50 50;" xml:space="preserve">
<style type="text/css">
	.st0{fill:#FFFFFF;fill-opacity:0;}
	.st1{fill:#4E79A8;}
</style>
<rect class="st0" width="50" height="50"/>
<rect x="3.8" y="27.3" class="st1" width="7.1" height="7.1"/>
<rect x="21.5" y="27.3" class="st1" width="7.1" height="7.1"/>
<rect x="30.3" y="27.3" class="st1" width="7.1" height="7.1"/>
<rect x="12.6" y="27.3" class="st1" width="7.1" height="7.1"/>
<rect x="3.8" y="39.2" class="st1" width="7.1" height="7.1"/>
<rect x="3.8" y="15.5" class="st1" width="7.1" height="7.1"/>
<rect x="3.8" y="3.7" class="st1" width="7.1" height="7.1"/>
<rect x="21.5" y="3.7" class="st1" width="7.1" height="7.1"/>
<rect x="30.3" y="3.7" class="st1" width="7.1" height="7.1"/>
<rect x="12.6" y="3.7" class="st1" width="7.1" height="7.1"/>
<g>
	<path class="st1" d="M16.1,46.3c-2,0-3.5-1.6-3.5-3.5c0-2,1.6-3.5,3.5-3.5c2,0,3.5,1.6,3.5,3.5C19.7,44.7,18.1,46.3,16.1,46.3z
		 M16.1,40.4c-1.3,0-2.3,1-2.3,2.3s1,2.3,2.3,2.3c1.3,0,2.3-1,2.3-2.3S17.4,40.4,16.1,40.4z"/>
</g>
<g>
	<path class="st1" d="M25.1,22.6c-2,0-3.5-1.6-3.5-3.5s1.6-3.5,3.5-3.5c2,0,3.5,1.6,3.5,3.5S27,22.6,25.1,22.6z M25.1,16.7
		c-1.3,0-2.3,1-2.3,2.3s1,2.3,2.3,2.3c1.3,0,2.3-1,2.3-2.3S26.3,16.7,25.1,16.7z"/>
</g>
<g>
	<path class="st1" d="M16.2,22.6c-2,0-3.5-1.6-3.5-3.5s1.6-3.5,3.5-3.5c2,0,3.5,1.6,3.5,3.5S18.1,22.6,16.2,22.6z M16.2,16.7
		c-1.3,0-2.3,1-2.3,2.3s1,2.3,2.3,2.3c1.3,0,2.3-1,2.3-2.3S17.4,16.7,16.2,16.7z"/>
</g>
<g>
	<path class="st1" d="M42.8,10.8c-2,0-3.5-1.6-3.5-3.5s1.6-3.5,3.5-3.5c2,0,3.5,1.6,3.5,3.5S44.7,10.8,42.8,10.8z M42.8,4.9
		c-1.3,0-2.3,1-2.3,2.3s1,2.3,2.3,2.3c1.3,0,2.3-1,2.3-2.3S44,4.9,42.8,4.9z"/>
</g>
</svg>
