<?xml version="1.0" encoding="utf-8"?>
<!-- Generator: Adobe Illustrator 24.1.2, SVG Export Plug-In . SVG Version: 6.00 Build 0)  -->
<svg version="1.1" id="Layer_1" xmlns="http://www.w3.org/2000/svg" xmlns:xlink="http://www.w3.org/1999/xlink" x="0px" y="0px"
	 viewBox="0 0 50 50" style="enable-background:new 0 0 50 50;" xml:space="preserve">
<style type="text/css">
	.st0{opacity:0;}
	.st1{fill:#FFFFFF;}
	.st2{fill:#9ECAE9;}
	.st3{fill:#76A2C9;}
	.st4{fill:#4E79A8;}
</style>
<g class="st0">
	<rect class="st1" width="50" height="50"/>
</g>
<g>
	<circle class="st2" cx="25" cy="17.3" r="12.6"/>
	<ellipse transform="matrix(0.3888 -0.9213 0.9213 0.3888 -9.5878 50.9903)" class="st2" cx="33.6" cy="32.7" rx="12.6" ry="12.6"/>
	<circle class="st2" cx="16.4" cy="32.7" r="12.6"/>
</g>
<path class="st3" d="M25,23.6c-3.7,3.5-5.1,9-3,13.9c0.7,1.7,1.8,3.2,3,4.4c3.7-3.5,5.1-9,3-13.9C27.3,26.2,26.3,24.8,25,23.6z"/>
<path class="st3" d="M28.5,29.4c-0.1-0.5-0.3-0.9-0.5-1.4c-2.5-6-9.1-9.1-15.2-7.4c0.1,0.5,0.3,0.9,0.5,1.4
	C15.8,28.1,22.4,31.2,28.5,29.4z"/>
<path class="st3" d="M37.1,20.6c-2.6-0.8-5.5-0.7-8.2,0.4c-3.8,1.5-6.4,4.7-7.4,8.3c2.6,0.8,5.5,0.7,8.2-0.4
	C33.5,27.4,36.1,24.3,37.1,20.6z"/>
<path class="st4" d="M28.5,29.4c-0.1-0.5-0.3-0.9-0.5-1.4c-0.7-1.7-1.8-3.2-3-4.4c-1.7,1.6-2.9,3.6-3.5,5.8
	C23.7,30,26.2,30.1,28.5,29.4z"/>
</svg>
