<?xml version="1.0" encoding="utf-8"?>
<!-- Generator: Adobe Illustrator 24.1.2, SVG Export Plug-In . SVG Version: 6.00 Build 0)  -->
<svg version="1.1" id="Layer_1" xmlns="http://www.w3.org/2000/svg" xmlns:xlink="http://www.w3.org/1999/xlink" x="0px" y="0px"
	 viewBox="0 0 50 50" style="enable-background:new 0 0 50 50;" xml:space="preserve">
<style type="text/css">
	.st0{fill:#FFFFFF;}
	.st1{fill:#0054A6;}
</style>
<rect class="st0" width="50" height="50"/>
<g>
	<polygon class="st1" points="23.4,27.4 37.9,32.5 44.9,26.2 30.9,17.5 	"/>
	<polygon class="st1" points="45.7,8.4 31.7,16.8 45.7,25.5 	"/>
	<polygon class="st1" points="4.2,34.3 21.2,27.6 4.2,21 	"/>
	<polygon class="st1" points="30.1,16.8 22.3,8.5 5.3,20.4 22.4,27 	"/>
	<polygon class="st1" points="30.8,16.2 44.8,7.8 23,7.8 	"/>
	<polygon class="st1" points="21.5,7.8 4.2,7.8 4.2,19.9 	"/>
	<polygon class="st1" points="21.8,28.5 4.2,35.3 4.2,42.2 16.6,42.2 	"/>
	<polygon class="st1" points="38.7,33.1 45.7,41.4 45.7,26.8 	"/>
	<polygon class="st1" points="36.7,33.1 22.9,28.2 18.1,41.3 	"/>
	<polygon class="st1" points="37.9,33.7 18.4,42.2 45.1,42.2 	"/>
</g>
</svg>
